<svg id="Layer_1" data-name="Layer 1" xmlns="http://www.w3.org/2000/svg" xmlns:xlink="http://www.w3.org/1999/xlink" viewBox="0 0 600 114.38"><defs><style>.cls-1,.cls-6{fill:none;}.cls-2{fill:#939598;}.cls-3{fill:#16498f;}.cls-4{clip-path:url(#clip-path);}.cls-5{fill:#2a5c9b;opacity:0.42;isolation:isolate;}.cls-6{stroke:#fff;stroke-miterlimit:10;stroke-width:2px;}.cls-7{fill:#fff;}</style><clipPath id="clip-path" transform="translate(0 -44.69)"><rect id="SVGID" class="cls-1" y="44.69" width="162.15" height="110.75" rx="6.29"/></clipPath></defs><title>logo_vt_flat</title><path class="cls-2" d="M416.7,158.11A6.8,6.8,0,0,1,414,155.5a7.27,7.27,0,0,1-1-3.74,7.17,7.17,0,0,1,1-3.73,6.82,6.82,0,0,1,2.69-2.61,7.87,7.87,0,0,1,3.85-.95,8.1,8.1,0,0,1,2.95.53,6,6,0,0,1,2.29,1.56l-1,1a5.72,5.72,0,0,0-4.24-1.7,6.22,6.22,0,0,0-3.09.78,5.74,5.74,0,0,0-2.18,2.14,6,6,0,0,0-.79,3,5.79,5.79,0,0,0,.79,3,5.61,5.61,0,0,0,2.18,2.14,6.22,6.22,0,0,0,3.09.78,5.65,5.65,0,0,0,4.24-1.72l1,1a6.41,6.41,0,0,1-2.3,1.57,8,8,0,0,1-3,.54A7.87,7.87,0,0,1,416.7,158.11Z" transform="translate(0 -44.69)"/><path class="cls-2" d="M445.11,144.59v14.33h-1.5v-6.61h-9v6.61h-1.52V144.59h1.52V151h9v-6.39Z" transform="translate(0 -44.69)"/><path class="cls-2" d="M453.88,144.59h1.52v14.33h-1.52Z" transform="translate(0 -44.69)"/><path class="cls-2" d="M476.14,144.59v14.33h-1.5v-6.61h-9v6.61h-1.51V144.59h1.51V151h9v-6.39Z" transform="translate(0 -44.69)"/><path class="cls-2" d="M486.34,157.46a6.37,6.37,0,0,1-1.56-4.65v-8.22h1.52v8.16a5.37,5.37,0,0,0,1.12,3.73,5,5,0,0,0,6.54,0,5.37,5.37,0,0,0,1.12-3.73v-8.14h1.48v8.21a6.43,6.43,0,0,1-1.55,4.65,6.66,6.66,0,0,1-8.67,0Z" transform="translate(0 -44.69)"/><path class="cls-2" d="M513.9,155.11h-8l-1.72,3.82h-1.57l6.55-14.32h1.5l6.56,14.32h-1.59Zm-.55-1.23-3.45-7.7-3.44,7.7Z" transform="translate(0 -44.69)"/><path class="cls-2" d="M535.67,144.59v14.33h-1.5v-6.61h-9v6.61h-1.52V144.59h1.52V151h9v-6.39Z" transform="translate(0 -44.69)"/><path class="cls-2" d="M545.87,157.46a6.37,6.37,0,0,1-1.56-4.65v-8.22h1.51v8.16a5.37,5.37,0,0,0,1.13,3.73,4.95,4.95,0,0,0,6.53,0,5.37,5.37,0,0,0,1.13-3.73v-8.14h1.48v8.21a6.43,6.43,0,0,1-1.56,4.65,5.71,5.71,0,0,1-4.32,1.6A5.8,5.8,0,0,1,545.87,157.46Z" transform="translate(0 -44.69)"/><path class="cls-2" d="M573.43,155.11h-8l-1.72,3.82h-1.57l6.56-14.32h1.5l6.55,14.32h-1.59Zm-.55-1.23-3.44-7.7-3.45,7.7Z" transform="translate(0 -44.69)"/><path d="M189.2,135a38.65,38.65,0,0,1-12.79-6l5.65-12.53a38.26,38.26,0,0,0,11,5.44,41.23,41.23,0,0,0,12.74,2.05q7.08,0,10.48-2.1a6.39,6.39,0,0,0,3.39-5.6,5.4,5.4,0,0,0-2-4.27,15.06,15.06,0,0,0-5.14-2.72c-2.09-.69-4.91-1.44-8.48-2.26A114.28,114.28,0,0,1,190.58,103a21.92,21.92,0,0,1-9-6.26q-3.75-4.31-3.74-11.51a20,20,0,0,1,3.39-11.35,22.79,22.79,0,0,1,10.22-8.07q6.82-3,16.69-3a55.47,55.47,0,0,1,13.45,1.64,39.81,39.81,0,0,1,11.51,4.72L228,81.88A40.06,40.06,0,0,0,208,76.23c-4.66,0-8.09.76-10.32,2.26a6.88,6.88,0,0,0-3.34,6c0,2.46,1.28,4.3,3.85,5.49A60.09,60.09,0,0,0,210,93.49a117.67,117.67,0,0,1,13.46,3.9,22.47,22.47,0,0,1,9,6.16q3.74,4.22,3.74,11.41a19.59,19.59,0,0,1-3.44,11.25,23.14,23.14,0,0,1-10.32,8.06q-6.88,3-16.75,3A58.46,58.46,0,0,1,189.2,135Z" transform="translate(0 -44.69)"/><path d="M303.29,122.67V136H247.61V64.1H302V77.46h-37.8V93.08h33.39V106H264.16v16.64h39.13Z" transform="translate(0 -44.69)"/><path d="M382.5,64.1V136H368.83L333,92.36V136H316.53V64.1H330.3l35.75,43.67V64.1Z" transform="translate(0 -44.69)"/><path d="M414.45,77.66h-23V64.1H454.1V77.66h-23V136H414.45Z" transform="translate(0 -44.69)"/><path d="M508.87,136,495,116H479.69v20H463.05V64.1h31.13a40,40,0,0,1,16.59,3.19A23.79,23.79,0,0,1,525.41,90.2a23.43,23.43,0,0,1-14.79,22.71L526.75,136ZM504.66,80.9c-2.6-2.15-6.41-3.24-11.41-3.24H479.69v25.07h13.56q7.5,0,11.41-3.29t3.9-9.24C508.56,86.17,507.26,83.06,504.66,80.9Z" transform="translate(0 -44.69)"/><path d="M572.06,110.55V136H555.42V110.35L527.57,64.1h17.67l19.21,32L583.66,64.1H600Z" transform="translate(0 -44.69)"/><path class="cls-3" d="M155.86,155.44H6.29A6.29,6.29,0,0,1,0,149.15V51a6.29,6.29,0,0,1,6.29-6.29H155.86A6.29,6.29,0,0,1,162.15,51v98.17A6.29,6.29,0,0,1,155.86,155.44Z" transform="translate(0 -44.69)"/><g class="cls-4"><path class="cls-5" d="M157.31,155.67c-.32,0-.27,0,.15-.08.17-.07.38-.15.6-.22,0,0,0,0,0,0h0l.07,0C156.65,155.64,156.78,155.79,157.31,155.67Z" transform="translate(0 -44.69)"/></g><g class="cls-4"><path class="cls-5" d="M161.74,148.64V48.54A11.42,11.42,0,0,1,159.38,46l-.54-.61c-.26-.16-.5-.31-.74-.49l-102.73,111H149a32.34,32.34,0,0,1,6.23-.2h.06a11,11,0,0,1,3.15-.59l.1-.11a8.28,8.28,0,0,1,2.35-1.73,8,8,0,0,1,1.23-1.83v0A9.1,9.1,0,0,1,161.74,148.64Z" transform="translate(0 -44.69)"/></g><path class="cls-6" d="M154.94,152.87H7.21a4.79,4.79,0,0,1-4.79-4.78V52.26a4.79,4.79,0,0,1,4.79-4.79H154.94a4.78,4.78,0,0,1,4.78,4.79v95.83A4.77,4.77,0,0,1,154.94,152.87Z" transform="translate(0 -44.69)"/><path class="cls-7" d="M89.83,66.32,58.44,137.89a5.06,5.06,0,0,1-4.65,3H48.87a5.06,5.06,0,0,1-4.65-3L12.73,66.33a5.09,5.09,0,0,1,4.65-7.13h1.51a5.08,5.08,0,0,1,4.65,3L49.26,121A2.59,2.59,0,0,0,54,121L79.94,62.23a5.06,5.06,0,0,1,4.64-3h.6A5.07,5.07,0,0,1,89.83,66.32Z" transform="translate(0 -44.69)"/><path class="cls-7" d="M110.28,69.36H87.34a5.07,5.07,0,0,1-5.08-5.08h0a5.08,5.08,0,0,1,5.08-5.08h57.44a5.08,5.08,0,0,1,5.07,5.08h0a5.07,5.07,0,0,1-5.07,5.08h-23v66.49a5.07,5.07,0,0,1-5.08,5.07h-1.4a5.08,5.08,0,0,1-5.08-5.07V69.36Z" transform="translate(0 -44.69)"/></svg>