<?xml version="1.0" encoding="utf-8"?>
<!-- Generator: Adobe Illustrator 23.0.2, SVG Export Plug-In . SVG Version: 6.00 Build 0)  -->
<svg version="1.1" id="Layer_1" xmlns="http://www.w3.org/2000/svg" xmlns:xlink="http://www.w3.org/1999/xlink" x="0px" y="0px"
	 viewBox="0 0 461.29 200" style="enable-background:new 0 0 461.29 200;" xml:space="preserve">
<style type="text/css">
	.st0{fill:#005696;}
	.st1{fill:#3C71AB;}
	.st2{fill:#4F7BB1;}
	.st3{fill:#D7DCEB;}
	.st4{fill:#005697;}
	.st5{fill:#DEE3EF;}
	.st6{fill:#005F9E;}
	.st7{fill:#1865A2;}
	.st8{fill:#2468A4;}
	.st9{fill:#1567A4;}
	.st10{fill:#1C66A2;}
	.st11{fill:#90A7CD;}
	.st12{fill:#366EA8;}
	.st13{fill:#005F9D;}
	.st14{fill:#2367A3;}
	.st15{fill:#2569A5;}
	.st16{fill:#557DB3;}
	.st17{fill:#005898;}
	.st18{fill:#005D9C;}
	.st19{fill:#C6CFE3;}
	.st20{fill:#F0F3F5;}
	.st21{fill:#FBFBFC;}
	.st22{fill:#F4F6FB;}
	.st23{fill:#FAFAFC;}
	.st24{fill:#F2F3F7;}
	.st25{fill:#E5E7F0;}
	.st26{fill:#F4F4F8;}
	.st27{fill:#C2CDE3;}
	.st28{fill:#E2E5F0;}
	.st29{fill:#3C71AA;}
	.st30{fill:#2467A3;}
	.st31{fill:#02619F;}
	.st32{fill:#386FA9;}
	.st33{fill:#CCD5E7;}
	.st34{fill:#FFFFFF;}
	.st35{fill:#FCFCFD;}
	.st36{fill:#FEFFFF;}
	.st37{fill:#FDFDFE;}
	.st38{fill:#FEFEFF;}
	.st39{fill:#FEFEFE;}
	.st40{fill:#F8F9FB;}
	.st41{fill:#F2F3F8;}
	.st42{fill:#F4F5F9;}
	.st43{fill:#F5F6FA;}
	.st44{fill:#DCE1EF;}
	.st45{fill:#E4E8F2;}
	.st46{fill:#D1D8E9;}
	.st47{fill:#A2B4D5;}
	.st48{fill:#00609E;}
	.st49{fill:#E5E7F1;}
	.st50{fill:#DBDFED;}
	.st51{fill:#E4E7F2;}
	.st52{fill:#B0C0DD;}
	.st53{fill:#7493C1;}
	.st54{fill:#D3DAEA;}
	.st55{fill:#CCD4E8;}
	.st56{fill:#D2D9EA;}
	.st57{fill:#BDC9E1;}
	.st58{fill:#5780B4;}
	.st59{fill:#3871AA;}
	.st60{fill:#2768A4;}
	.st61{fill:#DADFED;}
	.st62{fill:#EBEDF4;}
	.st63{fill:#C8D1E5;}
	.st64{fill:#ACBCDA;}
	.st65{fill:#7B98C4;}
	.st66{fill:#839FC9;}
	.st67{fill:#94ABD0;}
	.st68{fill:#90A6CE;}
	.st69{fill:#6388BA;}
	.st70{fill:#D1D8EA;}
	.st71{fill:#9DB4D6;}
	.st72{fill:#AFC0DD;}
	.st73{fill:#B2C2DE;}
	.st74{fill:#96ABD0;}
	.st75{fill:#97ACD1;}
	.st76{fill:#D1D6E7;}
	.st77{fill:#DEE5F1;}
	.st78{fill:#A9B9D8;}
	.st79{fill:#F2F4F8;}
	.st80{fill:#F7F9FC;}
	.st81{fill:#CFD7E8;}
	.st82{fill:#00609F;}
	.st83{fill:#F8F8FA;}
	.st84{fill:#DBE0ED;}
	.st85{fill:#F5F7FA;}
	.st86{fill:#EDEEF5;}
	.st87{fill:#005A9A;}
	.st88{fill:#005999;}
	.st89{fill:#005798;}
	.st90{fill:#517CB2;}
	.st91{fill:#5D85B9;}
	.st92{fill:#5D86BA;}
	.st93{fill:#5581B6;}
	.st94{fill:#5E87BA;}
	.st95{fill:#5B84B8;}
	.st96{fill:#3F77B0;}
	.st97{fill:#2E6DA8;}
	.st98{fill:#537FB4;}
	.st99{fill:#4878B0;}
	.st100{fill:#005796;}
	.st101{fill:#3E76AF;}
	.st102{fill:#4375AD;}
	.st103{fill:#4E81B7;}
	.st104{fill:#4A7CB3;}
	.st105{fill:#4076AF;}
	.st106{fill:#507EB4;}
	.st107{fill:#005797;}
	.st108{fill:#B0BEDB;}
	.st109{fill:#AEBEDB;}
	.st110{fill:#F5F7FB;}
	.st111{fill:#A1B3D5;}
	.st112{fill:#EEF0F6;}
	.st113{fill:#E9EEF5;}
	.st114{fill:#B1C0DD;}
	.st115{fill:#E3D9E4;}
	.st116{fill:#B2BFDC;}
</style>
<g>
	<path class="st0" d="M0,93.8c0.15-0.14,0.4-0.26,0.44-0.43C2.76,82.55,9.5,74.59,17.4,67.46c13.54-12.21,29.36-20.81,45.85-28.24
		C92.49,26.04,123.12,17.33,154.48,11c17.09-3.45,34.3-6.06,51.63-7.87c15.49-1.62,31.03-2.57,46.61-2.96
		c16.93-0.42,33.83-0.06,50.7,1.15c17.68,1.27,35.31,3.18,52.87,5.63c17.99,2.52,35.87,5.6,53.43,10.34
		c11.01,2.98,21.82,6.52,31.91,11.96c5.47,2.95,10.6,6.39,14.59,11.26c6.14,7.49,6.5,15.57,2.18,23.97
		c-4.08,7.92-10.42,13.91-17.24,19.42c-10.13,8.18-21.27,14.78-32.87,20.62c-0.44,0.22-0.86,0.66-1.55,0.27
		c6.58-4.93,12.98-9.98,18.76-15.79c5.76-5.79,11-11.97,14.08-19.67c3.69-9.23,2.09-17.53-4.63-24.8
		c-6.49-7.01-14.82-11.16-23.51-14.65c-13.52-5.43-27.64-8.7-41.94-11.25c-23.21-4.15-46.64-6.2-70.16-7.32
		c-17.8-0.85-35.62-1.02-53.43-0.59c-15.42,0.37-30.84,1.08-46.14,3.15c-16.67,2.26-33.18,5.42-49.56,9.27
		c-19.72,4.64-39.12,10.27-57.61,18.7c-11.44,5.21-22.33,11.32-31.68,19.85c-7.33,6.69-13.1,14.41-15.72,24.2
		c-4.05,15.13,2.75,37.06,21.96,45.1c10.99,4.6,22.37,7.62,34.01,9.78c20.54,3.8,41.3,5.63,62.14,6.81
		c13.84,0.78,27.69,1.15,41.55,1.47c12.9,0.29,25.79,0.25,38.68,0.12c11.84-0.12,23.69-0.56,35.53-0.85c0.93,0.04,2-0.75,2.74,0.46
		c-22.88,3.74-45.89,6.2-69.05,7.33c-14.3,0.7-28.6,0.98-42.9,0.59c-39.27-1.07-78.06-5.65-116.09-15.88
		c-12.59-3.38-24.63-7.95-35.51-15.25c-6.12-4.11-11.51-8.94-15.17-15.51c-1.38-2.47-1.76-5.29-3.09-7.75c0-0.45,0-0.89,0-1.34
		c0.37-1.94,0.37-3.88,0-5.82C0,94.7,0,94.25,0,93.8z"/>
	<path class="st1" d="M0,95.15c0.74,1.94,0.73,3.88,0,5.82C0,99.02,0,97.08,0,95.15z"/>
	<g>
		<path class="st0" d="M334.85,41.93c-2.75,0.13-5.52,0.17-8.27-0.01c-1.77-0.12-2.65,0.6-3.52,2.02
			c-6.27,10.21-12.65,20.36-18.93,30.57c-0.98,1.6-1.39,1.81-2.48,0.03c-6.39-10.4-12.91-20.72-19.37-31.08
			c-0.52-0.83-0.95-1.56-2.19-1.52c-3.13,0.1-6.26,0.08-9.39,0.01c-1.23-0.03-1.49,0.47-1.49,1.58c0.05,12.89,0.07,25.78,0.09,38.68
			c0.75-0.01,1.58,0.1,2.4,0.19c0.75-0.02,1.5-0.07,2.24,0.02c0.13,0.02,0.24,0.02,0.35,0.02c0.5-0.09,0.94-0.26,1.29-0.57
			c0.37-0.32,0.57-0.75,0.68-1.23c0.01-0.17,0.02-0.34,0.02-0.53c-0.01-0.64,0-1.29-0.01-1.93c-0.09-0.85-0.22-1.73-0.22-2.51
			c0.04-9.47,0-18.93,0-28.4c0-0.38-0.32-0.92,0.33-1.05c0.11-0.02,0.31,0.44,0.47,0.68c6.63,10.43,13.43,20.76,19.77,31.37
			c2.06,3.45,4.36,4.79,8.19,4.25c1.22-0.17,1.98-0.45,2.66-1.54c5.56-8.99,11.2-17.94,16.82-26.9c1.71-2.73,3.42-5.45,5.33-8.49
			c0,10.88,0,21.3,0,31.73c0,5.43,0,5.38,5.49,5.18c1.33-0.05,1.6-0.55,1.6-1.74c-0.03-12.3-0.04-24.6,0-36.89
			C336.73,42.44,336.4,41.86,334.85,41.93z"/>
		<path class="st0" d="M247.23,68.81c-0.3,0-0.6,0.03-0.89-0.01c-1.83-0.25-2.59,0.16-2.44,2.36c0.32,4.65-1.31,6.38-6.01,7.11
			c-4.06,0.63-8.17,0.64-12.25,0.62c-4-0.02-8.05-0.05-11.95-1.22c-1.81-0.55-3.34-1.49-3.73-3.46c-1.49-7.5-1.91-15.07-0.93-22.65
			c0.41-3.17,2.09-4.64,5.32-5.12c2.57-0.39,5.18-0.64,7.77-0.75c5.57-0.23,11.16-0.53,16.7,0.57c2.38,0.47,3.56,1.98,4.05,4.2
			c0.28,1.28-0.36,3.13,0.7,3.75c1.06,0.63,2.75,0.2,4.16,0.23c0.45,0.01,0.9-0.03,1.34,0c0.75,0.06,1.03-0.21,1.04-1.01
			c0.07-4.68-1.23-9.37-7.27-10.71c-6.92-1.54-13.91-1.3-20.9-1c-4.31,0.18-8.65,0.38-12.79,1.73c-4.33,1.41-7.55,3.85-7.62,8.97
			c-0.04,2.75-0.23,5.5-0.3,7.15c0.03,5.13,0.14,9.13,0.92,13.11c1.01,5.15,3.9,8.15,9.09,9.04c10.38,1.77,20.78,1.5,31.14,0.15
			c6.02-0.78,7.65-2.81,8.46-8.81C251.4,68.86,251.36,68.81,247.23,68.81z"/>
		<path class="st0" d="M190.53,41.94c-1.26,0.11-2.54,0.13-3.8,0c-1.48-0.16-2.24,0.39-2.92,1.73c-2.69,5.31-5.53,10.55-8.31,15.82
			c-3.27,6.22-6.53,12.44-9.91,18.87c-0.36-0.61-0.63-1.04-0.87-1.48c-5.92-11.1-11.82-22.2-17.75-33.29
			c-0.4-0.74-0.62-1.68-1.84-1.63c-2.06,0.08-4.13,0.02-6.45,0.02c0.37,0.8,0.61,1.41,0.92,1.97c5.72,10.53,11.45,21.06,17.17,31.59
			c3.99,7.34,3.98,7.32,12.37,6.94c1.11-0.05,1.7-0.46,2.23-1.44c6.67-12.47,13.38-24.92,20.11-37.36
			C192.14,42.46,192.31,41.79,190.53,41.94z"/>
		<path class="st0" d="M276.28,48.91c-0.04,9.75-0.07,19.51,0,29.26c0.1,0.88,0.15,1.74-0.01,2.46c-0.08,1.33-0.6,1.89-1.97,1.8
			c-0.77,0.13-1.67,0.05-2.59-0.05c-0.8,0.03-1.61,0.03-2.4-0.19c1.41,0.98,3,0.24,4.49,0.47c2.08,0.33,2.8-0.43,2.77-2.64
			c-0.12-10.26-0.06-20.53-0.03-30.79c0-0.78-0.33-1.64,0.32-2.34C275.69,47.27,276.28,48.25,276.28,48.91z"/>
	</g>
	<path class="st2" d="M281.81,148.77c-0.82-0.7-1.86-0.12-2.74-0.46c1.99-0.66,4.03-0.24,6.09-0.02
		C284.05,148.45,282.93,148.61,281.81,148.77z"/>
	<g>
		<path class="st0" d="M288.94,97.78c-3.21-2.81-7.05-2.45-10.82-1.74c-2.89,0.54-4.65,2.36-5.22,5.38
			c-0.78,4.16-1.71,8.31-2.67,12.43c-0.48,2.06-2.38,3.45-3.84,2.9c-1.98-0.74-1.67-2.34-1.31-3.94c1.07-4.87,2.06-9.75,3.17-14.61
			c0.43-1.9-0.16-2.65-2.1-2.57c-2.16,0.08-4.32,0.02-6.48,0.02c-4.41-0.01-4.44-0.37-5.37,4.03c-0.09,0.43-0.15,0.93-0.41,1.25
			c-0.59,0.74-1.39,1.12-2.37,0.92c-0.77-0.16-1.05-0.67-1.15-1.43c-0.48-3.8-1.66-4.65-5.43-4.88c-4.78-0.29-9.51,0.87-14.31,0.1
			c-2.11-0.34-4.32,0.06-6.47-0.09c-2.19-0.15-3.28,0.64-3.63,2.87c-0.46,2.9-1.21,5.75-1.86,8.75c-3.97-3.72-8.58-3.23-13.17-2.41
			c-1.86,0.33-3.1,1.63-3.42,3.67c-0.33,2.05-0.81,4.08-1.23,6.12c-0.21,1.03-0.52,2.03-1.32,2.78c-0.91,0.85-1.96,1.53-3.21,0.84
			c-1.2-0.66-1.37-1.78-1.07-3.1c0.89-3.99,1.81-7.98,2.49-12.01c0.36-2.13,1.18-2.94,3.43-2.78c3.19,0.23,6.41,0.08,9.61,0.04
			c2.1-0.03,2.53-1.55,2.61-3.21c0.1-2-1.45-1.49-2.54-1.5c-3.06-0.05-6.12-0.14-9.17,0.03c-2.01,0.11-2.36-0.44-1.84-2.35
			c0.69-2.54,0.19-3-2.46-3.01c-2.39-0.01-4.77,0-7.16,0c-2.93,0-3.42,0.4-4.03,3.29c-1.52,7.2-3.06,14.4-4.53,21.61
			c-0.29,1.41-0.93,2.25-2.4,1.94c-1.54-0.33-1.33-1.57-1.09-2.7c0.87-4.22,1.75-8.45,2.65-12.66c0.91-4.29-0.58-5.96-4.97-6.21
			c-5.6-0.31-11.16,0.83-16.77,0.09c-2.2-0.29-4.47,0.06-6.7-0.08c-2.16-0.14-3.03,0.8-3.43,2.84c-1.03,5.31-2.24,10.59-3.43,16.15
			c-2.98-2.14-4.44-2.51-10.27-2.33c-3.24,0.1-6.58,0.21-7.58,4.33c-0.05,0.2-0.23,0.38-0.38,0.55c-0.9,1.01-2.01,1.75-3.34,1.13
			c-1.33-0.62-1.56-1.84-1.15-3.25c0.31-1.07,0.58-2.17,0.67-3.27c0.13-1.56,0.92-1.89,2.36-1.83c2.68,0.11,5.37-0.04,8.05,0.05
			c7.3,0.22,9.74-1.01,10.93-8.78c0.5-3.3-0.92-5.48-4.28-5.52c-7.3-0.09-14.61-0.09-21.92,0.01c-3.41,0.05-5.68,2.11-6.4,5.42
			c-1.1,5.08-2.17,10.18-3.28,15.26c-0.9,4.12,0.63,6.12,4.84,6.13c6.78,0.02,13.57-0.01,20.35,0.02c1.38,0.01,2.65-0.28,3.88-0.86
			c1.63-0.78,2.69-2.02,3.28-3.74c0.44-1.28,1.49-1.95,2.82-1.57c1.47,0.43,0.62,1.55,0.49,2.42c-0.06,0.44-0.1,0.9-0.23,1.32
			c-0.59,1.81,0.12,2.47,1.93,2.44c2.83-0.06,5.67-0.1,8.5,0.01c1.92,0.07,2.81-0.65,3.19-2.56c1.09-5.54,2.34-11.06,3.52-16.58
			c0.2-0.96,0.51-1.86,1.22-2.58c0.9-0.91,1.95-1.58,3.18-0.93c1.18,0.62,1.39,1.73,1.1,3.07c-1.03,4.64-1.94,9.32-2.92,13.97
			c-0.72,3.43,0.83,5.38,4.37,5.58c4.52,0.26,8.77-0.29,12.31-3.75c1.01,2.98,3.1,3.78,5.79,3.75c6.19-0.06,12.37-0.01,18.56-0.02
			c4.72-0.01,6.88-1.81,7.85-6.45c0.39-1.89,0.76-3.8,1.32-5.64c0.38-1.25,1.42-2,2.77-1.68c1.54,0.37,0.95,1.63,0.77,2.58
			c-0.57,2.92-1.15,5.84-1.88,8.72c-0.45,1.78,0.03,2.52,1.9,2.48c2.91-0.06,5.82-0.09,8.72,0.01c1.86,0.06,2.65-0.75,3-2.51
			c1.11-5.54,2.36-11.05,3.52-16.58c0.27-1.3,0.79-2.38,1.87-3.19c0.78-0.58,1.66-0.82,2.52-0.4c0.93,0.46,1.33,1.35,1.29,2.41
			c-0.11,3.39,1.27,4.85,4.66,5.04c3.9,0.21,7.05-1.5,10.16-4.07c-0.78,3.77-1.5,7.23-2.22,10.7c-0.83,4.01,0.68,5.87,4.83,5.89
			c3.8,0.02,7.6-0.01,11.41,0.02c0.48,0,1.49-0.34,1.28,0.64c-0.48,2.23-0.48,4.64-1.89,6.58c-0.74,1.01-1.84,1.62-3.13,1.21
			c-1.25-0.4-1.62-1.46-1.47-2.68c0.15-1.23-0.3-1.83-1.58-1.83c-3.28,0.02-6.56,0.01-9.84,0.01c-1.11,0-1.77,0.57-2.13,1.62
			c-1.2,3.48,0.34,5.97,4.15,6.04c7.3,0.15,14.61,0.14,21.91-0.01c3.6-0.07,5.7-2.09,6.46-5.64c1.54-7.2,3.05-14.4,4.6-21.6
			c0.62-2.9,1.93-3.63,4.57-2.58C291.32,99.72,290.01,98.72,288.94,97.78z M125.2,103.71c0.28-1.53,0.79-2.85,2.17-3.68
			c1.27-0.76,2.52-0.67,3.21,0.71c0.87,1.74,0,3.51-0.49,5.14c-0.39,1.3-1.83,0.31-2.58,0.63
			C124.63,106.51,124.68,106.52,125.2,103.71z"/>
		<path class="st0" d="M93.79,100.92c2.76-0.07,5.52-0.02,8.27-0.02c6.22,0,6.28-0.05,7.23-6.3c0.36-2.38-0.53-4.05-2.74-5.02
			c-1.25-0.55-2.56-0.72-3.92-0.72c-8.13,0.02-16.25,0.01-24.38,0.01c-6.5,0-9,1.99-10.35,8.26c-1.19,5.5,0.5,8.17,6.05,9.22
			c3.43,0.65,6.89,1.19,10.36,1.61c2.27,0.27,3.53,1.47,3.9,3.59c0.38,2.16-0.88,4.58-2.67,5.49c-2.05,1.04-3.99-0.06-4.11-2.37
			c-0.03-0.59,0.11-1.18,0.19-1.77c0.22-1.56-0.29-2.41-2.02-2.39c-4.02,0.04-8.05,0.03-12.08,0.01c-1.79-0.01-2.74,0.92-3.08,2.6
			c-0.15,0.73-0.31,1.45-0.45,2.18c-0.92,4.82,1,7.1,6.02,7.12c4.32,0.02,8.65,0,12.97,0c3.06,0,6.11,0,9.17,0c0.82,0,1.64,0,2.46,0
			c6.92,0,9.26-1.92,10.61-8.72c1.09-5.47-0.51-7.83-5.98-8.72c-3.45-0.56-6.93-0.99-10.38-1.56c-4.06-0.67-5.38-3.48-3.41-7.08
			c1-1.83,2.96-2.93,4.36-2.32c1.87,0.82,1.98,2.37,1.6,4.14C91,100.09,91.79,100.97,93.79,100.92z"/>
	</g>
	<path class="st3" d="M403.54,199.87c0.36-0.31,0.82-0.95,1.19-0.51c0.48,0.56-0.34,0.7-0.69,0.95
		C403.59,200.5,403.5,200.25,403.54,199.87z"/>
	<path class="st0" d="M447.48,188.85c-0.08-0.04-0.3,0.03-0.35,0.11c-0.31,0.45-0.1,0.78,0.29,1.05c0-0.31,0.13-0.41,0.41-0.23
		C447.78,189.44,447.87,189.04,447.48,188.85z"/>
	<g>
		<path class="st0" d="M205.29,181.57c-0.17-2.02-2.04-3.03-3.81-2.08c-0.8,0.43-1.54,1.21-1.14,1.99c0.3,0.57,1.28,0.35,1.85-0.33
			c0.26-0.31,0.73-0.33,1.07-0.02c0.32,0.29,0.32,0.7,0.27,1.1c-0.05,0.46-0.41,0.44-0.75,0.47c-0.44,0.05-0.91,0.06-1.32,0.22
			c-1.47,0.58-1.45,1.87-1.34,3.13c0.09,0.98,0.56,1.68,1.69,1.75c3.46,0.21,3.46,0.22,3.49-3.35c0-0.06,0-0.11,0-0.17
			c0,0-0.01,0-0.01,0C205.3,183.37,205.36,182.46,205.29,181.57z M202.78,186.32c-0.7-0.01-0.94-0.44-0.98-0.97
			c-0.06-0.81,0.42-1.24,1.19-1.3c0.66-0.05,0.64,0.48,0.65,0.92C203.65,185.62,203.5,186.19,202.78,186.32z"/>
		<path class="st0" d="M212.94,185.69c-0.34,0.49-0.79,0.46-1.18,0.22c-0.36-0.23-0.29-0.72-0.24-1.1c0.12-1.03,0.98-0.64,1.46-0.58
			c1.49,0.16,2.14-0.34,1.82-1.68c0-0.36,0.01-0.52,0-0.69c-0.09-1.7-0.92-2.61-2.42-2.66c-1.57-0.06-2.36,0.7-2.6,2.44
			c-0.2,1.41-0.13,2.81,0.05,4.2c0.13,1,0.71,1.67,1.68,1.88c0.96,0.2,1.93,0.17,2.64-0.67c0.39-0.46,0.96-1.06,0.43-1.59
			C214.18,185.08,213.38,185.07,212.94,185.69z"/>
		<path class="st0" d="M196.65,181.01c0.51-0.2,0.82,0.05,1.07,0.52c0.35,0.66,1.04,0.53,1.46,0.26c0.48-0.32,0.2-0.9-0.03-1.35
			c-0.55-1.04-1.46-1.3-2.56-1.21c-1.09,0.09-1.81,0.66-2.05,1.69c-0.19,0.81-0.2,1.67-0.28,2.49c0.09,0.91,0.1,1.82,0.29,2.69
			c0.2,0.97,0.87,1.56,1.88,1.67c1.06,0.13,2.02-0.05,2.65-1.04c0.25-0.39,0.51-0.86,0.22-1.24c-0.29-0.38-0.86-0.27-1.27-0.14
			c-1.86,0.63-1.85,0.65-1.86-1.33c0-0.62-0.01-1.24,0.01-1.85C196.19,181.73,196.13,181.22,196.65,181.01z"/>
		<path class="st0" d="M209.07,179.44c-1.17-0.23-0.94-1.05-0.89-1.77c0.04-0.72-0.18-0.98-0.93-0.99c-0.76-0.01-0.75,0.38-0.8,0.94
			c-0.05,0.63,0.42,1.47-0.66,1.79c-0.34,0.1-0.28,0.8-0.11,0.89c1.45,0.77,0.5,2.09,0.8,3c0,0.9-0.03,1.69,0.01,2.48
			c0.05,0.92,0.48,1.64,1.41,1.88c0.43,0.11,1.08,0.39,1.3-0.27c0.14-0.41,0.16-0.89-0.35-1.33c-1.11-0.97-0.95-4.46,0.14-5.48
			C209.36,180.22,209.4,179.51,209.07,179.44z"/>
		<g>
			<path class="st0" d="M139.17,180.68c0.07,5.78-1.84,10.18-5.6,13.83c-0.85,0.82-1.38,1.06-2.14-0.18
				c-1.35-2.21-1.43-2.16,0.2-4.03c4.37-5.03,4.46-14.21,0.18-19.3c-0.36-0.43-0.83-0.77-1.19-1.19c-0.47-0.54-1.62-0.47-1.58-1.32
				c0.05-1.11,0.38-2.22,0.7-3.29c0.25-0.84,0.86-0.27,1.24-0.1c2.59,1.12,4.43,3.07,5.74,5.52
				C138.49,173.92,139.17,177.48,139.17,180.68z"/>
			<path class="st4" d="M127.46,181.04c-0.11,2.1-0.3,4.16-1.16,6.1c-0.49,1.09-1.09,2.12-2,2.89c-0.88,0.75-2.06,1.98-3,1.34
				c-0.99-0.67-0.41-2.43-0.77-3.66c-0.03-0.11,0.25-0.33,0.39-0.48c2.61-2.75,3.08-7.94,0.98-11.08c-0.28-0.42-0.56-0.95-0.97-1.15
				c-2.12-1.02-1.49-2.46-0.88-4.1c0.41-1.12,0.8-1.23,1.74-0.66C125.87,172.72,127.39,176.5,127.46,181.04z"/>
			<path class="st4" d="M116.71,181.78c-0.24,2.51-0.55,5.03-3.29,6.3c-0.89,0.41-1.49,0.46-1.39-0.84
				c0.11-1.47-0.28-2.93,0.25-4.43c0.67-1.91-0.81-3.66-0.74-5.57c0.03-0.8-0.66-1.9,0.15-2.32c0.92-0.47,1.95,0.2,2.75,0.86
				C116.3,177.32,116.49,179.53,116.71,181.78z"/>
			<path class="st0" d="M175.44,179.32c-1.5-0.06-3.01,0.21-4.54,0.04c-0.44-0.05-0.89,0.22-1.48-0.05
				c-0.6-0.27-1.32-0.16-1.23,0.92c0.09,1.06,0.02,2.14,0.02,3.21c0,0.9-0.07,1.81,0.03,2.7c0.06,0.58-0.57,1.56,0.78,1.6
				c1.49,0.03,0.81-1.06,0.86-1.67c0.1-1.23,0.01-2.47,0.04-3.71c0.01-0.61-0.02-1.37,0.84-1.4c0.91-0.03,0.83,0.73,0.84,1.35
				c0.01,1.46,0.02,2.93,0,4.39c-0.01,0.61,0,1.06,0.85,1.06c0.86,0,0.86-0.45,0.85-1.06c-0.01-1.58-0.01-3.15,0.03-4.73
				c0.01-0.52,0.19-1.05,0.86-1.03c0.66,0.02,0.79,0.52,0.79,1.07c0,1.58,0.02,3.15-0.01,4.73c-0.01,0.66,0.09,1.04,0.9,1.02
				c0.72-0.02,0.82-0.35,0.81-0.94c-0.02-1.91-0.01-3.83-0.01-5.74C176.68,180.19,176.29,179.36,175.44,179.32z"/>
			<path class="st0" d="M165.51,179.31c-1.49,0.15-2.94,0.1-4.41,0.05c-0.48-0.02-0.9,0.26-1.5-0.04c-0.58-0.28-1.32-0.17-1.23,0.92
				c0.09,1.06,0.02,2.14,0.02,3.21c0,1.07,0.01,2.14,0,3.22c-0.01,0.58-0.07,1.09,0.82,1.09c0.83,0,0.9-0.38,0.89-1.03
				c-0.02-1.58-0.02-3.16,0.02-4.74c0.01-0.52,0.18-1.05,0.86-1.04c0.68,0,0.8,0.51,0.8,1.06c0.01,1.18-0.13,2.39,0.05,3.55
				c0.12,0.73-0.96,2.19,0.84,2.15c1.54-0.04,0.67-1.36,0.76-2.07c0.16-1.16,0.03-2.36,0.07-3.55c0.02-0.59,0.16-1.18,0.94-1.12
				c0.7,0.05,0.72,0.61,0.72,1.13c0.01,1.58,0.02,3.16,0,4.74c-0.01,0.6,0.1,0.94,0.82,0.93c0.64-0.01,0.9-0.17,0.89-0.85
				c-0.04-1.97,0-3.95-0.02-5.92C166.84,180.07,166.33,179.22,165.51,179.31z"/>
			<path class="st0" d="M147.74,177.56c0.76-0.12,1.16,0.31,1.2,1.06c0.05,0.95,0.78,0.64,1.26,0.61c0.72-0.04,0.45-0.67,0.43-1.05
				c-0.08-1.43-1.08-2.33-2.56-2.37c-1.57-0.04-2.7,0.8-2.84,2.28c-0.11,1.23-0.02,2.48-0.02,3.72c0,1.24-0.09,2.49,0.03,3.72
				c0.15,1.52,1.26,2.33,2.83,2.27c1.42-0.06,2.51-1.06,2.57-2.41c0.02-0.39,0.23-1-0.49-1.02c-0.51-0.02-1.2-0.27-1.21,0.68
				c-0.01,0.68-0.37,1.05-1.06,1.02c-0.84-0.04-0.98-0.67-0.99-1.31c-0.03-1.92-0.03-3.83,0-5.75
				C146.9,178.39,146.94,177.68,147.74,177.56z"/>
			<path class="st0" d="M156.84,183.64c0-0.79,0.08-1.58-0.02-2.36c-0.19-1.47-1.13-2.13-2.58-2.08c-1.38,0.05-2.19,0.75-2.35,2.15
				c-0.17,1.46-0.2,2.91,0,4.37c0.19,1.41,1.06,2.05,2.41,2.08c1.46,0.03,2.35-0.69,2.53-2.14c0.08-0.66,0.01-1.35,0.01-2.02
				C156.85,183.64,156.85,183.64,156.84,183.64z M155.13,183.39c0.1,0.6,0.01,1.23-0.02,1.84c-0.02,0.43-0.2,0.78-0.68,0.81
				c-0.56,0.02-0.8-0.32-0.81-0.85c-0.01-0.62,0-1.23,0-2.01c0.33-0.62-0.68-2.17,0.77-2.15
				C155.73,181.06,154.98,182.56,155.13,183.39z"/>
			<path class="st0" d="M188.12,179.25c-1.05-0.04-2.08,0.32-3.15,0.05c-0.6-0.15-0.49,0.46-0.5,0.82
				c-0.01,1.13-0.01,2.25-0.01,3.38c0,1.07,0.02,2.14-0.01,3.21c-0.01,0.63,0.02,1.05,0.87,1.05c0.88,0,0.84-0.48,0.84-1.08
				c-0.01-1.35-0.03-2.71,0.01-4.06c0.02-0.68-0.19-1.67,0.91-1.65c1.01,0.02,0.75,0.95,0.76,1.57c0.03,1.46,0.04,2.93,0,4.4
				c-0.02,0.75,0.36,0.79,0.94,0.8c0.6,0.01,0.78-0.22,0.77-0.79c-0.02-2.03,0.02-4.06-0.03-6.09
				C189.5,179.99,189.05,179.29,188.12,179.25z"/>
			<path class="st0" d="M183.11,180.3c0.01-0.61,0-1.06-0.86-1.06c-0.86,0-0.86,0.45-0.85,1.06c0.02,1.52,0.01,3.04,0,4.55
				c0,0.58-0.04,1.22-0.83,1.19c-0.73-0.03-0.85-0.62-0.85-1.22c0-1.52-0.02-3.04,0-4.55c0.01-0.64-0.05-1.06-0.88-1.03
				c-0.7,0.02-0.83,0.31-0.83,0.92c0.03,1.91-0.01,3.82,0.03,5.73c0.02,0.89,0.35,1.82,1.36,1.83c1.06,0.01,2.12-0.22,3.2-0.02
				c0.62,0.11,0.48-0.47,0.49-0.83c0.02-1.07,0.01-2.14,0.01-3.2C183.1,182.55,183.09,181.42,183.11,180.3z"/>
			<path class="st0" d="M191.82,179.24c-0.76-0.01-0.97,0.27-0.94,0.98c0.05,1.07,0.01,2.13,0.01,3.2c0,1.12,0.01,2.25,0,3.37
				c-0.01,0.55,0.01,0.95,0.77,0.96c0.76,0.01,0.95-0.27,0.94-0.98c-0.04-2.19-0.02-4.38-0.01-6.57
				C192.59,179.65,192.57,179.25,191.82,179.24z"/>
			<path class="st0" d="M191.7,175.86c-0.7-0.02-0.82,0.29-0.83,0.9c-0.02,0.69,0.27,0.9,0.9,0.8c0.7,0.12,0.82-0.27,0.83-0.87
				C192.62,175.99,192.31,175.87,191.7,175.86z"/>
		</g>
		<path class="st5" d="M213.07,181.75c0.05,0.82-0.22,1.11-0.87,1.1c-0.62-0.01-0.73-0.36-0.72-0.87c0.01-0.54,0.1-1.04,0.77-1.06
			C212.94,180.9,213.02,181.44,213.07,181.75z"/>
	</g>
	<g>
		<path class="st0" d="M263.89,165.77c-9.01,3.79-16.29,9.78-21.98,17.68c-0.89,1.23-1.45,1.52-2.88,0.76
			c-3.18-1.67-6.56-2.8-10.65-2.32c5.75,3.17,10.48,6.95,13.72,12.81c1.45-6.87,4.84-12.19,9.12-17.02
			c4.28-4.84,9.38-8.71,14.89-12.28C265.13,164.98,264.52,165.51,263.89,165.77z"/>
		<path class="st0" d="M289.3,180.14c-0.6-0.07-1.2-0.16-1.35,0.78c-0.19,1.26-0.56,2.5-0.85,3.75c-0.09,0.01-0.18,0.03-0.27,0.04
			c-0.23-0.98-0.58-1.96-0.67-2.95c-0.12-1.37-0.73-1.84-2.05-1.66c-0.41,0.06-1.11,0.32-1.15-0.53c-0.02-0.53-0.2-1.12,0.71-1.21
			c0.74-0.07,0.54-0.76,0.48-1.22c-0.08-0.56-0.6-0.39-0.96-0.4c-0.66-0.01-1.18,0.28-1.59,0.81c-0.72,0.94,0.05,2.47-1.26,3.18
			c-0.05,0.03,0.04,0.55,0.14,0.58c1.15,0.33,0.69,1.26,0.72,1.95c0.06,1.41,0.02,2.82,0.02,4.23c0,0.55-0.12,1.11,0.8,1.12
			c0.96,0.01,0.94-0.52,0.93-1.19c-0.02-1.58-0.03-3.16,0.01-4.73c0.01-0.42-0.31-1.06,0.49-1.2c0.7-0.12,1.01,0.23,1.19,0.87
			c0.48,1.79,1.07,3.56,1.46,5.37c0.22,1.02,0.29,2.15-1.06,2.62c-0.7,0.24-0.45,0.85-0.37,1.29c0.1,0.54,0.64,0.37,0.98,0.31
			c1.08-0.19,1.58-0.94,1.82-1.96c0.7-2.9,1.45-5.78,2.14-8.68C289.7,180.93,290.25,180.25,289.3,180.14z"/>
		<path class="st0" d="M265.85,176.73c-0.81-0.11-1.19,0.16-1.3,1.04c-0.25,2-0.61,3.99-0.92,5.99c0.02,0.35,0.25,0.95-0.32,0.85
			c-0.48-0.08-0.3-0.72-0.25-1.14c-0.3-1.94-0.66-3.88-0.89-5.82c-0.12-1-0.72-1-1.41-0.89c-0.91,0.13-0.4,0.82-0.33,1.19
			c0.61,3.2,1.29,6.38,1.94,9.58c0.11,0.55,0.14,1.09,0.97,1.1c0.79,0.01,0.91-0.44,1.02-1.03c0.64-3.19,1.32-6.37,1.94-9.57
			C266.37,177.58,266.86,176.87,265.85,176.73z"/>
		<path class="st0" d="M270.38,185.07c1.35,0.13,1.86-0.37,1.64-1.69c-0.06-0.38,0-0.79-0.05-1.18c-0.21-1.47-1.12-2.16-2.55-2.14
			c-1.37,0.02-2.22,0.7-2.38,2.1c-0.08,0.72-0.12,1.45-0.19,2.19c0.06,0.73,0.12,1.46,0.17,2.19c0.07,1.01,0.59,1.73,1.54,2
			c0.94,0.26,1.91,0.25,2.68-0.51c0.45-0.44,1-1.09,0.62-1.59c-0.39-0.52-1.2-0.55-1.72,0.14c-0.34,0.46-0.79,0.47-1.17,0.19
			c-0.41-0.31-0.34-0.88-0.21-1.26C269.06,184.7,269.85,185.02,270.38,185.07z M269.5,181.79c0.7,0,0.74,0.55,0.8,0.87
			c0.08,0.86-0.28,1.07-0.89,1.06c-0.65,0-0.7-0.4-0.7-0.89C268.71,182.27,268.81,181.79,269.5,181.79z"/>
		<path class="st0" d="M277.17,180.7c0.03-0.39-0.19-0.77-0.56-0.58c-0.94,0.48-1.8,0.33-2.73,0.02c-0.59-0.19-0.73,0.25-0.72,0.78
			c0.02,1.12,0.01,2.25,0.01,3.37c0,1.12,0.01,2.25-0.01,3.37c-0.01,0.57,0.06,0.93,0.8,0.95c0.78,0.02,0.95-0.3,0.92-0.99
			c-0.04-1.07-0.01-2.13-0.01-3.2c-0.01-1.32,0.11-2.52,1.84-2.66C277.4,181.7,277.14,181.1,277.17,180.7z"/>
		<path class="st0" d="M279.27,184.23c0-0.9,0.04-1.8-0.02-2.7c-0.04-0.56,0.43-1.4-0.79-1.44c-1.18-0.04-0.88,0.74-0.89,1.35
			c-0.02,1.91-0.03,3.82,0.01,5.73c0.01,0.56-0.42,1.4,0.79,1.43c1.34,0.03,0.83-0.91,0.87-1.51
			C279.31,186.14,279.27,185.19,279.27,184.23z"/>
		<path class="st0" d="M278.42,178.45c0.66,0,0.87-0.22,0.87-0.87c0-0.65-0.2-0.95-0.87-0.84c-0.67-0.11-0.86,0.19-0.87,0.84
			C277.55,178.24,277.77,178.45,278.42,178.45z"/>
		<path class="st0" d="M263.62,183.76c-0.19-0.1-0.38-0.19-0.57-0.29C263.22,183.61,263.15,184.22,263.62,183.76z"/>
	</g>
	<g>
		<path class="st0" d="M91.69,184.35c-0.4,0.52-0.88,0.58-1.25,0.12c-0.32-0.39-0.37-1.02-0.01-1.4c0.36-0.38,0.96-0.22,1.44-0.17
			c1.28,0.14,1.91-0.29,1.67-1.66c-0.08-0.44-0.01-0.9-0.08-1.34c-0.24-1.38-1.12-2.02-2.48-2.01c-1.38,0-2.23,0.68-2.42,2.06
			c-0.1,0.72-0.12,1.45-0.18,2.27c0.06,0.7,0.11,1.48,0.19,2.27c0.1,1.01,0.69,1.68,1.64,1.9c0.95,0.22,1.92,0.2,2.65-0.63
			c0.4-0.46,0.96-1.05,0.47-1.59C92.92,183.74,92.15,183.75,91.69,184.35z M91.12,179.61c0.69,0.07,0.66,0.65,0.71,0.95
			c0.03,0.77-0.27,0.96-0.82,0.98c-0.74,0.02-0.8-0.43-0.78-0.99C90.26,179.97,90.44,179.54,91.12,179.61z"/>
		<g>
			<path class="st0" d="M26.92,162.41c-9.52,0.03-17.35,7.92-17.41,17.53c-0.06,9.65,7.96,17.62,17.69,17.59
				c9.67-0.03,17.5-7.94,17.45-17.62C44.59,170.11,36.76,162.38,26.92,162.41z M40.82,179.38c-3.55,1.11-7.17,1.84-11.16,2.23
				c1.51-3.59,2.96-6.97,4.33-10.38c0.18-0.44,0.98-1.02,0.09-1.58c-0.1,0.06-0.21,0.12-0.31,0.18c-1.47,2.23-3.04,4.38-4.78,6.41
				l0,0c-1.15,1.59-2.32,3.16-3.44,4.78c-0.41,0.6-0.91,0.71-1.58,0.67c-3.62-0.21-7.12-0.92-10.49-2.26
				c-0.79-0.32-1.13-0.67-0.99-1.6c1.36-8.75,9.96-14.33,18.54-11.98c6,1.87,9.52,5.9,10.62,12.09
				C41.81,178.75,41.69,179.11,40.82,179.38z"/>
			<path class="st0" d="M57.24,174.56c-0.78-0.11-1.22,0.16-1.47,0.96c-0.51,1.65-1.12,3.27-1.82,5.28
				c-0.74-2.13-1.37-3.82-1.91-5.53c-0.23-0.74-0.74-0.71-1.32-0.72c-0.83-0.01-0.68,0.58-0.68,1.06c-0.01,3.21,0,6.42-0.01,9.63
				c0,0.64-0.07,1.2,0.91,1.2c0.95,0,0.95-0.5,0.94-1.18c-0.02-1.58-0.01-3.16-0.01-4.74c0.69,0.97,1.02,1.96,1.38,2.95
				c0.13,0.35,0.14,0.83,0.68,0.83c0.54,0,0.58-0.47,0.7-0.82c0.42-1.18,0.81-2.36,1.21-3.54c0.24,1.7,0.21,3.33,0.26,4.96
				c0.02,0.6-0.48,1.55,0.87,1.52c1.22-0.03,0.78-0.88,0.79-1.43c0.04-3.04,0.04-6.08,0-9.12C57.76,175.43,58.2,174.69,57.24,174.56
				z"/>
			<path class="st0" d="M70.17,183.21c0.01-0.05,0-0.11,0-0.17c0,0,0,0-0.01,0c0-0.9,0.05-1.8-0.01-2.7
				c-0.14-1.92-1.63-2.95-3.42-2.35c-0.99,0.33-1.91,1.15-1.54,2.07c0.32,0.8,1.32,0.33,1.93-0.27c0.26-0.26,0.64-0.25,0.94-0.05
				c0.37,0.25,0.37,0.67,0.35,1.07c-0.02,0.57-0.44,0.54-0.84,0.57c-0.39,0.03-0.8,0.03-1.16,0.16c-1.49,0.54-1.52,1.82-1.44,3.08
				c0.06,0.98,0.52,1.9,1.6,1.8c1.08-0.1,2.34,0.32,3.15-0.13C70.78,185.7,69.92,184.25,70.17,183.21z M67.58,184.98
				c-0.64,0.05-0.88-0.43-0.91-0.96c-0.05-0.81,0.42-1.24,1.2-1.29c0.67-0.04,0.6,0.5,0.65,0.94
				C68.49,184.3,68.39,184.92,67.58,184.98z"/>
			<path class="st0" d="M62.33,182.9c1.44,0.23,1.93-0.4,1.75-1.76c-0.05-0.39,0.02-0.79-0.05-1.18c-0.26-1.45-1.17-2.13-2.61-2.07
				c-1.38,0.05-2.19,0.76-2.34,2.16c-0.07,0.67-0.1,1.34-0.16,2.16c0.05,0.64,0.11,1.42,0.17,2.21c0.07,0.94,0.57,1.61,1.43,1.9
				c0.93,0.31,1.9,0.32,2.71-0.39c0.52-0.46,1.1-1.16,0.69-1.72c-0.36-0.5-1.2-0.44-1.74,0.22c-0.39,0.47-0.93,0.51-1.25-0.01
				c-0.25-0.41-0.34-1.07,0.11-1.38C61.35,182.81,61.9,182.83,62.33,182.9z M60.77,180.66c0.01-0.54,0.08-1.05,0.78-1.05
				c0.67,0,0.79,0.5,0.83,1.03c0.06,0.66-0.25,0.9-0.89,0.9C60.86,181.53,60.76,181.16,60.77,180.66z"/>
		</g>
		<path class="st0" d="M82.49,184.01c0.1-0.54,0.02-1.12,0.02-1.68c0-1.12-0.02-2.25,0.01-3.37c0.02-0.64-0.04-1.04-0.88-1.04
			c-0.88,0-0.83,0.5-0.83,1.08c0.01,1.46,0.02,2.92,0,4.39c-0.01,0.61,0.07,1.38-0.85,1.33c-0.85-0.05-0.83-0.77-0.83-1.4
			c-0.01-1.52-0.03-3.04,0.01-4.55c0.02-0.7-0.29-0.84-0.91-0.83c-0.55,0.01-0.81,0.16-0.8,0.76c0.03,2.02-0.06,4.05,0.06,6.07
			c0.08,1.44,1.13,2.02,2.53,1.58c0.21-0.07,0.46-0.38,0.56-0.33C83.42,187.47,82.29,185.06,82.49,184.01z"/>
		<path class="st0" d="M75.31,181.81c-0.48-0.28-1.02-0.45-1.53-0.69c-0.51-0.24-0.88-0.61-0.51-1.19c0.34-0.54,0.91-0.58,1.27-0.11
			c0.53,0.72,1.14,0.49,1.79,0.39c-0.4-1.93-1.56-2.74-3.16-2.24c-1.34,0.42-2.03,1.9-1.52,3.27c0.35,0.95,1.18,1.29,2.03,1.6
			c0.54,0.19,1.08,0.4,1.11,1.1c0.02,0.36-0.13,0.67-0.49,0.8c-0.56,0.21-0.91-0.03-1.27-0.49c-0.41-0.52-1.1-0.45-1.5-0.08
			c-0.36,0.33,0.04,0.85,0.27,1.21c0.6,1,1.57,1.23,2.63,1.05c1.13-0.18,1.79-0.91,1.98-2.01
			C76.59,183.34,76.31,182.39,75.31,181.81z"/>
		<path class="st0" d="M87.87,178.51c0.04-0.39-0.2-0.77-0.57-0.57c-0.94,0.5-1.8,0.32-2.73,0.02c-0.61-0.2-0.72,0.27-0.71,0.79
			c0.02,1.12,0.01,2.25,0.01,3.37c0,1.01-0.02,2.02,0.01,3.04c0.01,0.56-0.26,1.24,0.8,1.27c1.18,0.04,0.87-0.74,0.88-1.35
			c0.02-0.9,0.01-1.8,0.01-2.7c0-1.35,0-2.67,1.85-2.82C88.12,179.51,87.83,178.9,87.87,178.51z"/>
	</g>
	<g>
		<path class="st6" d="M397.84,78.6c0.22,1.19,0.22,2.38,0.05,3.57c-0.21,0.82-0.62,1.27-1.53,0.88c-1.17-0.43-2.38-0.15-3.57-0.22
			c-0.36-0.06-0.49-0.34-0.57-0.65c-0.03-1.19-0.05-2.39-0.08-3.58c0.07-0.06,0.15-0.11,0.22-0.17c0.19,0.01,0.37,0.05,0.55,0.1
			c1.16,0.1,2.31-0.03,3.46-0.16C396.89,78.33,397.39,78.32,397.84,78.6z"/>
		<path class="st7" d="M359.84,82.17c-0.45-0.01-0.91-0.02-1.36-0.03c-1.36-0.32-2.7-0.51-3.91,0.46c-0.16,0.01-0.32,0.01-0.48,0.02
			c-0.01-0.44-0.02-0.88-0.03-1.32c-0.25-0.75,0.43-0.86,0.8-1.19c0.68-0.27,1.37-0.53,2.13-0.49c0.77,0.18,1.53,0.41,2.33,0.45
			c0.19,0.06,0.36,0.16,0.5,0.31C359.83,80.97,359.84,81.57,359.84,82.17z"/>
		<path class="st8" d="M373.42,81.14c-0.61,0.72-0.75,0.04-0.98-0.34c0.01-0.42,0.1-0.81,0.46-1.09c0.43-0.28,0.92-0.43,1.41-0.58
			c0.48-0.13,0.97-0.17,1.47-0.08c0.4,0.27,0.8,0.54,1.14-0.09c1.57,0.39,1.07,1.28,0.52,2.18c-0.04,0.18-0.08,0.36-0.13,0.54
			c-0.46,0-0.91,0-1.37,0.01C375.21,81,374.25,81.36,373.42,81.14z"/>
		<path class="st9" d="M354.98,80.5c-0.3,0.26-0.61,0.53-0.91,0.79c-0.04-1.21-0.88-2.41,0.01-3.61c1.71,0.11,3.45,0.04,5.04,0.87
			c0.26,0.67-0.01,1.07-0.63,1.3c-0.21,0.04-0.42,0.05-0.63,0.04C356.8,79.67,355.77,79.53,354.98,80.5z"/>
		<path class="st10" d="M397.84,78.6c-0.38,0.23-0.76,0.37-1.13-0.01c-1.38-0.06-2.76,0.31-4.14,0l-0.02,0
			c-0.51-0.73-0.85-1.44,0.32-1.9c1.49-0.7,2.95-0.42,4.4,0.15c0.21,0.1,0.4,0.23,0.56,0.4C397.83,77.7,397.84,78.15,397.84,78.6z"
			/>
		<path class="st11" d="M358.99,78.54c-1.66-0.17-3.45,0.45-4.91-0.86c0.4-0.66,1.12-0.7,1.75-0.91c0.76-0.2,1.42,0.02,2.04,0.47
			c0.6-0.1,1.19-0.18,1.58,0.45C359.43,78.04,359.33,78.36,358.99,78.54z"/>
		<path class="st12" d="M376.91,78.97c0.03,0.68-0.23,0.9-0.85,0.53c-0.77-0.47-1.57-0.22-2.36-0.09c-0.21,0-0.41-0.05-0.6-0.14
			c-0.07-0.07-0.15-0.15-0.22-0.22c1.48-0.25,0.88-2.27,2.23-2.63c0.26,0.52-0.41,1.33,0.5,1.66
			C376.04,78.37,376.48,78.67,376.91,78.97z"/>
		<path class="st13" d="M357.87,77.24c-0.72,0.02-1.49,0.25-2.04-0.47c0.26-0.59-0.49-1.78,0.71-1.74
			C357.79,75.07,357.39,76.5,357.87,77.24z"/>
		<path class="st14" d="M394.28,75.33c0.22-0.58-0.45-1.76,0.74-1.63c1.24,0.13,0.44,1.44,0.81,2.14
			C395.12,76.26,394.44,76.59,394.28,75.33z"/>
		<path class="st15" d="M394.28,75.33c0.36,0.65,0.96,0.56,1.54,0.51c0.89,0.14,2.04-0.07,1.99,1.41c-0.14-0.01-0.29-0.02-0.43-0.03
			c-1.31-0.88-2.81-0.57-4.24-0.68c-0.24-0.14-0.28-0.33-0.13-0.55C393.44,75.76,393.86,75.55,394.28,75.33z"/>
		<path class="st8" d="M358.99,78.54c0.04-0.35,0.02-0.73,0.46-0.85c0.69,0.82,0.34,1.78,0.37,2.69c-0.2-0.03-0.4-0.05-0.61-0.08
			c-0.43-0.2-1.21,0.11-1.18-0.78C358.64,79.47,359,79.19,358.99,78.54z"/>
		<path class="st16" d="M393.02,75.98c0,0.12,0,0.23-0.02,0.34c0.29,0.24,0.24,0.53,0.11,0.83c-1.13,0.11-0.55,0.89-0.56,1.44
			l-0.2,0l-0.2,0.01C391.55,77.43,391.39,76.41,393.02,75.98z"/>
		<path class="st17" d="M375.61,78.06c-0.18,0.22-0.48,0.52-0.68,0.29c-0.56-0.66-0.16-1.32,0.18-1.94
			C376.16,76.69,375.45,77.51,375.61,78.06z"/>
		<path class="st18" d="M372.86,79.99c0.01,0.35-0.07,0.66-0.43,0.81c0,0-0.18-0.01-0.18-0.01s-0.18,0.01-0.18,0.01
			c0.01-0.71-0.69-1.73,0.8-1.76c0,0-0.03-0.02-0.03-0.02C373.19,79.34,372.85,79.66,372.86,79.99z"/>
		<path class="st19" d="M392.57,78.59c1.38,0.01,2.76-0.65,4.14,0C395.33,78.92,393.95,79.57,392.57,78.59z"/>
		<path class="st20" d="M396.56,82.62c-1.3,0.46-2.62,0.67-3.95,0.12C393.91,82.13,395.23,82.24,396.56,82.62z"/>
		<path class="st21" d="M392.73,80.63c1.93-0.51,3.33-0.59,5.09,0.56C395.96,80.99,394.59,80.84,392.73,80.63z"/>
		<path class="st22" d="M354.58,82.59c1.15-1.46,2.49-1.25,3.91-0.46C357.17,82.23,355.84,82.09,354.58,82.59z"/>
		<path class="st23" d="M354.98,80.5c0.43-1.66,1.69-0.85,2.66-0.9c0.02,0.39-0.09,0.59-0.51,0.36
			C356.41,80.15,355.69,80.32,354.98,80.5z"/>
		<path class="st24" d="M357.13,79.97c0.17-0.12,0.34-0.24,0.51-0.36c0.13-0.03,0.27-0.06,0.4-0.09c0.39,0.26,0.79,0.52,1.18,0.78
			C358.4,80.98,357.82,80.09,357.13,79.97z"/>
		<path class="st25" d="M373.42,81.14c1.94-0.47,2.03-0.45,2.52,0.56C375.09,81.54,374.15,81.82,373.42,81.14z"/>
		<path class="st26" d="M373.38,79.16c0.91-0.06,1.88-0.52,2.68,0.33c-0.59,0.01-1.19,0.02-1.78,0.03
			C373.88,79.66,373.42,79.93,373.38,79.16z"/>
		<path class="st27" d="M373.38,79.16c0.3,0.12,0.6,0.25,0.9,0.37c-0.47,0.15-0.95,0.31-1.42,0.46c-0.74-0.31,0.11-0.65-0.01-0.97
			C373.03,79.06,373.21,79.11,373.38,79.16z"/>
		<path class="st28" d="M393.11,77.15c-0.04-0.28-0.07-0.55-0.11-0.83c1.52,0.04,3.18-0.63,4.39,0.89
			C395.97,77.04,394.55,76.46,393.11,77.15z"/>
		<g>
			<path class="st0" d="M377.41,87.21c-0.15,0.62,0.07,1.01,0.71,1.12c1.75,0.3,3.47,0.81,5.27,0.59c0.37-0.04,0.93,0.04,1.07-0.17
				c1.92-2.87,4.97-1.69,7.55-2.17c2.9-1.07,5.81-0.09,8.71-0.02c0.89,0.03,1.79,0,2.68,0.11c1.3,0.17,2.86-0.12,3.25,1.85
				c0.08,0.39,0.94,0.64,1.46,0.93c4.1,2.27,8.17,4.61,12.33,6.76c1.44,0.74,1.8,1.65,1.75,3.16c-0.16,5.66-0.2,11.32-0.29,16.98
				c-0.01,0.94-0.24,1.97,1.07,2.35c0.51,0.15,0.52,0.66,0.52,1.12c0,2.38,0.01,4.77-0.01,7.15c0,0.34-0.21,0.98-0.28,0.97
				c-2.77-0.28-1.49,1.83-1.53,2.85c-0.23,5.5-0.31,11.02-0.39,16.53c-0.01,0.9-0.54,2.21,1.35,2.07c0.83-0.06,0.6,0.89,0.58,1.42
				c-0.05,2.31-0.16,4.61-0.26,6.92c-0.02,0.36-0.05,0.97-0.22,1.03c-2.36,0.78-1.54,2.74-1.61,4.3c-0.18,4.54-0.25,9.08-0.39,13.62
				c-0.05,1.6-0.15,3.19,1.92,4.04c-6.37,4.82-12.49,9.43-18.58,14.07c-0.7,0.53-1.36,0.35-2.11,0.24c-20-3.08-40-6.13-59.99-9.26
				c-1.28-0.2-2.36-0.02-3.42,0.51c-2.03,1.02-4.05,1.03-6.24,0.45c-4.17-1.1-8.38-2-12.58-2.96c-0.71-0.16-1.49-0.08-1.61-1.15
				c-0.09-0.81-0.86-0.65-1.43-0.74c-2.79-0.44-5.58-0.9-8.38-1.31c-0.79-0.11-1.51-0.16-1.5-1.22c0-0.21-0.03-0.57-0.16-0.63
				c-3-1.28-1.75-3.92-1.74-5.97c0.02-9.83,0.25-19.66,0.39-29.49c0.01-0.97-0.2-2.11,1.32-1.94c2.37,0.25,2.15-1.41,2.16-2.86
				c0.07-6.71,0.09-13.41,0.18-20.12c0.01-1.04-0.62-2.42,1.12-2.92c0.2-0.06,0.2-0.95,0.21-1.46c0.11-6.55,0.21-13.11,0.29-19.66
				c0.01-0.48-0.07-0.93-0.3-1.44c-0.6-1.32-0.67-2.51,1.37-2.73c13.1-1.44,26.19-2.94,39.28-4.42c1.24-0.14,2.55-0.1,3.55-1.07
				c1.01-1.13,2.36-0.78,3.62-0.86c0.56,0.02,1.14-0.11,1.67,0.18c-0.79,2.32,0.8,2.89,2.49,3.46c1.39,0.48,2.83,0.92,4.1,1.64
				c2.15,1.23,4.22,0.44,6.21-0.13c1.7-0.48,0.01-1.26-0.15-1.91c-0.53-1.31,0.64-1.3,1.31-1.68c1.24-0.35,2.4-0.01,3.55,0.4
				C378.11,86.19,377.8,86.7,377.41,87.21z"/>
			<path class="st29" d="M373.79,85.84c-0.33,0.54-1.38,0.28-1.35,1.22c-0.96-1.41-0.16-2.97-0.39-4.44
				c0.65-0.52,1.12,0.14,1.68,0.24c0.79,0.15,1.59,0.08,2.38,0.1c1.06,0.08,0.89-0.73,0.96-1.35c0.06-0.2,0.19-0.35,0.37-0.46
				c1.07,1.34,1.05,5.02-0.02,6.06c-0.1-0.35,0.36-0.77-0.14-1.06C375.24,85.12,375.24,85.12,373.79,85.84z"/>
			<path class="st30" d="M392.23,82.18c0.13,0.19,0.26,0.38,0.38,0.56c1.32-0.07,2.64,0.01,3.95-0.12c0.65,0.46,0.94-0.13,1.33-0.45
				c0.04,0.29,0.22,0.65,0.11,0.85c-1.77,3.27,0.5,3.39,2.73,3.55c-2.9,0.01-5.81,0.01-8.71,0.02c0.81-0.35,1.77-0.65,0.71-1.75
				C391.97,84.05,391.96,83.15,392.23,82.18z"/>
			<path class="st31" d="M359.78,83.98c-0.42,0.13-0.85,0.26-1.27,0.4c-1.29-0.74-2.69,0.03-4.01-0.29
				c-0.74-0.33-0.57-0.91-0.41-1.48c0.18-0.16,0.37-0.31,0.56-0.45c1.22-0.71,2.56-0.57,3.88-0.56c0.5,0.04,0.95,0.22,1.31,0.57
				C359.82,82.77,359.8,83.38,359.78,83.98z"/>
			<path class="st32" d="M377.31,81.69c0.32,0.95,0.82,1.99-0.98,1.77c-1-0.27-2-0.35-3,0.04c-0.47-0.23-0.62-0.94-1.29-0.89
				c0.01-0.6,0.02-1.2,0.03-1.81c0.16-0.11,0.34-0.12,0.52-0.05c0.35,0.24,0.68,0.54,1.15,0.31c0.8,0.06,1.6,0.12,2.4,0.13
				C376.59,81.22,376.97,81.4,377.31,81.69z"/>
			<path class="st33" d="M354.5,84.09c1.35-0.09,2.76-0.99,4.01,0.29c-1.34,0.03-2.7-0.09-4.02,0.29
				C354.49,84.48,354.49,84.29,354.5,84.09z"/>
			<path class="st34" d="M403.2,141.55c0,6.78,0.08,13.56-0.02,20.34c-0.14,10.05-0.41,20.11-0.6,30.16
				c-0.02,1.07-0.13,1.62-1.49,1.41c-18.74-2.96-37.49-5.88-56.25-8.74c-1.23-0.19-1.61-0.57-1.59-1.79
				c0.05-2.53,0.03-5.07-0.11-7.6c-0.09-1.55,0.32-2.21,1.96-1.89c2.39,0.48,4.85,0.42,7.09,1.71c1.82,1.05,4.03,0.97,6.08,1.29
				c1.17,0.18,1.6,0.46,1.58,1.76c-0.07,5.25-0.02,5.24,5.11,6.03c8.24,1.27,16.48,2.52,24.71,3.86c1.44,0.23,2.35-0.56,3.49-1.07
				c3.49-1.57,4.44-4.04,4.43-7.9c-0.04-12.51,0.41-25.02,0.82-37.53c0.07-2.25-0.63-2.73-2.71-2.67
				c-4.39,0.13-8.79-0.05-13.19-0.01c-1.35,0.01-1.81-0.39-1.79-1.77c0.23-15.05,0.41-30.1,0.57-45.15c0.01-1.16,0.36-1.5,1.52-1.53
				c6.62-0.2,13.25-0.48,19.87-0.76c1.14-0.05,1.94-0.07,1.88,1.57c-0.24,7.15-0.39,14.3-0.45,21.45
				c-0.07,9.61-0.02,19.21-0.02,28.82C403.8,141.55,403.5,141.55,403.2,141.55z"/>
			<path class="st34" d="M390.95,187.28c-9.83-1.51-19.23-2.98-28.64-4.36c-1.23-0.18-1.6-0.55-1.59-1.78
				c0.16-13.4,0.22-26.79,0.79-40.18c0.05-1.06,0.3-1.52,1.55-1.49c9.08,0.19,18.16,0.31,27.24,0.38c1.26,0.01,1.45,0.51,1.42,1.58
				c-0.28,11.16-0.55,22.32-0.77,33.48C390.88,178.99,390.95,183.06,390.95,187.28z"/>
			<path class="st35" d="M313.89,110.79c0-5.36,0.05-10.72-0.02-16.08c-0.02-1.39,0.75-1.6,1.77-1.71
				c5.98-0.63,11.97-1.27,17.95-1.88c6.65-0.68,13.31-1.3,19.95-2.07c1.44-0.17,1.91-0.04,1.91,1.56
				c-0.06,13.86-0.05,27.72-0.01,41.57c0,1.27-0.18,1.86-1.67,1.82c-12.87-0.32-25.75-0.58-38.62-0.82
				c-1.04-0.02-1.43-0.29-1.41-1.38c0.08-6.7,0.11-13.41,0.16-20.11c0.31-0.18,0.83,0.25,0.89-0.01
				C314.92,111.1,314.34,110.95,313.89,110.79z"/>
			<path class="st34" d="M329.64,145.61c9.14,0.47,18.28,0.96,27.42,1.38c1.19,0.05,1.62,0.27,1.59,1.61
				c-0.12,5.36-0.13,10.72-0.07,16.08c0.02,1.37-0.31,1.81-1.72,1.67c-4.22-0.4-8.45-0.72-12.69-0.95c-1.4-0.08-1.27-0.89-1.28-1.8
				c-0.05-4.54-0.16-9.08-0.13-13.62c0.01-1.51-0.38-2.06-1.99-2.04c-4.32,0.07-8.64-0.03-12.95-0.12c-1.1-0.02-1.99,0.25-2.88,0.91
				c-2.69,2-5.4,3.96-8.18,5.83c-0.94,0.63-0.87,1.08-0.58,2.1c0.5,1.76,1.87,3.17,1.85,5.12c-0.01,1.04-0.26,1.5-1.38,1.4
				c-2.89-0.25-5.79-0.45-8.68-0.65c-1-0.07-1.39-0.47-1.37-1.53c0.09-5.06,0.13-10.13,0.13-15.19c0-1.28,0.54-1.38,1.66-1.31
				c6.68,0.42,13.37,0.74,20.05,1.1C328.83,145.42,329.24,145.33,329.64,145.61z"/>
			<path class="st34" d="M358.19,122.08c0-8.11,0.03-16.23-0.02-24.34c-0.01-2.11,0.55-3.2,2.99-3.19c2.59,0.01,5.18-0.47,7.75-0.87
				c1.31-0.2,1.68,0.14,1.65,1.45c-0.25,10.72-0.47,21.43-0.64,32.15c-0.02,1.42-0.43,1.9-1.91,1.89c-2.97,0-5.95,0.21-8.92,0.41
				c-1.17,0.08-1.58-0.29-1.52-1.48c0.09-2.01,0.02-4.02,0.02-6.03C357.8,122.08,358,122.08,358.19,122.08z"/>
			<path class="st34" d="M404.99,140.78c0.06-3.64,0.18-7.28,0.15-10.91c-0.01-1.42,0.47-1.84,1.83-1.63
				c4.03,0.63,8.07,1.23,12.12,1.76c1.05,0.14,1.11,0.68,1.09,1.52c-0.13,5.35-0.31,10.69-0.29,16.04c0.01,1.76-0.49,2.61-2.24,2.66
				c-0.7,0.85-1.71,0.96-2.7,1.14c-0.47,0.06-0.97-0.26-1.41,0.14c-1.25,0.04-2.48,0.16-3.53,0.94c-1.15,1.05-2.66,0.74-4,1.04
				c-0.85,0.19-1.18-0.31-1.15-1.16C404.95,148.48,404.7,144.63,404.99,140.78z"/>
			<path class="st34" d="M333.85,161.31c0,8.13-0.02,15.72,0.02,23.31c0,1.09-0.2,1.45-1.39,1.15c-3.97-0.99-7.96-1.9-11.96-2.74
				c-1.09-0.23-1.41-0.7-1.41-1.78c0.01-6.41-0.04-12.81-0.11-19.22c-0.01-1.12,0.36-1.38,1.45-1.24c3.47,0.46,6.95,0.78,10.42,1.23
				C331.7,162.14,332.45,162.17,333.85,161.31z"/>
			<path class="st34" d="M406.36,90.25c4.48,2.48,8.95,4.98,13.46,7.42c0.81,0.44,0.94,1.01,0.92,1.81
				c-0.14,5.59-0.31,11.17-0.36,16.76c-0.01,1.35-0.47,1.48-1.58,1.1c-2.39-0.82-4.82-1.53-7.21-2.35c-1.42-0.49-2.85-0.87-4.36-0.7
				c-1.17,0.13-1.73-0.14-1.72-1.52c0.06-7.44,0.03-14.88,0.03-22.32C405.81,90.38,406.08,90.32,406.36,90.25z"/>
			<path class="st34" d="M404.5,190.01c0-6.2,0-12.19,0-18.18c0-0.37,0.04-0.74,0.07-1.11c0.11-1.32-0.57-3.04,0.34-3.83
				c0.72-0.62,2.4-0.05,3.63-0.2c2.34-0.28,4.19-1.82,6.34-2.62c1.51-0.56,2.99-2.25,4.38-1.55c0.64,0.32,0.2,2.89,0.19,4.44
				c-0.03,3.57-0.09,7.14-0.14,10.71c-0.01,0.74,0.11,1.49-0.62,2.02C413.96,183.12,409.24,186.56,404.5,190.01z"/>
			<path class="st36" d="M341.61,149.96c0.5,6.71,0.31,13.03,0.45,19.34c0.09,4.24,0.16,8.48,0.33,12.71
				c0.05,1.31-0.32,2.07-1.63,2.45c-1.42,0.41-2.82,0.95-4.18,1.55c-1.35,0.6-1.8,0.34-1.82-1.2c-0.09-7.52-0.27-15.03-0.43-22.55
				c-0.02-0.92,0.03-1.75-0.62-2.67c-0.81-1.15-0.81-2.46,0.73-3.59C336.87,154.22,339.07,152.13,341.61,149.96z"/>
			<path class="st37" d="M392.27,186.33c0-8.98-0.04-17.9,0.02-26.82c0.04-5.88,0.38-11.76,0.29-17.64
				c-0.05-2.85,1.77-1.8,3.09-1.99c1.76-0.26,1.8,0.71,1.77,2.13c-0.33,12.73-0.67,25.46-0.78,38.19c-0.02,2.54-0.6,4.26-2.94,5.28
				C393.12,185.73,392.59,186.14,392.27,186.33z"/>
			<path class="st38" d="M371.93,97.31c0-1.08,0-2.17,0-3.58c2.35,1.34,4.39,2.54,6.46,3.66c0.83,0.45,0.81,1.13,0.81,1.89
				c0.03,9.67,0.04,19.33,0.14,29c0.02,1.58-0.53,1.98-1.94,1.64c-0.43-0.1-0.88-0.16-1.32-0.21c-5.21-0.61-5.16-0.61-4.96-5.97
				c0.21-5.79,0.32-11.59,0.47-17.38c1.36,0.26,0.66,1.7,1.35,2.35c1.67,1.28,2.75,1.04,3.14-0.92c0.51-2.56,0.38-5.18,0.11-7.76
				c-0.19-1.79-1.19-2.13-2.81-1.23c-0.39,0.21-0.72,0.53-1.22,0.47C371.49,98.68,371.75,97.99,371.93,97.31z"/>
			<path class="st39" d="M312.45,93.11c0.8,0.92,0.51,1.77,0.51,2.53c-0.02,12.07-0.05,24.14-0.16,36.21
				c-0.01,1.64,0.26,2.57,2.13,2.22c0.36-0.07,0.75-0.02,1.11,0.03c1.9,0.27,4.55-0.85,5.53,0.52c0.98,1.37,0.33,3.87,0.47,5.87
				c0.08,1.17-0.34,1.61-1.52,1.55c-3.05-0.16-6.1-0.32-9.15-0.35c-1.28-0.01-1.21-0.7-1.19-1.57c0.12-7.07-0.88-14.39,0.61-21.16
				c1.85-8.44,0.51-16.76,1.27-25.09C312.08,93.68,312.24,93.51,312.45,93.11z"/>
			<path class="st38" d="M370.68,138.59c-2.46,0-4.92-0.03-7.37,0.01c-1.12,0.02-1.79-0.15-1.67-1.57c0.1-1.09,0.1-1.97,1.54-1.67
				c1.61,0.33,1.59-0.65,1.6-1.81c0.01-3.44,0.05-3.59,3.4-3.48c3.56,0.12,7.11,0.59,10.67,0.86c0.89,0.07,1.14,0.5,1.1,1.3
				c-0.08,1.78-0.18,3.57-0.19,5.35c-0.01,1.12-0.7,1.12-1.48,1.11c-2.53-0.01-5.06,0-7.59,0
				C370.68,138.66,370.68,138.63,370.68,138.59z"/>
			<path class="st37" d="M318.2,175.61c-0.15,1.39,0.74,3.78-0.36,4.59c-0.99,0.73-3.22-0.24-4.9-0.45
				c-0.59-0.08-1.19-0.12-1.77-0.23c-3.46-0.64-4.93-2.42-4.87-5.97c0.03-1.71-0.5-3.93,0.36-4.98c0.78-0.95,3.04,0.21,4.66,0.32
				c0.37,0.03,0.74,0.04,1.11,0.08C318.21,169.49,318.21,169.49,318.2,175.61z"/>
			<path class="st39" d="M409.18,115.32c4.03,1.27,8.06,2.54,12.1,3.79c0.76,0.23,1.36,0.44,1.32,1.44
				c-0.06,1.78-0.05,3.57-0.01,5.35c0.03,0.98-0.47,1.1-1.25,0.96c-4.08-0.73-8.16-1.46-12.24-2.19
				C408.15,121.54,408,118.42,409.18,115.32z"/>
			<path class="st39" d="M340.81,149.31c-2.57,2.22-5.14,4.45-7.73,6.65c-0.27,0.23-0.66,0.49-0.97,0.46
				c-4.62-0.34-9.24-0.72-13.97-1.6c2.7-1.93,5.39-3.88,8.12-5.76c0.38-0.26,0.98-0.28,1.48-0.29c4.3-0.02,8.59-0.01,12.89-0.01
				C340.69,148.95,340.75,149.13,340.81,149.31z"/>
			<path class="st37" d="M409.56,154.23c3.74-0.65,7.25-2.12,10.86-3.21c1.51-0.46,1.65-0.21,1.86,1.36
				c0.64,4.62-1.24,7.05-5.67,8.15c-2.27,0.56-4.38,1.79-6.56,2.72c-1.43,0.31-1.41-0.71-1.35-1.58c0.14-2.25,0.33-4.5,0.15-6.76
				C408.94,154.52,409.23,154.35,409.56,154.23z"/>
			<path class="st35" d="M359.9,161.8c0,3.49-0.11,6.98,0.04,10.47c0.08,1.88-0.74,1.71-2.1,1.56c-2.92-0.33-5.38-2.09-8.29-2.4
				c-1.7-0.18-3.38-0.5-5.07-0.66c-2.63-0.25-1.26-2.23-1.45-3.43c-0.26-1.59,1.08-1.04,1.83-0.99c4.29,0.31,8.59,0.62,12.87,1.06
				c1.36,0.14,1.88-0.12,1.75-1.57c-0.12-1.32,0.01-2.67,0.03-4.01C359.62,161.6,359.75,161.59,359.9,161.8z"/>
			<path class="st23" d="M356.39,125.08c0-11.88,0-23.76,0-35.87c2.39,0.83,4.61,1.6,6.84,2.35c0.62,0.21,0.76,0.64,0.73,1.21
				c-0.04,0.65-0.57,0.56-0.98,0.62c-0.73,0.12-1.47,0.24-2.21,0.33c-3.41,0.43-3.43,0.43-3.5,3.94c-0.2,9.14-0.38,18.28-0.57,27.43
				C356.59,125.32,356.49,125.31,356.39,125.08z"/>
			<path class="st23" d="M331.05,160.46c-3.8-0.33-7.42-0.62-11.03-0.96c-0.57-0.05-1.17-0.26-1.66-0.55
				c-0.76-0.46-0.98-1.39-0.89-2.13c0.12-1.02,1.08-0.46,1.63-0.42c3.91,0.27,7.82,0.67,11.74,0.91c1.82,0.11,1.7,1.5,1.74,2.53
				C332.63,161.1,331.41,160.09,331.05,160.46z"/>
			<path class="st38" d="M408.73,163.64c-0.12,0.09-0.22,0.23-0.35,0.25c-3.65,0.65-3.74,0.57-3.74-3.02c0-2.08,0-4.16,0-6.24
				c1.39-0.32,2.77-0.38,4.15,0.05C409.42,157.67,408.93,160.65,408.73,163.64z"/>
			<path class="st39" d="M408.66,124.67c-3.93,0.46-3.16,0.33-3.16-2.92c0-1.19-0.03-2.38,0-3.57c0.1-3.22-0.71-3.04,3.13-2.9
				C409.05,118.41,409.01,121.54,408.66,124.67z"/>
			<path class="st40" d="M356.72,130.51c1.84-0.05,3.69-0.04,5.53-0.17c1.18-0.09,1.92,0.08,1.62,1.49
				c-0.23,1.1,0.65,2.95-1.76,2.58c-0.87-0.13-1.76-0.23-2.64-0.28c-3.36-0.2-3.36-0.19-3.03-3.6
				C356.54,130.52,356.63,130.51,356.72,130.51z"/>
			<path class="st41" d="M306.68,143.11c3.86-0.96,7.54-0.38,11.2-0.28c2.52,0.07,5.04,0.14,7.56,0.22
				c0.61,0.02,1.22,0.07,1.26,0.91c0.03,0.8-0.53,0.77-1.06,0.74c-6.06-0.39-12.12-0.8-18.18-1.21
				C307.27,143.48,307.09,143.31,306.68,143.11z"/>
			<path class="st42" d="M306.44,164.54c0.43-1.42,1.13-1.05,1.65-1.02c2.82,0.17,5.64,0.44,8.46,0.53
				c1.43,0.05,1.75,0.69,1.67,1.96c-0.1,1.72-1.2,0.84-1.93,0.77c-1.63-0.15-3.26-0.35-4.87-0.61c-0.97-0.16-2.03-0.1-2.51-1.41
				C308.56,163.77,307.53,164,306.44,164.54z"/>
			<path class="st43" d="M368.41,91.6c2.49-1.02,5.19-1.05,7.76-1.69c0.97-0.24,0.91,0.51,0.9,1.07c-0.02,1.33-0.11,2.66-0.17,4.14
				c-2.56-0.5-4.28-3.1-7.09-2.63C369.06,92.63,368.05,93.18,368.41,91.6z"/>
			<path class="st44" d="M404.14,88.32c-6.03,0-12.05,0-18.38,0c6.26-1.43,12.3-1.37,18.37-0.63
				C404.13,87.9,404.13,88.11,404.14,88.32z"/>
			<path class="st45" d="M379.55,96.97c-0.62-0.53-1.79-0.5-1.7-1.75c0.12-1.69,0.17-3.39,0.36-5.08c0.04-0.38,0.62-0.17,0.97-0.09
				c0.6,0.14,1.19,0.28,1.21,1.05c0.02,1.04,0.01,2.07,0.01,3.11C379.79,95.03,381.01,96.41,379.55,96.97z"/>
			<path class="st46" d="M329.64,145.61c-0.4,0-0.8,0-1.21,0c0.02-3.28,0.02-6.56,0.06-9.83c0.01-0.46-0.26-1.2,0.5-1.27
				c0.94-0.09,0.76,0.73,0.75,1.27C329.73,139.06,329.68,142.34,329.64,145.61z"/>
			<path class="st47" d="M359.9,161.8c-0.13,0-0.26,0.01-0.39,0.03c0.01-4.74,0.02-9.47,0.05-14.21c0-0.16,0.07-0.48,0.6-0.35
				c0.36,0.35,0.22,0.95,0.19,1.48C360.12,153.09,360.67,157.47,359.9,161.8z"/>
			<path class="st48" d="M408.67,154.63c-1.35-0.21-2.69-0.22-4.04,0c1.2-1.06,2.75-0.03,4.01-0.66c-4.04-0.57-4.12-0.57-4.01-4.82
				c0.07-2.79-0.42-5.61,0.36-8.37c-0.02,3.57,0.01,7.14-0.07,10.71c-0.04,1.46,0.19,2.05,1.85,1.48c1-0.35,2.09-0.85,3.25-0.54
				c0,0-0.02-0.05-0.02-0.05c0.16,0.74-0.21,0.73-0.72,0.5c0.06,0.44,0.68,0.05,0.74,0.5c-0.15,0.28-0.3,0.57-0.45,0.85
				c-0.14,0.14-0.29,0.28-0.43,0.43C408.97,154.85,408.81,154.86,408.67,154.63z"/>
			<path class="st49" d="M413.13,185.94c-2.9,2.23-5.79,4.47-8.91,6.87c0.3-1.79,2.94-4.01,8.36-7.36
				C413.06,185.29,413.18,185.52,413.13,185.94z"/>
			<path class="st50" d="M316.06,168.44c-2.66,0.09-5.23-0.65-7.86-0.9c-0.97-0.09-1.27-0.95-1-1.86c0.13-0.43,0.59-0.92,0.91-0.31
				c1.29,2.46,3.79,1.48,5.7,2.09c1.02,0.33,2.21,0.03,3.24,0.54C316.84,168.41,316.35,168.18,316.06,168.44z"/>
			<path class="st51" d="M357.53,175.28c-2.21-0.1-4.37-0.43-6.3-1.61c-0.92-0.56-1.94-0.62-2.95-0.75
				c0.02-0.87,0.56-0.55,1.01-0.45c3.23,0.19,5.99,2.22,9.23,2.38C358.5,175.7,357.97,175.38,357.53,175.28z"/>
			<path class="st52" d="M372.41,109.01c-0.92-0.68-0.09-1.91-0.82-2.65c-0.06-3.02-0.18-6.05,0.34-9.05
				c0.26,0.59-0.14,1.34,0.46,1.83C372.85,102.44,373.8,105.72,372.41,109.01z"/>
			<path class="st53" d="M408.67,154.63c0.15,0.01,0.31,0.02,0.46,0.03c0.6,2.26,0.16,4.55,0.16,6.82c0,0.71-0.36,1.54,0.75,1.76
				c-0.33,0.51-0.84,0.41-1.32,0.4C408.71,160.64,408.69,157.63,408.67,154.63z"/>
			<path class="st54" d="M413.13,185.94c-0.18-0.16-0.36-0.33-0.54-0.49c1.62-1.2,3.25-2.4,4.87-3.59c0.49-0.26,0.55,0.06,0.58,0.43
				C416.4,183.51,414.76,184.73,413.13,185.94z"/>
			<path class="st55" d="M349.29,172.47c-0.34,0.15-0.67,0.3-1.01,0.45c-1.75-0.25-3.56-0.15-5.19-1.04
				C345.22,171.61,347.27,171.9,349.29,172.47z"/>
			<path class="st56" d="M368.41,91.6c0.04,0.96,0.82,0.76,1.4,0.89c-1.24,0.66-2.64,0.31-3.93,0.63c-0.43,0.11-0.95,0.1-0.97-0.55
				c-0.01-0.62,0.54-0.58,0.95-0.71C366.69,91.59,367.62,92.34,368.41,91.6z"/>
			<path class="st57" d="M319.79,90.75c-1.85,0.25-3.7,0.5-5.55,0.75c-0.41-0.38-1.08,0.07-1.44-0.46c1.94-0.58,3.96-0.52,5.95-0.77
				C319.04,90.55,319.58,90.3,319.79,90.75z"/>
			<path class="st58" d="M380.08,108.07c0-3.13,0.01-6.26,0.01-9.39c0.11-0.18,0.22-0.17,0.32,0c0,3.13,0.01,6.26,0.01,9.39
				C380.31,108.3,380.19,108.32,380.08,108.07z"/>
			<path class="st59" d="M408.66,124.67c-0.01-3.13-0.02-6.26-0.02-9.38c0.18,0.01,0.36,0.02,0.55,0.04
				c-0.03,3.12-0.05,6.23-0.08,9.35l-0.22,0.01L408.66,124.67z"/>
			<path class="st60" d="M380.08,108.07c0.12,0.02,0.23,0.02,0.35,0c0,2.82,0,5.64,0,8.45c-0.12,0-0.23,0-0.35,0.01
				C380.08,113.71,380.08,110.89,380.08,108.07z"/>
			<path class="st61" d="M374.72,88.71c-0.58,0.15-0.94,0.04-0.95-0.56c-0.02-0.81,0.61-0.94,1.18-0.98
				c0.64-0.04,1.57,0.09,1.51,0.8C376.36,88.86,375.21,88.33,374.72,88.71z"/>
			<path class="st62" d="M373.79,85.84c-0.24-0.09-0.8-0.19-0.62-0.36c0.99-0.95,3.05-0.56,4.11,0.67
				C376.09,86.32,375.01,85.31,373.79,85.84z"/>
			<path class="st34" d="M313.89,110.79c0.37-0.19,0.74-0.37,1.11-0.56c0.4,0.82,0.45,1.64-0.01,2.46c-0.37-0.33-0.73-0.66-1.1-0.98
				C313.89,111.4,313.89,111.09,313.89,110.79z"/>
			<path class="st63" d="M319.79,90.75c-0.35-0.16-0.69-0.32-1.04-0.47c1.35-0.14,2.69-0.28,4.04-0.43
				c0.19,0.13,0.46,0.15,0.52,0.44C322.19,90.83,320.98,90.69,319.79,90.75z"/>
			<path class="st64" d="M356.72,130.51l-0.13,0.05l-0.14-0.03c-0.02-1.82-0.04-3.63-0.07-5.45c0.1,0.01,0.21,0.01,0.31,0
				C356.71,126.89,356.71,128.7,356.72,130.51z"/>
			<path class="st65" d="M414.88,151c0.93-0.26,1.85-0.52,2.78-0.78c0.28,1.64-1.25,0.94-1.86,1.42
				C415.33,151.66,415,151.47,414.88,151z"/>
			<path class="st66" d="M380.41,98.68l-0.16,0.01c0,0-0.16-0.01-0.16-0.01c-0.04-0.62-0.11-1.22-0.54-1.72
				c1.13-0.66,0.13-1.97,0.85-2.75C380.65,95.7,380.51,97.19,380.41,98.68z"/>
			<path class="st67" d="M327.3,89.85c-0.58,0.45-1.23,0.42-1.9,0.31c-0.24-0.28-0.74-0.04-0.91-0.46c0.73-0.48,1.53-0.43,2.34-0.34
				C326.99,89.52,327.28,89.56,327.3,89.85z"/>
			<path class="st68" d="M342.54,87.6c-0.86,1.03-1.72,0.81-2.91,0.86C340.63,87.54,341.44,87.51,342.54,87.6z"/>
			<path class="st69" d="M351.81,86.73c0.78-0.64,1.33-0.74,1.91-0.11C353.2,87.37,352.62,87.16,351.81,86.73z"/>
			<path class="st70" d="M312.81,91.05c0.49,0.13,1.07-0.06,1.44,0.46c-1.02,0.12-2.04,0.23-3.61,0.41
				C311.56,90.87,312.22,91.09,312.81,91.05z"/>
			<path class="st71" d="M347.6,87.13c0.73-0.15,1.46-0.31,2.61-0.55C349.28,87.65,348.46,87.5,347.6,87.13z"/>
			<path class="st72" d="M343.62,87.91c1.07-0.69,1.8-0.88,2.81-0.66C345.63,87.88,344.88,87.98,343.62,87.91z"/>
			<path class="st73" d="M330.89,89.38c-0.58,0.43-1.23,0.41-1.89,0.32c-0.15-0.14-0.44-0.13-0.46-0.42
				c0.58-0.39,1.22-0.39,1.87-0.34C330.58,89.08,330.85,89.1,330.89,89.38z"/>
			<path class="st74" d="M334.52,88.92c-0.44,0.44-0.97,0.43-1.52,0.32c-0.2-0.08-0.35-0.22-0.44-0.42c0.58-0.45,1.23-0.43,1.89-0.3
				c0.09,0.08,0.13,0.16,0.12,0.25C334.56,88.87,334.54,88.92,334.52,88.92z"/>
			<path class="st75" d="M336.63,88.39c0.4-0.43,0.85-0.53,1.31-0.12c0.09,0.08,0.14,0.36,0.1,0.39c-0.45,0.3-0.94,0.26-1.44,0.15
				c-0.13-0.1-0.17-0.2-0.11-0.29C336.53,88.43,336.58,88.39,336.63,88.39z"/>
			<path class="st6" d="M414.88,151c0.31,0.21,0.61,0.42,0.92,0.64c-0.8,0.77-1.49-0.18-2.25-0.14
				C413.83,150.9,414.41,151.11,414.88,151z"/>
			<path class="st76" d="M357.53,175.28c0.33-0.14,0.67-0.29,1-0.43c0.44,0,0.89-0.01,1.15,0.56
				C358.92,175.9,358.22,175.66,357.53,175.28z"/>
			<path class="st77" d="M410.01,153.38c-0.4-0.12-0.88,0.17-1.22-0.23c0.23-0.52,1.07-0.1,1.21-0.77c0.26,0.14,0.78-0.1,0.77,0.42
				C410.77,153.24,410.3,153.24,410.01,153.38z"/>
			<path class="st78" d="M357.38,86.49c-1.17,0.16-1.88,0.26-2.69-0.05C355.51,86.01,356.24,86.05,357.38,86.49z"/>
			<path class="st79" d="M324.49,89.7c0.3,0.15,0.61,0.3,0.91,0.46c-0.7,0.04-1.4,0.09-2.09,0.13c-0.17-0.15-0.35-0.29-0.52-0.44
				C323.36,89.8,323.92,89.75,324.49,89.7z"/>
			<path class="st34" d="M336.63,88.39c-0.02,0.14-0.04,0.28-0.03,0.42c-0.69,0.04-1.39,0.07-2.08,0.11c0-0.13-0.02-0.27-0.07-0.4
				C335.17,88.47,335.9,88.43,336.63,88.39z"/>
			<path class="st80" d="M332.56,88.82c0.15,0.14,0.29,0.28,0.44,0.42c-0.7,0.05-1.41,0.09-2.11,0.14
				c-0.16-0.14-0.32-0.29-0.48-0.43C331.12,88.9,331.84,88.86,332.56,88.82z"/>
			<path class="st81" d="M418.51,181.07c0.17,0.15,0.33,0.29,0.5,0.44c-0.33,0.26-0.65,0.52-0.98,0.78
				c-0.19-0.14-0.38-0.29-0.58-0.43C417.81,181.6,418.16,181.34,418.51,181.07z"/>
			<path class="st82" d="M351.69,87.75c0.68-0.29,1.11-0.25,1.64-0.01C352.75,88.07,352.29,88.06,351.69,87.75z"/>
			<path class="st83" d="M328.53,89.28c0.15,0.14,0.31,0.28,0.46,0.42c-0.56,0.05-1.13,0.1-1.69,0.14
				c-0.16-0.16-0.32-0.32-0.48-0.48C327.39,89.34,327.96,89.31,328.53,89.28z"/>
			<path class="st84" d="M316.06,168.44c0.33-0.15,0.67-0.29,1-0.44c0.27,0.05,0.72,0.04,0.77,0.17c0.15,0.38-0.22,0.43-0.5,0.41
				C316.91,168.56,316.49,168.49,316.06,168.44z"/>
			<path class="st85" d="M373.33,83.5c0.99-0.68,1.99-0.69,3-0.04C375.33,83.47,374.33,83.49,373.33,83.5z"/>
			<path class="st86" d="M395.36,86.23c-0.76-0.04-1.56,0.18-1.53-0.87c0.02-0.77,0.59-0.95,1.21-0.9c0.73,0.05,1.55,0.15,1.52,1.14
				C396.54,86.56,395.67,86.01,395.36,86.23z"/>
			<path class="st87" d="M392.73,124.44c0.08-1.25,0.77-2.25,2.27-2.27c1.46-0.02,2.34,0.83,2.4,2.32c0.06,1.6-0.84,2.59-2.37,2.59
				C393.61,127.1,392.8,126.11,392.73,124.44z"/>
			<path class="st17" d="M389.51,124.01c-0.08,1.48-0.71,2.47-2.27,2.5c-1.54,0.03-2.32-0.88-2.34-2.37
				c-0.03-1.49,0.77-2.48,2.24-2.51C388.6,121.6,389.4,122.55,389.51,124.01z"/>
			<path class="st88" d="M385.05,96.58c-1.33,0.05-2.18-0.63-2.24-1.9c-0.07-1.37,0.76-2.2,2.17-2.22c1.25-0.01,2.15,0.56,2.21,1.92
				C387.26,95.84,386.46,96.53,385.05,96.58z"/>
			<path class="st4" d="M374.48,143.63c2.46,0,4.91,0.04,7.37-0.02c1.05-0.02,1.44,0.33,1.42,1.41c-0.08,3.65-0.1,7.3-0.09,10.95
				c0,0.98-0.3,1.25-1.3,1.22c-4.91-0.15-9.83-0.24-14.74-0.3c-1-0.01-1.48-0.24-1.45-1.37c0.08-3.65,0.09-7.3,0.06-10.95
				c-0.01-1.04,0.47-1.24,1.36-1.23c2.46,0.03,4.91,0.01,7.37,0.01C374.48,143.45,374.48,143.54,374.48,143.63z"/>
			<path class="st89" d="M387.56,162.1c0-0.96-0.01-1.92,0.01-2.89c0.01-0.47,0.19-0.95,0.69-0.99c0.51-0.04,0.78,0.42,0.78,0.89
				c0.02,2.15,0.01,4.29,0.01,6.44c0,0.5-0.27,0.99-0.7,1c-0.59,0.01-0.79-0.56-0.79-1.11C387.55,164.32,387.55,163.21,387.56,162.1
				z"/>
			<path class="st34" d="M351.83,121.59c-0.79,1.95,0.78,4.1-0.75,5.83c0.63,0.5,1.09,0.22,1.5,0.28c1.02,0.15-0.09,0.53,0.04,0.79
				c0.18,0.35,0.21,0.92-0.27,0.54c-1.96-1.56-4.19-0.64-6.12-1c-2.04-0.38-4.03-0.15-6.02-0.42c-2.73-0.38-5.53,0.4-8.31-0.18
				c-0.56-0.12-0.25,0.5-0.19,0.81c-2.38-0.99-4.76-1.4-7.11,0.1c-0.29,0.19-0.62,0.08-0.78-0.18c-0.99-1.65-2.38-0.11-3.55-0.42
				c-0.4-0.1-0.8,1.42-1.46,0.56c-0.27-0.35-0.29-1.44-0.17-2.06c0.24-1.24-0.78-2.62,0.45-3.75c0.13-0.12-0.13-0.98-0.6-0.94
				c-0.37,0.04-0.57,1.4-1.09,0.32c-0.12-0.24-0.29-1.96,1.03-2.28c0.43-0.11,0.81-0.23,0.77-0.86c-0.09-1.54,0.02-3.25-0.32-4.57
				c-0.54-2.06-0.17-3.81-0.05-5.77c0.16-2.76,0.82-5.64-0.28-8.4c-0.1-0.26-0.17-0.79-0.11-0.81c1.67-0.63,1.19-2.95,2.86-3.69
				c-0.62,2.33,0,3.34,2.2,3.15c1.42-0.12,2.77-0.01,4.16,0.03c0.33,0.01,1.93,0.72,1.01-0.96c-0.16-0.3,0.56-0.44,1.08-0.01
				c1.39,1.14,2.19,0.91,2.6-0.7c0.07-0.3,0.21-0.6-0.1-0.8c-0.26-0.17-0.61-0.14-0.79,0.13c-0.26,0.39-0.29,1.15-1.01,0.43
				c-0.64-0.64,0.36-0.83,0.34-1.29c0.04-0.22,0.17-0.34,0.39-0.36c2.77,0.46,5.48-0.19,8.22-0.45c0.18-0.39,0.38-0.72,0.88-0.4
				c1.72,1.08,4.17,0.81,5.86-0.36c0.46-0.32,1.59-0.19,2.1,0.17c0.8,0.57,1.2,1.52,2.25,0.21c0.36-0.45,1.11,0.45,1.03,0.91
				c-0.56,3.08,0.72,6.15-0.07,9.22c-0.37,1.46,0.46,2.87,0.35,4.44c-0.14,1.96-0.56,4.02-0.27,5.92c0.3,1.95,0.54,3.92,0.77,5.88
				C352.53,121.16,352.14,121.35,351.83,121.59z"/>
			<path class="st34" d="M325.81,95.56c0.8,0.33,1.1,0.93,0.89,1.75c-0.08,0.32-0.39,0.44-0.69,0.28c-0.66-0.35-0.99-0.85-0.58-1.6
				C325.33,95.65,325.49,95.53,325.81,95.56z"/>
			<path class="st34" d="M331.7,128.31c0.81,0.25,1.42,0.43,2.03,0.62C332.83,129.32,331.71,130.27,331.7,128.31z"/>
			<path class="st90" d="M327.17,129.73c0.14,0.15,0.4,0.31,0.46,0.53c0.07,0.28-0.12,0.55-0.44,0.6c-0.34,0.05-0.53-0.19-0.58-0.48
				C326.57,130.08,326.74,129.85,327.17,129.73z"/>
			<path class="st91" d="M335.2,129.69c0.32,0.06,0.56,0.26,0.51,0.58c-0.03,0.17-0.25,0.38-0.43,0.44
				c-0.34,0.11-0.59-0.12-0.61-0.43C334.65,129.98,334.88,129.76,335.2,129.69z"/>
			<path class="st92" d="M325.81,95.56c-0.13,0.15-0.25,0.29-0.38,0.44c-0.38-0.02-0.78-0.06-0.86-0.51
				c-0.06-0.33,0.21-0.59,0.49-0.6C325.49,94.85,325.69,95.19,325.81,95.56z"/>
			<path class="st93" d="M343.08,93.54c-0.01,0.32-0.11,0.61-0.46,0.64c-0.33,0.03-0.58-0.2-0.57-0.52
				c0.01-0.17,0.22-0.38,0.39-0.48C342.8,92.99,342.96,93.25,343.08,93.54z"/>
			<path class="st94" d="M352.03,93.08c-0.33-0.14-0.58-0.31-0.4-0.66c0.09-0.17,0.31-0.37,0.48-0.38c0.32-0.01,0.55,0.22,0.51,0.56
				C352.58,92.94,352.3,93.04,352.03,93.08z"/>
			<path class="st95" d="M348.13,129.41c0.29,0.12,0.53,0.31,0.45,0.65c-0.07,0.33-0.33,0.51-0.65,0.35
				c-0.17-0.08-0.38-0.32-0.38-0.49C347.55,129.61,347.8,129.43,348.13,129.41z"/>
			<path class="st90" d="M340.26,94.25c-0.29,0.13-0.58,0.27-0.88,0.4c-0.15-0.38-0.52-0.84,0.06-1.08
				C339.96,93.36,340.18,93.8,340.26,94.25z"/>
			<path class="st96" d="M317.05,96.28c0.22-0.33,0.36-0.65,0.7-0.54c0.26,0.08,0.56,0.28,0.38,0.64c-0.09,0.18-0.37,0.43-0.48,0.39
				C317.42,96.68,317.24,96.44,317.05,96.28z"/>
			<path class="st97" d="M316.87,131.15c-0.12-0.08-0.32-0.15-0.4-0.29c-0.19-0.32,0.06-0.54,0.31-0.62
				c0.13-0.04,0.4,0.11,0.49,0.25C317.49,130.83,317.18,130.96,316.87,131.15z"/>
			<path class="st98" d="M340.81,129.58c0.41,0.14,0.6,0.37,0.54,0.67c-0.06,0.28-0.28,0.52-0.61,0.36
				c-0.16-0.08-0.39-0.34-0.36-0.45C340.45,129.93,340.68,129.75,340.81,129.58z"/>
			<path class="st99" d="M338.37,130.72c-0.34,0.04-0.61-0.18-0.6-0.44c0.01-0.2,0.3-0.43,0.51-0.56c0.06-0.04,0.37,0.21,0.46,0.38
				C338.93,130.45,338.63,130.58,338.37,130.72z"/>
			<path class="st100" d="M329.8,130.83c-0.22-0.21-0.43-0.31-0.5-0.48c-0.13-0.33,0.18-0.5,0.4-0.57c0.1-0.04,0.43,0.22,0.43,0.33
				C330.11,130.34,329.93,130.55,329.8,130.83z"/>
			<path class="st101" d="M315.47,99.87c-0.34,0.01-0.62-0.21-0.59-0.49c0.02-0.23,0.32-0.43,0.5-0.64
				c0.16,0.15,0.38,0.26,0.47,0.44C316.03,99.55,315.7,99.7,315.47,99.87z"/>
			<path class="st102" d="M316.05,102.49c-0.09,0.35-0.25,0.6-0.56,0.55c-0.14-0.02-0.35-0.26-0.35-0.41
				c-0.02-0.27,0.08-0.59,0.47-0.47C315.78,102.23,315.92,102.39,316.05,102.49z"/>
			<path class="st103" d="M331.17,95.11c-0.13,0.12-0.26,0.24-0.39,0.36c-0.34-0.09-0.73-0.21-0.75-0.6
				c-0.01-0.17,0.36-0.51,0.54-0.5C330.94,94.39,331.11,94.74,331.17,95.11z"/>
			<path class="st104" d="M315.93,125.48c-0.18,0.16-0.38,0.33-0.57,0.5c-0.17-0.21-0.39-0.39-0.49-0.63
				c-0.03-0.07,0.23-0.37,0.4-0.41C315.59,124.86,315.76,125.11,315.93,125.48z"/>
			<path class="st105" d="M316.06,122.7c-0.19,0.16-0.38,0.39-0.62,0.47c-0.11,0.04-0.39-0.21-0.48-0.38
				c-0.18-0.36,0.14-0.56,0.39-0.63C315.66,122.08,315.88,122.31,316.06,122.7z"/>
			<path class="st106" d="M351.83,121.59c0.16-0.31,0.31-0.63,0.47-0.94c0.42,0.19,0.84,0.41,0.5,0.96
				C352.5,122.08,352.15,121.68,351.83,121.59z"/>
			<path class="st107" d="M372.41,109.01c0.14-3.29-0.68-6.57-0.02-9.86c0.61-1.09,1.35-2.13,2.77-1.67
				c1.31,0.42,1.65,1.63,1.67,2.88c0.04,2.38,0.11,4.76,0,7.14c-0.06,1.19-0.5,2.39-1.85,2.79
				C373.78,110.63,373,109.98,372.41,109.01z"/>
			<path class="st17" d="M380.09,145.68c0.28,0.29,0.55,0.59,0.83,0.88c0.49,2.14,0.09,4.31,0.22,6.47c0.06,0.7-0.08,1.32-0.69,1.76
				c-2.79,0.56-5.6,0.27-8.4,0.25c-0.74-0.25-1.5-0.17-2.26-0.18c-0.92,0.03-1.83,0.04-2.04-1.17c-0.02-1.13-0.01-2.27-0.01-3.4
				c0.02-1.38-0.14-2.77,0.48-4.08c0.35-0.39,0.7-0.78,1.31-0.58C373.04,145.7,376.56,145.76,380.09,145.68z"/>
			<path class="st108" d="M380.09,145.68c-0.94,0.92-2.11,0.47-3.14,0.42c-2.57-0.13-5.17,0.28-7.72-0.37
				c0.52-0.52,1.27-0.02,1.83-0.4C374.07,145.34,377.09,145.23,380.09,145.68z"/>
			<path class="st109" d="M371.96,154.71c2.84-0.02,5.68-0.05,8.52-0.07c0.13,0.1,0.18,0.2,0.13,0.3c-0.04,0.1-0.09,0.15-0.13,0.15
				c-3,0.82-6.01,0.36-9.01,0.02C371.53,154.85,371.79,154.83,371.96,154.71z"/>
			<path class="st110" d="M380.96,153.3c-0.01-2.25-0.03-4.49-0.04-6.74c0.94,2.2,0.29,4.48,0.38,6.73
				C381.19,153.5,381.07,153.5,380.96,153.3z"/>
			<path class="st111" d="M368.39,146.12c-0.15,1.35-0.31,2.7-0.46,4.06c-0.11,0.19-0.23,0.19-0.36,0.02
				c0.15-1.54-0.85-3.28,0.81-4.55c0.14,0.1,0.2,0.21,0.15,0.32C368.48,146.07,368.44,146.12,368.39,146.12z"/>
			<path class="st112" d="M367.57,150.2c0.12-0.01,0.24-0.01,0.36-0.02c-0.01,1.19-0.02,2.38-0.03,3.57c-0.1,0-0.21,0-0.31,0
				C367.58,152.56,367.58,151.38,367.57,150.2z"/>
			<path class="st113" d="M367.59,153.74c0.1,0,0.21,0,0.31,0c0.25,0.98,1.1,0.86,1.81,0.98c0.16,0.07,0.22,0.14,0.17,0.21
				c-0.05,0.08-0.1,0.12-0.16,0.12C368.61,155.28,367.75,155.08,367.59,153.74z"/>
			<path class="st114" d="M368.39,146.12c-0.01-0.16-0.01-0.32-0.02-0.48c0.82-0.72,1.78-0.32,2.68-0.32
				c-0.51,0.57-1.21,0.29-1.83,0.4C368.95,145.86,368.67,145.99,368.39,146.12z"/>
			<path class="st115" d="M380.96,153.3c0.11-0.01,0.22-0.01,0.34-0.01c0.1,0.77,0,1.45-0.81,1.81c0-0.15,0-0.3,0-0.46
				C380.64,154.19,380.8,153.75,380.96,153.3z"/>
			<path class="st116" d="M369.73,155.05c-0.02-0.11-0.02-0.22-0.01-0.33c0.75,0,1.5-0.01,2.25-0.01c-0.16,0.13-0.33,0.27-0.49,0.4
				C370.89,155.1,370.31,155.07,369.73,155.05z"/>
			<path class="st43" d="M372,151.49c1.25-1.49,0.85-3.93,2.7-4.37c1.48-0.35,3.28-0.47,5.6,0.64c-5.52,0.02-1.95,4.3-3.94,6.04
				c-0.79-1.5-0.27-3.03-0.37-4.49c-0.03-0.46,0.28-1.14-0.48-1.27c-0.67-0.12-0.84,0.5-1.04,0.96c-0.53,1.23-1.04,2.46-1.54,3.7
				c-0.17,0.42-0.28,0.91-0.79,0.98c-0.59,0.09-0.7-0.48-0.86-0.86c-0.63-1.59-1.2-3.19-1.8-4.79c-0.13-0.35-0.3-0.78,0.14-0.96
				c0.5-0.2,0.82,0.12,0.99,0.61C371.03,148.87,371.47,150.04,372,151.49z"/>
		</g>
	</g>
</g>
</svg>
