<svg id="Layer_1" data-name="Layer 1" xmlns="http://www.w3.org/2000/svg" xmlns:xlink="http://www.w3.org/1999/xlink" viewBox="0 0 439.35 433.27"><defs><style>.cls-1,.cls-5{fill:none;}.cls-2{fill:#16498f;}.cls-3{clip-path:url(#clip-path);}.cls-4{fill:#2a5c9b;opacity:0.42;}.cls-10,.cls-4,.cls-7{isolation:isolate;}.cls-5{stroke:#fff;stroke-miterlimit:10;stroke-width:2px;}.cls-6{fill:#fff;}.cls-7{font-size:20.46px;fill:#939598;font-family:Montserrat-Regular, Montserrat;letter-spacing:0.19em;}.cls-8{letter-spacing:0.18em;}.cls-9{letter-spacing:0.19em;}.cls-10{font-size:103.32px;font-family:Montserrat-Bold, Montserrat;font-weight:700;}.cls-11{letter-spacing:-0.01em;}</style><clipPath id="clip-path" transform="translate(-38.18 -27.37)"><rect class="cls-1" x="38.18" y="27.37" width="439.34" height="300.06" rx="17.04"/></clipPath></defs><title>logo_vt_full</title><path class="cls-2" d="M460.48,327.42H55.22a17,17,0,0,1-17-17v-266a17,17,0,0,1,17-17H460.48a17,17,0,0,1,17,17v266A17,17,0,0,1,460.48,327.42Z" transform="translate(-38.18 -27.37)"/><g class="cls-3"><path class="cls-4" d="M464.4,328.05c-.86.12-.73.05.4-.22.48-.19,1.05-.39,1.62-.57a.64.64,0,0,1,0-.07h.15l.19-.1C462.61,328,463,328.39,464.4,328.05Z" transform="translate(-38.18 -27.37)"/></g><g class="cls-3"><path class="cls-4" d="M476.41,309V37.81a30.71,30.71,0,0,1-6.39-7c-.48-.52-1-1.07-1.48-1.65-.69-.41-1.36-.84-2-1.3L188.21,328.48H442a84.85,84.85,0,0,1,16.89-.56H459a30.4,30.4,0,0,1,8.55-1.61c.09-.1.17-.2.26-.29a22.23,22.23,0,0,1,6.37-4.68,21.87,21.87,0,0,1,3.32-5v-.07A25.15,25.15,0,0,1,476.41,309Z" transform="translate(-38.18 -27.37)"/></g><path class="cls-5" d="M458,320.48H57.71a13,13,0,0,1-13-13V47.87a13,13,0,0,1,13-13H458a13,13,0,0,1,13,13V307.51A13,13,0,0,1,458,320.48Z" transform="translate(-38.18 -27.37)"/><path class="cls-6" d="M281.57,86l-85,193.9a13.77,13.77,0,0,1-12.6,8.24H170.58A13.73,13.73,0,0,1,158,279.89L72.68,86a13.76,13.76,0,0,1,12.59-19.3h4.08A13.75,13.75,0,0,1,102,74.92L171.65,234a7,7,0,0,0,12.83,0L254.76,74.9a13.75,13.75,0,0,1,12.59-8.2H269A13.74,13.74,0,0,1,281.57,86Z" transform="translate(-38.18 -27.37)"/><path class="cls-6" d="M337,94.2H274.82a13.76,13.76,0,0,1-13.76-13.76h0a13.76,13.76,0,0,1,13.76-13.76H430.44A13.76,13.76,0,0,1,444.2,80.44h0A13.76,13.76,0,0,1,430.44,94.2H368.28V274.34a13.76,13.76,0,0,1-13.76,13.77h-3.8A13.76,13.76,0,0,1,337,274.34V94.2Z" transform="translate(-38.18 -27.37)"/><text class="cls-7" transform="translate(244.57 427.92)">CHIH<tspan class="cls-8" x="69.77" y="0">U</tspan><tspan x="89.58" y="0">AH</tspan><tspan class="cls-8" x="128.69" y="0">U</tspan><tspan class="cls-9" x="148.49" y="0">A</tspan></text><text class="cls-10" transform="translate(3.07 401.59)">SENT<tspan class="cls-11" x="282.57" y="0">R</tspan><tspan x="357.47" y="0">Y</tspan></text></svg>