<?xml version="1.0" encoding="utf-8"?>
<!-- Generator: Adobe Illustrator 22.1.0, SVG Export Plug-In . SVG Version: 6.00 Build 0)  -->
<svg version="1.1" id="Layer_1" xmlns="http://www.w3.org/2000/svg" xmlns:xlink="http://www.w3.org/1999/xlink" x="0px" y="0px"
	 viewBox="0 0 72 72" style="enable-background:new 0 0 72 72;" xml:space="preserve">
<style type="text/css">
	.st0{fill:#F2D50A;}
	.st1{fill:#E5BC00;}
	.st2{fill:#888785;}
	.st3{fill:#4F4F49;}
	.st4{fill:#E0B900;}
</style>
<g>
	<path class="st0" d="M37.8,0.1c5.1-0.2,10.3,3,12.6,7.8c1.6,3.3,1.6,6.8,0.8,10.3c-1,4-2.9,7.6-5.1,11.1c-2.1,3.4-4.5,6.5-7.1,9.4
		c-0.3,0.3-0.6,0.7-1.1,0.7c-0.2-0.2-0.2-0.4-0.2-0.6c0-3.6,0-7.3,0-10.9c0-0.1,0-0.2,0-0.3c0.1-0.4,0.5-0.3,0.8-0.2
		c1.2,0.2,2.4,0.2,3.6-0.1c0.2,0,0.4,0,0.5-0.2c0-0.2-0.2-0.3-0.3-0.4c-1.3-1.3-2.6-2.6-4-4c-0.2-0.2-0.4-0.4-0.5-0.7
		c-0.1-0.3,0-0.7,0-1c0.1-0.4,0.4-0.6,0.6-0.8c0.4-0.4,0.9-0.9,1.3-1.3c0.7-0.7,1.4-1.4,2.1-2.1c0.5-0.5,0.7-0.5,1.2,0
		c1.5,1.5,3,3,4.6,4.6c0.1,0.1,0.2,0.4,0.4,0.3c0.2-0.1,0.2-0.3,0.2-0.5c1.2-4.8-2-9.8-7.4-10.3c-0.8-0.1-1.5,0-2.3,0.1
		c-0.3,0-0.5,0.1-0.7-0.2c-0.1-0.2-0.1-0.5-0.1-0.7c0-3,0-6,0-9C37.7,0.7,37.6,0.3,37.8,0.1"/>
	<path class="st1" d="M37.8,27.4c0,4,0,8,0,12c-0.5,0.1-0.8-0.3-1.1-0.6c-1.7-1.8-3.2-3.8-4.6-5.8c-2.7-3.8-5.1-7.7-6.7-12.1
		c-0.9-2.4-1.5-4.9-1.4-7.4c0-1.5,0.3-3,0.8-4.4c0.3,0,0.4,0.2,0.6,0.3c2.1,2.1,4.2,4.2,6.3,6.3c0.3,0.3,0.4,0.7,0.3,1.1
		c-0.9,3.7,0.3,7,3.2,9.1c0.7,0.5,1.4,0.8,2.1,1.1C37.5,27.2,37.8,27.2,37.8,27.4"/>
	<path class="st2" d="M37.8,10.9c1.5-0.3,2.9-0.3,4.4,0.1c4.6,1.2,7.3,6.1,5.9,10.6c-0.1,0.4-0.2,0.5-0.6,0.1
		c-1.6-1.6-3.1-3.2-4.7-4.7c-0.7-0.7-0.5-0.7-1.3,0c-0.7,0.6-1.3,1.3-2,1.9c-0.3-0.2-0.5-0.4-0.7-0.7c-5-5-10-10-15-15
		c-0.2-0.2-0.4-0.3-0.5-0.6c0.6-0.9,1.4-1.7,2.3-2.4c0.2-0.2,0.4-0.2,0.6,0c0.9,0.9,1.9,1.9,2.9,2.8c0.3,0,0.4,0.3,0.6,0.4
		c2.3,2.3,4.5,4.5,6.8,6.8C36.9,10.7,37.3,11,37.8,10.9"/>
	<path class="st3" d="M23.4,2.7c0.2,0.1,0.3,0.3,0.5,0.4C29,8.2,34.1,13.3,39.2,18.4c0.2,0.2,0.4,0.3,0.4,0.6
		c-0.6,0.6-1.2,1.3-1.8,1.9c-0.3,0.4-0.4,0.8,0,1.1c1.7,1.7,3.4,3.3,5.2,5.1c-1.9,0.7-3.5,0.7-5.2,0.3c-2-0.6-3.7-1.7-4.9-3.5
		c-1.5-2.2-1.8-4.6-1.1-7.1c0.1-0.4,0.1-0.6-0.2-0.9c-2.3-2.2-4.5-4.5-6.8-6.7c-1-1-1.9-2-2.9-2.9c-0.2-0.2-0.3-0.4-0.2-0.8
		C22.2,4.5,22.7,3.5,23.4,2.7"/>
	<path class="st1" d="M37.8,10.9c-0.5,0.3-0.8,0.2-1.2-0.2c-2.3-2.4-4.7-4.7-7.1-7.1c-0.1-0.1-0.3-0.3-0.4-0.4
		c2.2-1.8,4.7-2.8,7.5-3c0.4,0,0.8-0.2,1.2,0C37.8,3.7,37.8,7.3,37.8,10.9"/>
	<path class="st4" d="M37.8,22c-0.7-0.6-0.7-0.6,0-1.1C37.8,21.2,37.8,21.6,37.8,22"/>
	<path class="st3" d="M40.5,51.1c0-1.5,0-3,0-4.5c0-0.4,0.1-0.5,0.5-0.5c0.7,0,1.3,0,2,0c0.4,0,0.6,0.1,0.6,0.5
		c0,0.4,0.2,0.4,0.5,0.2c1.2-0.7,2.5-1.1,3.9-0.8c0.6,0.1,1.1,0.3,1.5,0.8c0.2,0.3,0.4,0.2,0.6,0.1c1.3-0.7,2.8-1.1,4.3-0.8
		c1.3,0.3,2,1.2,2.1,2.5c0,2.4,0,4.8,0,7.2c0,0.3-0.1,0.4-0.4,0.4c-0.8,0-1.6,0-2.4,0c-0.4,0-0.5-0.1-0.5-0.5c0-2,0-3.9,0-5.9
		c0-1-0.2-1.2-1.2-1.1c-1.8,0.2-1.8,0.2-1.8,2c0,1.7,0,3.3,0,5c0,0.4-0.1,0.5-0.5,0.5c-0.7,0-1.5,0-2.2,0c-0.5,0-0.6-0.2-0.6-0.6
		c0-2,0-4,0-6c0-0.8-0.3-1-1.1-0.9c-0.5,0-1,0.2-1.4,0.2c-0.4,0.1-0.4,0.2-0.4,0.6c0,2,0,4.1,0,6.1c0,0.4-0.1,0.6-0.6,0.6
		c-0.8,0-1.6,0-2.4,0c-0.4,0-0.5-0.1-0.5-0.5C40.5,54.2,40.5,52.7,40.5,51.1"/>
	<path class="st3" d="M65.4,45.9c-1.2,0-2.4,0.1-3.6,0.3c-0.3,0.1-0.4,0-0.4-0.3c0-0.8,0-1.6,0-2.5c0-0.4-0.1-0.6-0.5-0.6
		c-0.8,0-1.5,0-2.3,0c-0.4,0-0.5,0.1-0.5,0.5c0,2,0,4.1,0,6.1c0,2.1,0,4.1,0,6.2c0,0.3,0,0.5,0.4,0.5c2.3,0,4.6,0,6.9,0
		c1.8,0,2.8-1.1,2.8-2.9c0-1.5,0-3,0-4.6C68.2,47,67.1,46,65.4,45.9z M64.5,53.6c-0.9,0-1.8,0-2.6,0c-0.3,0-0.4-0.1-0.4-0.4
		c0-0.7,0-1.3,0-2c0-0.7,0-1.4,0-2.1c0-0.3,0.1-0.4,0.3-0.4c0.8-0.1,1.6-0.1,2.4-0.1c0.4,0,0.6,0.2,0.7,0.7c0,1.3,0,2.7,0,4
		C64.8,53.5,64.8,53.6,64.5,53.6z"/>
	<path class="st3" d="M17.2,49.6c0-2,0-4.1,0-6.1c0-0.4,0.1-0.6,0.5-0.5c0.8,0,1.6,0,2.4,0c0.4,0,0.5,0.1,0.5,0.5c0,0.8,0,1.6,0,2.4
		c0,0.4,0,0.6,0.6,0.5c1.2-0.3,2.5-0.3,3.7-0.3c1.5,0.1,2.6,1.1,2.6,2.6c0,2.4,0,4.9,0,7.3c0,0.3-0.1,0.4-0.4,0.4
		c-0.8,0-1.7,0-2.5,0c-0.4,0-0.5-0.1-0.5-0.5c0-2.1,0-4.2,0-6.3c0-0.8-0.2-0.9-0.9-0.9c-0.7,0-1.5,0-2.2,0.1c-0.4,0-0.5,0.2-0.5,0.6
		c0,2.2,0,4.3,0,6.5c0,0.5-0.1,0.6-0.6,0.6c-0.7,0-1.5,0-2.2,0c-0.4,0-0.6-0.1-0.6-0.5C17.2,53.6,17.2,51.6,17.2,49.6"/>
	<path class="st3" d="M38.8,48.9c0-1.9-1.1-2.9-2.9-2.9c-1.6,0-3.3,0.1-4.9,0.2c-1.3,0.1-1.3,0.1-1.3,1.4c0,0.2,0,0.5,0,0.7
		c0,0.3,0.1,0.4,0.4,0.4c1.1-0.1,2.2-0.2,3.2-0.2c0.5,0,1,0,1.5,0c0.5,0,0.7,0.3,0.7,1c0,0.6-0.4,0.4-0.7,0.4c-1.1,0-2.2,0-3.4,0
		c-1.6,0-2.7,1.1-2.7,2.7c0,0.4,0,0.7,0,1.1c0,1.6,1.1,2.7,2.7,2.8c1.5,0.1,2.9-0.3,4.2-1.1c0.2,0.9,0.2,0.9,1.1,0.9
		c0.5,0,0.9,0,1.4,0c0.5,0,0.6-0.1,0.6-0.6C38.8,53.4,38.8,51.1,38.8,48.9z M35.5,53c0,0.3-0.1,0.4-0.3,0.4
		c-0.8,0.2-1.5,0.3-2.3,0.3c-0.5,0-0.8-0.2-0.8-0.8c0-0.5,0.2-0.7,0.8-0.7c0.4,0,0.7,0,1.1,0h0.8C35.5,52.2,35.5,52.2,35.5,53z"/>
	<path class="st3" d="M12,42.9c1.2,0,2.4,0,3.5,0c0.3,0,0.4,0.1,0.4,0.4c0,0.6,0,1.2,0,1.9c0,0.4-0.1,0.4-0.4,0.4
		c-2.1,0-4.2,0-6.2,0c-0.4,0-0.6,0.1-0.6,0.6c0,2.2,0,4.3,0,6.5c0,0.9,0.3,1.2,1.2,1.2c1.8,0,3.6-0.1,5.4-0.3c0.5,0,0.6,0.1,0.5,0.5
		c0,0.6,0,1.1,0,1.7c0,0.3-0.1,0.4-0.3,0.4c-2.4,0.2-4.7,0.4-7.1,0.3c-2.1,0-3.2-1.2-3.3-3.3c0-2.3,0-4.5,0-6.8
		c0-2.3,1.2-3.4,3.5-3.4C9.8,42.9,10.9,42.9,12,42.9"/>
	<path class="st0" d="M27.9,59.2c-0.1-0.2-0.3-0.3-0.5-0.3c-0.7,0-1.4,0-2.1,0c-0.4,0-0.6,0.1-0.7,0.5c-1.1,3-2.2,5.9-3.4,8.9
		c-0.4,1.1-0.4,1.1,0.8,1.1c0.6,0,1.3,0.2,1.7-0.1c0.4-0.3,0.4-1,0.6-1.5c0.1-0.3,0.2-0.3,0.5-0.3c0.5,0,1.1,0,1.6,0
		c0.6,0,1.3-0.2,1.7,0.1c0.4,0.2,0.4,0.9,0.6,1.5c0.1,0.2,0.2,0.4,0.5,0.4c0.8,0,1.7,0,2.5,0c0-0.1,0-0.1,0-0.1
		C30.4,65.9,29.2,62.6,27.9,59.2z M27.1,65.6c-0.6,0-1.1,0-1.7,0c-0.3,0-0.4-0.1-0.3-0.4c0.4-1,0.7-2,1.1-3.2
		c0.4,1.2,0.7,2.2,1.1,3.2C27.4,65.5,27.4,65.6,27.1,65.6z"/>
	<path class="st0" d="M40.4,63.2c-0.1-1.2-0.9-1.8-2.1-1.9c-1.1-0.1-2.2,0.1-3.2,0.7c-0.1,0.1-0.3,0.2-0.3-0.1
		c0-0.6-0.4-0.5-0.8-0.5c-0.4,0-0.7,0-1.1,0c-0.4,0-0.6,0.1-0.6,0.5c0,1.6,0,3.1,0,4.7c0,1.6,0,3.2,0,4.8c0,0.4,0.1,0.5,0.5,0.5
		c0.5,0,1.1,0,1.6,0c0.4,0,0.6-0.1,0.5-0.5c0-0.5,0-1.1,0-1.6c0-0.3,0.1-0.4,0.4-0.4c0.9,0,1.8,0,2.6,0c1.3,0,2.3-0.7,2.4-1.9
		C40.6,66.1,40.5,64.7,40.4,63.2z M37.5,67.4c-0.7,0-1.5,0-2.2,0c-0.3,0-0.3-0.1-0.3-0.3c0-1,0-2,0-3c0-0.2,0.1-0.3,0.3-0.3
		c0.7-0.2,1.4-0.2,2.1-0.2c0.3,0,0.5,0.2,0.5,0.6c0,0.5,0,1,0,1.5c0,0.5,0,1,0,1.5C37.8,67.3,37.8,67.4,37.5,67.4z"/>
	<path class="st0" d="M49.9,63.1c-0.1-1.1-0.9-1.8-2.1-1.8c-1.1-0.1-2.2,0.1-3.2,0.7c-0.1,0.1-0.4,0.3-0.4,0c0-0.6-0.4-0.5-0.8-0.5
		c-0.4,0-0.8,0-1.2,0c-0.4,0-0.5,0.1-0.5,0.5c0,1.6,0,3.2,0,4.8c0,1.6,0,3.2,0,4.8c0,0.4,0.1,0.5,0.5,0.5c0.6,0,1.2,0,1.7,0
		c0.3,0,0.4-0.1,0.4-0.4c0-0.6,0-1.2,0-1.7c0-0.3,0.1-0.4,0.4-0.4c0.9,0,1.8,0,2.6,0c1.5,0,2.3-0.7,2.4-2.2
		C50,65.9,50.1,64.5,49.9,63.1z M46.9,67.4c-0.7,0-1.4,0-2.1,0c-0.3,0-0.4-0.1-0.3-0.4c0-1,0-2,0-3c0-0.2,0.1-0.3,0.3-0.4
		c0.7-0.2,1.4-0.2,2.1-0.2c0.4,0,0.5,0.3,0.5,0.6c0,0.5,0,1,0,1.5c0,0.5,0,1,0,1.5C47.3,67.3,47.2,67.4,46.9,67.4z"/>
</g>
</svg>
