<?xml version="1.0" encoding="utf-8"?>
<!-- Generator: Adobe Illustrator 23.0.2, SVG Export Plug-In . SVG Version: 6.00 Build 0)  -->
<svg version="1.1" id="Layer_1" xmlns="http://www.w3.org/2000/svg" xmlns:xlink="http://www.w3.org/1999/xlink" x="0px" y="0px"
	 viewBox="0 0 500 500" style="enable-background:new 0 0 500 500;" xml:space="preserve">
<style type="text/css">
	.st0{fill:#184A8D;}
	.st1{opacity:0.56;clip-path:url(#SVGID_2_);fill:#2B5C9B;enable-background:new    ;}
	.st2{fill:none;stroke:#FFFFFF;stroke-width:3;stroke-miterlimit:10;}
	.st3{fill:#FFFFFF;}
</style>
<g>
	<g>
		<path class="st0" d="M462.6,484.8H43.5c-12.7,0-23.1-10.3-23.1-23.1V42.7c0-12.7,10.3-23.1,23.1-23.1h419.1
			c12.7,0,23.1,10.3,23.1,23.1v419.1C485.7,474.5,475.3,484.8,462.6,484.8z"/>
		<g>
			<g>
				<defs>
					<path id="SVGID_1_" d="M462.6,484.8H43.5c-12.7,0-23.1-10.3-23.1-23.1V42.7c0-12.7,10.3-23.1,23.1-23.1h419.1
						c12.7,0,23.1,10.3,23.1,23.1v419.1C485.7,474.5,475.3,484.8,462.6,484.8z"/>
				</defs>
				<clipPath id="SVGID_2_">
					<use xlink:href="#SVGID_1_"  style="overflow:visible;"/>
				</clipPath>
				<path class="st1" d="M474.1,479.6c0.7-0.1,1.3-0.3,2-0.4c1.4-1.5,3-2.8,4.7-3.9c0.9-2.2,2.1-4.2,3.5-6.1V35.9
					c-3.4-3.5-5.9-7.8-7.2-12.5c-1.4-0.4-2.7-0.9-4-1.5L179.7,485.8h283C465.8,482.7,469.6,480.4,474.1,479.6z"/>
			</g>
		</g>
	</g>
	<path class="st2" d="M458.6,474.2H47.5c-9.4,0-17-7.6-17-17V46.1c0-9.4,7.6-17,17-17h411.1c9.4,0,17,7.6,17,17v411.1
		C475.6,466.6,468,474.2,458.6,474.2z"/>
</g>
<g>
	<path class="st3" d="M278.3,154.9l-90.5,206.4c-2.3,5.3-7.6,8.8-13.4,8.8h-14.2c-5.8,0-11.1-3.4-13.4-8.8L55.9,154.9
		c-4.3-9.7,2.8-20.6,13.4-20.6h4.3c5.8,0,11.1,3.4,13.4,8.8l74.2,169.3c2.6,6,11,6,13.7,0l74.8-169.4c2.3-5.3,7.6-8.7,13.4-8.7h1.7
		C275.5,134.4,282.5,145.2,278.3,154.9z"/>
	<path class="st3" d="M337.3,163.7h-66.2c-8.1,0-14.6-6.6-14.6-14.6l0,0c0-8.1,6.6-14.6,14.6-14.6h165.7c8.1,0,14.6,6.6,14.6,14.6
		l0,0c0,8.1-6.6,14.6-14.6,14.6h-66.2v191.8c0,8.1-6.6,14.6-14.6,14.6h-4c-8.1,0-14.6-6.6-14.6-14.6V163.7z"/>
</g>
</svg>
