<?xml version="1.0" encoding="utf-8"?>
<!-- Generator: Adobe Illustrator 23.0.2, SVG Export Plug-In . SVG Version: 6.00 Build 0)  -->
<svg version="1.1" id="Layer_1" xmlns="http://www.w3.org/2000/svg" xmlns:xlink="http://www.w3.org/1999/xlink" x="0px" y="0px"
	 viewBox="0 0 500 200" style="enable-background:new 0 0 500 200;" xml:space="preserve">
<style type="text/css">
	.st0{fill:#005696;}
	.st1{fill:#3C71AB;}
	.st2{fill:#005697;}
	.st3{fill:#005F9E;}
	.st4{fill:#3C71AA;}
	.st5{fill:#2467A3;}
	.st6{fill:#02619F;}
	.st7{fill:#1865A2;}
	.st8{fill:#386FA9;}
	.st9{fill:#2468A4;}
	.st10{fill:#1567A4;}
	.st11{fill:#1C66A2;}
	.st12{fill:#90A7CD;}
	.st13{fill:#366EA8;}
	.st14{fill:#005F9D;}
	.st15{fill:#4F7BB1;}
	.st16{fill:#2367A3;}
	.st17{fill:#2569A5;}
	.st18{fill:#CCD5E7;}
	.st19{fill:#557DB3;}
	.st20{fill:#005898;}
	.st21{fill:#005D9C;}
	.st22{fill:#FFFFFF;}
	.st23{fill:#FCFCFD;}
	.st24{fill:#FEFFFF;}
	.st25{fill:#FDFDFE;}
	.st26{fill:#FEFEFF;}
	.st27{fill:#FEFEFE;}
	.st28{fill:#FAFAFC;}
	.st29{fill:#F8F9FB;}
	.st30{fill:#F2F3F8;}
	.st31{fill:#F4F5F9;}
	.st32{fill:#F5F6FA;}
	.st33{fill:#DCE1EF;}
	.st34{fill:#E4E8F2;}
	.st35{fill:#D1D8E9;}
	.st36{fill:#A2B4D5;}
	.st37{fill:#00609E;}
	.st38{fill:#E5E7F1;}
	.st39{fill:#DBDFED;}
	.st40{fill:#E4E7F2;}
	.st41{fill:#B0C0DD;}
	.st42{fill:#7493C1;}
	.st43{fill:#D3DAEA;}
	.st44{fill:#CCD4E8;}
	.st45{fill:#D2D9EA;}
	.st46{fill:#BDC9E1;}
	.st47{fill:#5780B4;}
	.st48{fill:#3871AA;}
	.st49{fill:#2768A4;}
	.st50{fill:#DADFED;}
	.st51{fill:#EBEDF4;}
	.st52{fill:#C8D1E5;}
	.st53{fill:#ACBCDA;}
	.st54{fill:#7B98C4;}
	.st55{fill:#839FC9;}
	.st56{fill:#94ABD0;}
	.st57{fill:#90A6CE;}
	.st58{fill:#6388BA;}
	.st59{fill:#D1D8EA;}
	.st60{fill:#9DB4D6;}
	.st61{fill:#AFC0DD;}
	.st62{fill:#B2C2DE;}
	.st63{fill:#96ABD0;}
	.st64{fill:#97ACD1;}
	.st65{fill:#D1D6E7;}
	.st66{fill:#DEE5F1;}
	.st67{fill:#A9B9D8;}
	.st68{fill:#F2F4F8;}
	.st69{fill:#F7F9FC;}
	.st70{fill:#D7DCEB;}
	.st71{fill:#CFD7E8;}
	.st72{fill:#00609F;}
	.st73{fill:#F8F8FA;}
	.st74{fill:#DBE0ED;}
	.st75{fill:#DEE3EF;}
	.st76{fill:#C6CFE3;}
	.st77{fill:#F0F3F5;}
	.st78{fill:#FBFBFC;}
	.st79{fill:#F5F7FA;}
	.st80{fill:#EDEEF5;}
	.st81{fill:#F4F6FB;}
	.st82{fill:#F2F3F7;}
	.st83{fill:#E5E7F0;}
	.st84{fill:#F4F4F8;}
	.st85{fill:#C2CDE3;}
	.st86{fill:#E2E5F0;}
	.st87{fill:#005A9A;}
	.st88{fill:#005999;}
	.st89{fill:#005798;}
	.st90{fill:#517CB2;}
	.st91{fill:#5D85B9;}
	.st92{fill:#5D86BA;}
	.st93{fill:#5581B6;}
	.st94{fill:#5E87BA;}
	.st95{fill:#5B84B8;}
	.st96{fill:#3F77B0;}
	.st97{fill:#2E6DA8;}
	.st98{fill:#537FB4;}
	.st99{fill:#4878B0;}
	.st100{fill:#005796;}
	.st101{fill:#3E76AF;}
	.st102{fill:#4375AD;}
	.st103{fill:#4E81B7;}
	.st104{fill:#4A7CB3;}
	.st105{fill:#4076AF;}
	.st106{fill:#507EB4;}
	.st107{fill:#005797;}
	.st108{fill:#B0BEDB;}
	.st109{fill:#AEBEDB;}
	.st110{fill:#F5F7FB;}
	.st111{fill:#A1B3D5;}
	.st112{fill:#EEF0F6;}
	.st113{fill:#E9EEF5;}
	.st114{fill:#B1C0DD;}
	.st115{fill:#E3D9E4;}
	.st116{fill:#B2BFDC;}
</style>
<g>
	<path class="st0" d="M0,82.92c0.13-0.13,0.36-0.23,0.39-0.38c2.05-9.59,8.03-16.64,15.02-22.95c12-10.82,26.01-18.43,40.61-25.02
		c25.89-11.67,53.02-19.38,80.8-24.99c15.13-3.06,30.38-5.37,45.73-6.97c13.72-1.44,27.48-2.28,41.28-2.62
		c14.99-0.37,29.96-0.06,44.91,1.02c15.66,1.13,31.27,2.82,46.83,4.99c15.94,2.23,31.77,4.96,47.32,9.16
		c9.75,2.64,19.33,5.77,28.26,10.59c4.85,2.62,9.39,5.66,12.93,9.97c5.44,6.64,5.76,13.79,1.93,21.23
		c-3.61,7.02-9.23,12.32-15.27,17.2c-8.97,7.25-18.84,13.09-29.12,18.27c-0.39,0.2-0.76,0.58-1.37,0.24
		c5.83-4.36,11.5-8.84,16.61-13.98c5.1-5.13,9.74-10.6,12.47-17.42c3.27-8.18,1.85-15.53-4.1-21.97
		c-5.75-6.21-13.13-9.89-20.82-12.98c-11.98-4.81-24.49-7.7-37.15-9.97c-20.56-3.67-41.31-5.49-62.15-6.49
		c-15.77-0.75-31.55-0.91-47.32-0.52c-13.66,0.33-27.32,0.96-40.87,2.79c-14.76,2-29.39,4.8-43.89,8.21
		c-17.46,4.11-34.65,9.1-51.03,16.56c-10.13,4.61-19.78,10.03-28.06,17.58c-6.49,5.92-11.6,12.77-13.92,21.43
		c-3.59,13.4,2.44,32.82,19.45,39.95c9.73,4.08,19.81,6.75,30.13,8.66c18.19,3.37,36.58,4.99,55.04,6.03
		c12.26,0.69,24.53,1.02,36.8,1.3c11.42,0.26,22.84,0.22,34.26,0.1c10.49-0.11,20.98-0.49,31.47-0.75c0.82,0.04,1.77-0.66,2.42,0.41
		c-20.26,3.32-40.64,5.5-61.16,6.49c-12.66,0.62-25.33,0.87-38,0.52c-34.78-0.95-69.14-5.01-102.82-14.06
		c-11.15-3-21.82-7.04-31.45-13.51c-5.42-3.64-10.2-7.92-13.44-13.73C1.52,95.13,1.18,92.63,0,90.45c0-0.4,0-0.79,0-1.19
		c0.33-1.72,0.33-3.43,0-5.15C0,83.71,0,83.32,0,82.92z"/>
	<path class="st1" d="M0,84.11c0.65,1.72,0.65,3.43,0,5.15C0,87.54,0,85.83,0,84.11z"/>
	<path class="st0" d="M321.03,93.73c-0.13,0.55,0.06,0.89,0.63,0.99c1.55,0.27,3.07,0.72,4.67,0.52c0.32-0.04,0.82,0.03,0.94-0.15
		c1.7-2.55,4.4-1.5,6.69-1.92c2.57-0.95,5.14-0.08,7.72-0.02c0.79,0.03,1.59,0,2.37,0.1c1.15,0.15,2.53-0.11,2.88,1.63
		c0.07,0.35,0.83,0.57,1.29,0.82c3.63,2.01,7.23,4.08,10.92,5.99c1.27,0.66,1.59,1.47,1.55,2.79c-0.14,5.01-0.18,10.03-0.25,15.04
		c-0.01,0.83-0.21,1.75,0.95,2.08c0.45,0.13,0.46,0.59,0.46,0.99c0,2.11,0.01,4.22-0.01,6.34c0,0.3-0.19,0.87-0.25,0.86
		c-2.45-0.24-1.32,1.62-1.36,2.52c-0.2,4.88-0.28,9.76-0.35,14.64c-0.01,0.79-0.48,1.95,1.2,1.83c0.74-0.05,0.53,0.79,0.52,1.26
		c-0.05,2.04-0.14,4.08-0.23,6.13c-0.01,0.32-0.04,0.86-0.2,0.91c-2.09,0.69-1.37,2.43-1.42,3.81c-0.16,4.02-0.22,8.04-0.35,12.06
		c-0.05,1.42-0.13,2.82,1.7,3.58c-5.64,4.27-11.06,8.35-16.46,12.46c-0.62,0.47-1.21,0.31-1.87,0.21
		c-17.71-2.73-35.43-5.43-53.14-8.2c-1.13-0.18-2.09-0.02-3.03,0.45c-1.8,0.91-3.59,0.91-5.53,0.4c-3.69-0.97-7.43-1.77-11.15-2.62
		c-0.63-0.14-1.32-0.07-1.43-1.02c-0.08-0.72-0.76-0.57-1.26-0.65c-2.47-0.39-4.94-0.8-7.42-1.16c-0.7-0.1-1.34-0.15-1.33-1.08
		c0-0.19-0.03-0.51-0.14-0.55c-2.66-1.13-1.55-3.47-1.54-5.29c0.02-8.71,0.22-17.41,0.34-26.12c0.01-0.85-0.18-1.86,1.17-1.72
		c2.1,0.22,1.9-1.25,1.92-2.53c0.06-5.94,0.08-11.88,0.16-17.82c0.01-0.92-0.55-2.14,0.99-2.58c0.17-0.05,0.18-0.84,0.18-1.29
		c0.1-5.8,0.18-11.61,0.26-17.41c0.01-0.43-0.06-0.83-0.27-1.28c-0.54-1.17-0.6-2.22,1.22-2.42c11.6-1.28,23.2-2.6,34.79-3.92
		c1.1-0.12,2.26-0.09,3.14-0.95c0.89-1,2.09-0.69,3.21-0.76c0.5,0.01,1.01-0.1,1.48,0.16c-0.7,2.06,0.71,2.56,2.2,3.07
		c1.23,0.42,2.51,0.81,3.63,1.45c1.9,1.09,3.74,0.39,5.5-0.11c1.5-0.43,0.01-1.11-0.13-1.69c-0.47-1.16,0.57-1.15,1.16-1.49
		c1.09-0.31,2.12-0.01,3.14,0.36C321.64,92.83,321.37,93.28,321.03,93.73z"/>
	<path class="st0" d="M411.4,137.28c0.08,6.76-2.15,11.92-6.55,16.19c-0.99,0.96-1.61,1.24-2.5-0.21c-1.58-2.59-1.67-2.53,0.23-4.72
		c5.11-5.89,5.22-16.63,0.21-22.58c-0.42-0.5-0.97-0.9-1.4-1.39c-0.55-0.63-1.9-0.55-1.85-1.55c0.06-1.3,0.44-2.6,0.82-3.85
		c0.3-0.98,1.01-0.31,1.45-0.12c3.03,1.31,5.18,3.6,6.71,6.46C410.61,129.36,411.41,133.54,411.4,137.28z"/>
	<path class="st2" d="M397.7,137.7c-0.13,2.45-0.35,4.87-1.36,7.14c-0.57,1.28-1.28,2.48-2.34,3.38c-1.03,0.87-2.41,2.31-3.51,1.57
		c-1.16-0.78-0.47-2.84-0.9-4.29c-0.04-0.13,0.29-0.38,0.46-0.56c3.05-3.22,3.6-9.29,1.15-12.97c-0.33-0.49-0.65-1.11-1.14-1.34
		c-2.48-1.19-1.74-2.88-1.03-4.8c0.49-1.31,0.94-1.44,2.04-0.77C395.84,127.96,397.62,132.38,397.7,137.7z"/>
	<path class="st2" d="M385.12,138.57c-0.28,2.93-0.64,5.89-3.86,7.37c-1.04,0.48-1.75,0.54-1.63-0.98c0.13-1.72-0.33-3.43,0.29-5.19
		c0.79-2.24-0.95-4.29-0.87-6.52c0.03-0.93-0.77-2.23,0.17-2.71c1.07-0.55,2.28,0.23,3.22,1
		C384.65,133.35,384.86,135.94,385.12,138.57z"/>
	<g>
		<path class="st0" d="M296.59,36.98c-2.44,0.12-4.89,0.15-7.32-0.01c-1.57-0.1-2.34,0.53-3.12,1.79
			c-5.56,9.05-11.21,18.03-16.77,27.08c-0.87,1.42-1.23,1.6-2.2,0.03c-5.66-9.21-11.43-18.36-17.16-27.53
			c-0.46-0.74-0.84-1.38-1.94-1.35c-2.77,0.09-5.55,0.07-8.32,0.01c-1.09-0.03-1.32,0.42-1.32,1.4c0.05,11.42,0.06,22.84,0.08,34.26
			c0.67-0.01,1.4,0.09,2.13,0.17c0.66-0.02,1.33-0.06,1.98,0.02c0.11,0.01,0.21,0.02,0.31,0.02c0.44-0.08,0.83-0.23,1.14-0.5
			c0.32-0.29,0.51-0.66,0.6-1.09c0.01-0.15,0.02-0.3,0.02-0.47c0-0.57,0-1.14-0.01-1.71c-0.08-0.76-0.2-1.53-0.19-2.22
			c0.04-8.38,0-16.77,0-25.15c0-0.34-0.28-0.82,0.29-0.93c0.09-0.02,0.28,0.39,0.42,0.6c5.87,9.24,11.89,18.39,17.51,27.78
			c1.83,3.06,3.86,4.24,7.25,3.77c1.08-0.15,1.75-0.4,2.36-1.37c4.93-7.96,9.92-15.89,14.9-23.82c1.51-2.41,3.03-4.83,4.72-7.52
			c0,9.63,0,18.87,0,28.1c0,4.81,0,4.77,4.87,4.59c1.18-0.04,1.42-0.49,1.42-1.54c-0.03-10.89-0.03-21.79,0-32.68
			C298.25,37.43,297.95,36.91,296.59,36.98z"/>
		<path class="st0" d="M218.98,60.78c-0.26,0-0.53,0.03-0.79-0.01c-1.62-0.22-2.3,0.15-2.16,2.09c0.28,4.12-1.16,5.65-5.32,6.3
			c-3.6,0.56-7.24,0.57-10.85,0.55c-3.54-0.02-7.13-0.04-10.59-1.08c-1.61-0.48-2.96-1.32-3.3-3.06
			c-1.32-6.64-1.69-13.34-0.82-20.06c0.36-2.81,1.85-4.11,4.71-4.54c2.28-0.34,4.58-0.57,6.88-0.67c4.94-0.21,9.88-0.47,14.79,0.51
			c2.11,0.42,3.15,1.75,3.58,3.72c0.25,1.14-0.32,2.78,0.62,3.33c0.94,0.55,2.43,0.18,3.68,0.2c0.4,0.01,0.79-0.03,1.19,0
			c0.66,0.05,0.91-0.19,0.92-0.89c0.07-4.15-1.09-8.3-6.44-9.49c-6.13-1.36-12.32-1.15-18.51-0.89c-3.82,0.16-7.66,0.34-11.33,1.54
			c-3.83,1.25-6.68,3.41-6.75,7.95c-0.04,2.44-0.2,4.88-0.27,6.33c0.03,4.55,0.13,8.09,0.82,11.61c0.89,4.56,3.45,7.22,8.05,8.01
			c9.19,1.57,18.41,1.33,27.59,0.13c5.33-0.7,6.78-2.49,7.49-7.8C222.67,60.83,222.64,60.79,218.98,60.78z"/>
		<path class="st0" d="M168.76,36.99c-1.11,0.1-2.25,0.11-3.36,0c-1.31-0.14-1.99,0.35-2.59,1.53c-2.38,4.7-4.9,9.34-7.36,14.01
			c-2.9,5.51-5.79,11.02-8.78,16.71c-0.32-0.54-0.56-0.92-0.77-1.31c-5.24-9.83-10.47-19.66-15.72-29.49
			c-0.35-0.66-0.55-1.48-1.63-1.45c-1.83,0.07-3.66,0.02-5.72,0.02c0.33,0.71,0.54,1.25,0.82,1.75
			c5.07,9.33,10.14,18.65,15.21,27.98c3.53,6.5,3.53,6.48,10.95,6.15c0.99-0.04,1.51-0.4,1.97-1.27
			c5.91-11.05,11.85-22.07,17.81-33.09C170.18,37.44,170.34,36.85,168.76,36.99z"/>
		<path class="st0" d="M244.71,43.16c-0.04,8.64-0.06,17.28,0,25.92c0.09,0.78,0.13,1.54-0.01,2.18c-0.08,1.18-0.53,1.67-1.75,1.6
			c-0.68,0.12-1.48,0.05-2.3-0.04c-0.71,0.02-1.42,0.02-2.13-0.17c1.25,0.87,2.66,0.21,3.98,0.41c1.84,0.29,2.48-0.38,2.45-2.34
			c-0.1-9.09-0.05-18.18-0.03-27.27c0-0.69-0.29-1.45,0.28-2.07C244.19,41.71,244.71,42.57,244.71,43.16z"/>
	</g>
	<path class="st3" d="M339.12,86.11c0.19,1.05,0.2,2.1,0.04,3.16c-0.19,0.72-0.55,1.13-1.35,0.78c-1.03-0.38-2.11-0.13-3.16-0.2
		c-0.32-0.06-0.43-0.3-0.5-0.57c-0.02-1.06-0.04-2.11-0.07-3.17c0.06-0.05,0.13-0.1,0.19-0.15c0.17,0.01,0.33,0.04,0.49,0.09
		c1.03,0.09,2.04-0.03,3.06-0.14C338.27,85.87,338.72,85.86,339.12,86.11z"/>
	<path class="st4" d="M317.82,92.52c-0.29,0.48-1.22,0.24-1.2,1.08c-0.85-1.25-0.14-2.63-0.35-3.94c0.57-0.46,0.99,0.12,1.49,0.21
		c0.7,0.13,1.41,0.07,2.11,0.09c0.94,0.07,0.79-0.64,0.85-1.2c0.05-0.18,0.16-0.31,0.33-0.4c0.95,1.19,0.93,4.44-0.02,5.37
		c-0.09-0.31,0.32-0.68-0.12-0.94C319.1,91.88,319.1,91.88,317.82,92.52z"/>
	<path class="st5" d="M334.15,89.27c0.11,0.17,0.23,0.33,0.34,0.5c1.17-0.06,2.34,0.01,3.5-0.11c0.58,0.41,0.83-0.12,1.18-0.4
		c0.04,0.25,0.19,0.57,0.1,0.75c-1.57,2.89,0.45,3,2.42,3.15c-2.57,0.01-5.14,0.01-7.72,0.02c0.72-0.31,1.57-0.58,0.63-1.55
		C333.92,90.94,333.91,90.13,334.15,89.27z"/>
	<path class="st6" d="M305.41,90.87c-0.38,0.12-0.75,0.23-1.13,0.35c-1.14-0.66-2.38,0.03-3.55-0.25c-0.66-0.29-0.5-0.8-0.36-1.31
		c0.16-0.14,0.32-0.27,0.5-0.4c1.08-0.63,2.26-0.51,3.44-0.5c0.45,0.03,0.84,0.19,1.16,0.5C305.45,89.8,305.43,90.34,305.41,90.87z"
		/>
	<path class="st7" d="M305.46,89.26c-0.4-0.01-0.8-0.02-1.21-0.03c-1.2-0.29-2.39-0.45-3.46,0.4c-0.14,0.01-0.29,0.01-0.43,0.02
		c-0.01-0.39-0.01-0.78-0.02-1.17c-0.22-0.66,0.38-0.76,0.71-1.05c0.61-0.24,1.22-0.47,1.89-0.43c0.68,0.16,1.35,0.36,2.06,0.4
		c0.17,0.05,0.32,0.14,0.44,0.27C305.45,88.21,305.46,88.73,305.46,89.26z"/>
	<path class="st8" d="M320.93,88.84c0.28,0.84,0.72,1.77-0.87,1.57c-0.89-0.24-1.77-0.31-2.65,0.04c-0.42-0.21-0.55-0.83-1.14-0.79
		c0.01-0.53,0.02-1.07,0.03-1.6c0.15-0.1,0.3-0.11,0.46-0.05c0.31,0.21,0.6,0.48,1.02,0.27c0.71,0.05,1.41,0.1,2.12,0.12
		C320.3,88.43,320.64,88.58,320.93,88.84z"/>
	<path class="st9" d="M317.49,88.35c-0.54,0.64-0.66,0.04-0.87-0.3c0.01-0.38,0.09-0.72,0.41-0.96c0.38-0.25,0.82-0.38,1.25-0.52
		c0.43-0.12,0.86-0.15,1.3-0.07c0.36,0.24,0.71,0.48,1.01-0.08c1.39,0.35,0.95,1.13,0.46,1.93c-0.04,0.16-0.07,0.32-0.11,0.48
		c-0.4,0-0.81,0-1.21,0.01C319.08,88.23,318.23,88.55,317.49,88.35z"/>
	<path class="st10" d="M301.15,87.79c-0.27,0.23-0.54,0.47-0.81,0.7c-0.03-1.07-0.78-2.14,0.01-3.2c1.51,0.1,3.06,0.03,4.46,0.77
		c0.23,0.59-0.01,0.94-0.56,1.15c-0.18,0.03-0.37,0.05-0.56,0.04C302.77,87.05,301.86,86.93,301.15,87.79z"/>
	<path class="st11" d="M339.12,86.11c-0.34,0.21-0.67,0.33-1-0.01c-1.22-0.05-2.44,0.28-3.67,0l-0.02,0
		c-0.45-0.65-0.75-1.28,0.28-1.68c1.32-0.62,2.61-0.38,3.89,0.13c0.19,0.09,0.35,0.21,0.5,0.36
		C339.11,85.31,339.11,85.71,339.12,86.11z"/>
	<path class="st12" d="M304.71,86.05c-1.47-0.15-3.06,0.4-4.35-0.76c0.35-0.59,0.99-0.62,1.55-0.81c0.68-0.18,1.26,0.02,1.81,0.41
		c0.53-0.09,1.06-0.16,1.4,0.4C305.1,85.61,305.01,85.89,304.71,86.05z"/>
	<path class="st13" d="M320.58,86.43c0.03,0.6-0.2,0.79-0.75,0.47c-0.68-0.41-1.39-0.2-2.09-0.08c-0.19,0-0.36-0.04-0.53-0.12
		c-0.07-0.06-0.13-0.13-0.2-0.19c1.31-0.22,0.78-2.01,1.98-2.33c0.23,0.46-0.36,1.18,0.44,1.47
		C319.81,85.9,320.2,86.16,320.58,86.43z"/>
	<path class="st14" d="M303.71,84.9c-0.64,0.02-1.32,0.22-1.81-0.41c0.23-0.52-0.44-1.57,0.63-1.54
		C303.65,82.98,303.29,84.25,303.71,84.9z"/>
	<path class="st15" d="M249.61,131.61c-0.73-0.62-1.64-0.11-2.42-0.41c1.76-0.58,3.57-0.21,5.4-0.02
		C251.59,131.32,250.6,131.46,249.61,131.61z"/>
	<path class="st16" d="M335.97,83.21c0.19-0.51-0.4-1.56,0.65-1.44c1.1,0.12,0.39,1.28,0.72,1.89
		C336.71,84.03,336.11,84.32,335.97,83.21z"/>
	<path class="st17" d="M335.97,83.21c0.32,0.57,0.85,0.5,1.37,0.45c0.79,0.13,1.81-0.06,1.76,1.24c-0.13,0-0.25-0.01-0.38-0.03
		c-1.16-0.78-2.49-0.5-3.76-0.6c-0.21-0.12-0.25-0.29-0.11-0.49C335.22,83.59,335.6,83.4,335.97,83.21z"/>
	<path class="st18" d="M300.73,90.97c1.2-0.08,2.44-0.88,3.55,0.25c-1.19,0.03-2.39-0.08-3.56,0.26
		C300.72,91.31,300.73,91.14,300.73,90.97z"/>
	<path class="st9" d="M304.71,86.05c0.03-0.31,0.02-0.64,0.41-0.76c0.61,0.72,0.3,1.58,0.33,2.38c-0.18-0.02-0.36-0.05-0.54-0.07
		c-0.38-0.18-1.07,0.1-1.05-0.69C304.4,86.87,304.72,86.63,304.71,86.05z"/>
	<path class="st19" d="M334.85,83.78c0,0.1,0,0.2-0.02,0.3c0.25,0.21,0.21,0.47,0.1,0.73c-1,0.1-0.49,0.79-0.5,1.27l-0.18,0
		l-0.18,0.01C333.54,85.07,333.41,84.16,334.85,83.78z"/>
	<path class="st20" d="M319.43,85.63c-0.16,0.2-0.43,0.46-0.6,0.25c-0.5-0.59-0.14-1.17,0.16-1.72
		C319.91,84.42,319.29,85.14,319.43,85.63z"/>
	<path class="st21" d="M316.99,87.33c0.01,0.31-0.06,0.58-0.38,0.72c0,0-0.16-0.01-0.16-0.01s-0.16,0.01-0.16,0.01
		c0.01-0.63-0.61-1.54,0.71-1.56c0,0-0.02-0.02-0.02-0.02C317.28,86.76,316.99,87.05,316.99,87.33z"/>
	<g>
		<path class="st0" d="M255.92,86.44c-2.84-2.49-6.24-2.17-9.58-1.54c-2.56,0.48-4.12,2.09-4.63,4.77
			c-0.7,3.69-1.51,7.36-2.36,11.01c-0.43,1.83-2.11,3.06-3.4,2.57c-1.75-0.66-1.48-2.07-1.16-3.49c0.95-4.31,1.82-8.64,2.8-12.94
			c0.38-1.68-0.14-2.35-1.86-2.28c-1.91,0.07-3.83,0.02-5.74,0.02c-3.9-0.01-3.93-0.32-4.75,3.57c-0.08,0.38-0.13,0.82-0.36,1.11
			c-0.52,0.65-1.23,0.99-2.1,0.82c-0.68-0.14-0.93-0.59-1.02-1.26c-0.43-3.36-1.47-4.12-4.81-4.32c-4.23-0.25-8.43,0.77-12.68,0.09
			c-1.87-0.3-3.83,0.05-5.73-0.08c-1.94-0.13-2.9,0.57-3.22,2.54c-0.41,2.57-1.07,5.09-1.65,7.75c-3.52-3.29-7.6-2.86-11.66-2.14
			c-1.65,0.3-2.74,1.45-3.03,3.25c-0.29,1.82-0.72,3.62-1.09,5.42c-0.19,0.91-0.46,1.8-1.17,2.46c-0.81,0.75-1.73,1.36-2.84,0.75
			c-1.07-0.59-1.21-1.58-0.95-2.75c0.79-3.53,1.6-7.07,2.21-10.64c0.32-1.89,1.05-2.6,3.04-2.46c2.82,0.2,5.67,0.07,8.51,0.04
			c1.86-0.02,2.24-1.37,2.31-2.85c0.09-1.77-1.29-1.32-2.25-1.33c-2.71-0.04-5.42-0.12-8.12,0.02c-1.78,0.09-2.09-0.39-1.63-2.08
			c0.61-2.25,0.17-2.66-2.18-2.66c-2.11-0.01-4.23,0-6.34,0c-2.6,0-3.03,0.36-3.57,2.91c-1.34,6.38-2.71,12.75-4.01,19.14
			c-0.26,1.25-0.82,2-2.12,1.72c-1.36-0.29-1.18-1.39-0.97-2.39c0.77-3.74,1.55-7.48,2.35-11.22c0.81-3.8-0.51-5.28-4.41-5.5
			c-4.96-0.28-9.89,0.73-14.85,0.08c-1.95-0.26-3.96,0.06-5.93-0.07c-1.92-0.13-2.68,0.71-3.04,2.52
			c-0.91,4.71-1.98,9.38-3.04,14.31c-2.64-1.9-3.94-2.22-9.1-2.07c-2.87,0.09-5.83,0.19-6.71,3.83c-0.04,0.18-0.21,0.34-0.34,0.48
			c-0.8,0.89-1.78,1.55-2.96,1c-1.18-0.55-1.38-1.63-1.02-2.87c0.28-0.94,0.51-1.92,0.6-2.9c0.12-1.38,0.82-1.68,2.09-1.62
			c2.37,0.1,4.75-0.03,7.13,0.04c6.46,0.2,8.63-0.89,9.68-7.78c0.45-2.92-0.81-4.86-3.79-4.89c-6.47-0.08-12.94-0.08-19.41,0
			c-3.02,0.04-5.03,1.87-5.67,4.8c-0.98,4.5-1.92,9.02-2.91,13.52c-0.8,3.65,0.56,5.42,4.29,5.43c6.01,0.02,12.02-0.01,18.03,0.02
			c1.22,0.01,2.35-0.24,3.44-0.77c1.45-0.69,2.38-1.79,2.91-3.32c0.39-1.13,1.32-1.73,2.5-1.39c1.3,0.38,0.55,1.37,0.43,2.15
			c-0.06,0.39-0.09,0.79-0.21,1.17c-0.52,1.6,0.11,2.19,1.71,2.16c2.51-0.05,5.02-0.09,7.53,0.01c1.7,0.07,2.49-0.58,2.83-2.27
			c0.97-4.91,2.07-9.79,3.11-14.69c0.18-0.85,0.45-1.64,1.08-2.28c0.8-0.8,1.73-1.4,2.82-0.82c1.04,0.55,1.24,1.53,0.97,2.72
			c-0.91,4.11-1.72,8.25-2.59,12.37c-0.64,3.04,0.74,4.76,3.87,4.95c4,0.23,7.77-0.26,10.9-3.32c0.9,2.64,2.74,3.35,5.13,3.33
			c5.48-0.05,10.96-0.01,16.44-0.02c4.18-0.01,6.1-1.6,6.95-5.72c0.35-1.68,0.67-3.36,1.17-5c0.34-1.11,1.26-1.77,2.46-1.49
			c1.36,0.33,0.84,1.45,0.68,2.29c-0.51,2.58-1.02,5.17-1.66,7.73c-0.4,1.58,0.03,2.23,1.68,2.2c2.57-0.05,5.15-0.08,7.72,0.01
			c1.65,0.06,2.34-0.66,2.66-2.22c0.98-4.91,2.09-9.79,3.11-14.69c0.24-1.15,0.7-2.11,1.65-2.82c0.69-0.51,1.47-0.73,2.23-0.35
			c0.83,0.41,1.18,1.19,1.15,2.13c-0.1,3,1.12,4.3,4.12,4.46c3.45,0.19,6.24-1.33,9-3.61c-0.69,3.34-1.33,6.41-1.97,9.48
			c-0.74,3.55,0.6,5.2,4.28,5.22c3.37,0.02,6.73-0.01,10.1,0.02c0.43,0,1.32-0.31,1.14,0.57c-0.42,1.98-0.42,4.11-1.68,5.82
			c-0.66,0.89-1.63,1.43-2.78,1.07c-1.11-0.35-1.43-1.3-1.3-2.37c0.13-1.09-0.27-1.62-1.4-1.62c-2.9,0.02-5.81,0-8.72,0.01
			c-0.98,0-1.57,0.51-1.89,1.43c-1.06,3.08,0.3,5.28,3.68,5.35c6.47,0.13,12.94,0.12,19.41,0c3.19-0.06,5.05-1.86,5.73-5
			c1.37-6.38,2.7-12.76,4.07-19.13c0.55-2.57,1.71-3.22,4.05-2.28C258.03,88.16,256.87,87.27,255.92,86.44z M110.89,91.69
			c0.25-1.35,0.7-2.53,1.92-3.26c1.12-0.67,2.23-0.6,2.85,0.62c0.77,1.54,0,3.1-0.44,4.56c-0.34,1.15-1.62,0.28-2.28,0.56
			C110.39,94.18,110.43,94.18,110.89,91.69z"/>
		<path class="st0" d="M83.07,89.22c2.44-0.06,4.89-0.02,7.33-0.02c5.51,0,5.56-0.04,6.41-5.58c0.32-2.11-0.47-3.59-2.43-4.44
			c-1.1-0.48-2.26-0.64-3.47-0.63c-7.2,0.02-14.39,0.01-21.59,0.01c-5.76,0-7.97,1.77-9.17,7.31c-1.05,4.87,0.45,7.23,5.36,8.17
			c3.04,0.58,6.11,1.06,9.18,1.43c2.01,0.24,3.13,1.3,3.46,3.18c0.34,1.91-0.78,4.05-2.37,4.86c-1.81,0.92-3.53-0.05-3.64-2.1
			c-0.03-0.52,0.1-1.05,0.17-1.57c0.19-1.38-0.26-2.14-1.79-2.12c-3.56,0.04-7.13,0.03-10.7,0.01c-1.59-0.01-2.43,0.81-2.73,2.31
			c-0.13,0.65-0.28,1.29-0.4,1.93c-0.82,4.27,0.88,6.29,5.33,6.3c3.83,0.01,7.66,0,11.49,0c2.71,0,5.41,0,8.12,0
			c0.73,0,1.45,0,2.18,0c6.13,0,8.2-1.7,9.4-7.72c0.96-4.84-0.45-6.93-5.3-7.72c-3.06-0.5-6.14-0.87-9.19-1.38
			c-3.59-0.6-4.76-3.08-3.02-6.27c0.89-1.62,2.62-2.6,3.86-2.05c1.65,0.72,1.76,2.1,1.42,3.66C80.61,88.49,81.3,89.27,83.07,89.22z"
			/>
	</g>
	<path class="st22" d="M343.87,141.86c0,6.01,0.07,12.01-0.02,18.02c-0.12,8.9-0.36,17.81-0.53,26.71
		c-0.02,0.95-0.12,1.44-1.32,1.25c-16.6-2.62-33.21-5.2-49.82-7.74c-1.09-0.17-1.43-0.5-1.41-1.58c0.05-2.24,0.03-4.49-0.1-6.73
		c-0.08-1.37,0.29-1.96,1.74-1.67c2.11,0.42,4.3,0.37,6.28,1.51c1.61,0.93,3.57,0.86,5.38,1.15c1.03,0.16,1.42,0.41,1.4,1.56
		c-0.06,4.65-0.01,4.64,4.53,5.34c7.3,1.13,14.6,2.23,21.88,3.42c1.27,0.21,2.08-0.49,3.09-0.95c3.09-1.39,3.93-3.58,3.92-7
		c-0.03-11.08,0.36-22.16,0.72-33.24c0.07-1.99-0.56-2.42-2.4-2.36c-3.89,0.11-7.79-0.05-11.68-0.01c-1.2,0.01-1.61-0.34-1.59-1.57
		c0.2-13.33,0.37-26.66,0.5-39.99c0.01-1.03,0.31-1.33,1.34-1.36c5.87-0.18,11.73-0.43,17.6-0.67c1.01-0.04,1.72-0.07,1.67,1.39
		c-0.21,6.33-0.35,12.66-0.4,19c-0.06,8.51-0.02,17.02-0.02,25.53C344.4,141.86,344.13,141.86,343.87,141.86z"/>
	<path class="st22" d="M333.01,182.36c-8.71-1.34-17.03-2.64-25.37-3.86c-1.09-0.16-1.42-0.49-1.41-1.58
		c0.14-11.87,0.2-23.73,0.7-35.59c0.04-0.94,0.27-1.35,1.38-1.32c8.04,0.17,16.09,0.27,24.13,0.34c1.12,0.01,1.29,0.45,1.26,1.4
		c-0.25,9.88-0.49,19.77-0.68,29.66C332.96,175.02,333.01,178.63,333.01,182.36z"/>
	<path class="st23" d="M264.77,114.61c0-4.75,0.05-9.5-0.02-14.25c-0.02-1.23,0.66-1.42,1.57-1.51c5.3-0.56,10.6-1.12,15.9-1.67
		c5.89-0.61,11.79-1.15,17.67-1.83c1.28-0.15,1.69-0.04,1.69,1.38c-0.05,12.27-0.04,24.55-0.01,36.82c0,1.12-0.16,1.65-1.48,1.62
		c-11.4-0.29-22.81-0.51-34.21-0.72c-0.92-0.02-1.26-0.25-1.25-1.22c0.08-5.94,0.1-11.87,0.14-17.81c0.28-0.16,0.74,0.22,0.79,0
		C265.68,114.89,265.16,114.76,264.77,114.61z"/>
	<path class="st22" d="M278.71,145.46c8.1,0.41,16.19,0.85,24.29,1.22c1.05,0.05,1.43,0.24,1.41,1.42
		c-0.11,4.75-0.11,9.5-0.06,14.25c0.01,1.21-0.27,1.6-1.53,1.48c-3.74-0.35-7.49-0.64-11.24-0.84c-1.24-0.07-1.12-0.79-1.13-1.59
		c-0.04-4.02-0.14-8.04-0.11-12.07c0.01-1.33-0.34-1.83-1.76-1.81c-3.82,0.06-7.65-0.03-11.47-0.11c-0.97-0.02-1.76,0.22-2.55,0.81
		c-2.38,1.77-4.79,3.51-7.24,5.16c-0.83,0.56-0.77,0.96-0.51,1.86c0.45,1.56,1.66,2.81,1.64,4.54c-0.01,0.92-0.23,1.33-1.22,1.24
		c-2.56-0.22-5.13-0.4-7.69-0.57c-0.89-0.06-1.23-0.42-1.21-1.36c0.08-4.48,0.12-8.97,0.11-13.45c0-1.14,0.48-1.23,1.47-1.16
		c5.92,0.37,11.84,0.66,17.76,0.98C278,145.29,278.35,145.21,278.71,145.46z"/>
	<path class="st22" d="M304,124.62c0-7.19,0.02-14.37-0.02-21.56c-0.01-1.87,0.49-2.83,2.65-2.83c2.29,0.01,4.59-0.42,6.87-0.77
		c1.16-0.18,1.49,0.12,1.46,1.29c-0.22,9.49-0.42,18.99-0.56,28.48c-0.02,1.26-0.38,1.68-1.69,1.68c-2.63,0-5.27,0.19-7.9,0.36
		c-1.04,0.07-1.4-0.25-1.35-1.31c0.08-1.78,0.02-3.56,0.02-5.34C303.65,124.62,303.83,124.62,304,124.62z"/>
	<path class="st22" d="M345.45,141.18c0.05-3.22,0.16-6.45,0.13-9.67c-0.01-1.26,0.42-1.63,1.62-1.44
		c3.57,0.56,7.15,1.09,10.73,1.55c0.93,0.12,0.98,0.6,0.96,1.34c-0.12,4.73-0.28,9.47-0.25,14.2c0.01,1.55-0.44,2.31-1.98,2.36
		c-0.62,0.75-1.52,0.85-2.39,1.01c-0.41,0.05-0.86-0.23-1.25,0.12c-1.11,0.03-2.2,0.15-3.13,0.83c-1.02,0.93-2.35,0.66-3.54,0.92
		c-0.75,0.17-1.04-0.28-1.02-1.02C345.42,148,345.2,144.59,345.45,141.18z"/>
	<path class="st22" d="M282.44,159.37c0,7.2-0.01,13.92,0.02,20.65c0,0.97-0.18,1.28-1.23,1.02c-3.51-0.87-7.05-1.68-10.59-2.43
		c-0.97-0.2-1.25-0.62-1.25-1.57c0-5.67-0.03-11.35-0.1-17.02c-0.01-0.99,0.32-1.22,1.28-1.1c3.07,0.4,6.16,0.69,9.23,1.09
		C280.53,160.1,281.2,160.13,282.44,159.37z"/>
	<path class="st22" d="M346.66,96.43c3.97,2.2,7.93,4.41,11.92,6.57c0.72,0.39,0.84,0.9,0.82,1.6c-0.13,4.95-0.27,9.89-0.32,14.84
		c-0.01,1.2-0.41,1.31-1.4,0.97c-2.12-0.72-4.27-1.35-6.39-2.08c-1.26-0.43-2.52-0.77-3.86-0.62c-1.03,0.11-1.53-0.12-1.52-1.35
		c0.06-6.59,0.03-13.18,0.03-19.77C346.17,96.54,346.42,96.48,346.66,96.43z"/>
	<path class="st22" d="M345.02,184.78c0-5.49,0-10.79,0-16.1c0-0.33,0.03-0.66,0.06-0.99c0.1-1.17-0.51-2.7,0.3-3.4
		c0.64-0.55,2.13-0.04,3.22-0.17c2.07-0.25,3.71-1.61,5.61-2.32c1.33-0.5,2.65-1.99,3.88-1.38c0.57,0.29,0.18,2.56,0.17,3.93
		c-0.02,3.16-0.08,6.33-0.12,9.49c-0.01,0.65,0.1,1.32-0.55,1.79C353.4,178.68,349.22,181.73,345.02,184.78z"/>
	<path class="st24" d="M289.31,149.31c0.44,5.95,0.28,11.54,0.4,17.13c0.08,3.75,0.15,7.51,0.29,11.26
		c0.05,1.16-0.28,1.83-1.44,2.17c-1.26,0.37-2.5,0.84-3.7,1.37c-1.19,0.53-1.6,0.3-1.61-1.07c-0.08-6.66-0.24-13.32-0.38-19.97
		c-0.02-0.81,0.02-1.55-0.55-2.37c-0.71-1.02-0.71-2.18,0.65-3.18C285.12,153.09,287.06,151.23,289.31,149.31z"/>
	<path class="st25" d="M334.19,181.53c0-7.95-0.04-15.86,0.01-23.76c0.04-5.21,0.34-10.42,0.25-15.63
		c-0.04-2.53,1.57-1.59,2.74-1.77c1.56-0.23,1.6,0.63,1.57,1.89c-0.29,11.27-0.59,22.55-0.69,33.83c-0.02,2.25-0.54,3.77-2.61,4.68
		C334.94,181,334.47,181.35,334.19,181.53z"/>
	<path class="st26" d="M316.17,102.68c0-0.96,0-1.92,0-3.17c2.08,1.19,3.89,2.25,5.72,3.24c0.73,0.4,0.71,1,0.72,1.67
		c0.03,8.56,0.03,17.12,0.13,25.69c0.02,1.4-0.47,1.76-1.72,1.45c-0.38-0.09-0.78-0.14-1.17-0.19c-4.61-0.54-4.57-0.54-4.39-5.29
		c0.19-5.13,0.28-10.26,0.41-15.4c1.2,0.23,0.58,1.51,1.19,2.08c1.48,1.14,2.43,0.92,2.78-0.81c0.46-2.27,0.34-4.59,0.09-6.87
		c-0.17-1.59-1.05-1.89-2.49-1.09c-0.34,0.19-0.64,0.47-1.08,0.41C315.78,103.89,316.01,103.28,316.17,102.68z"/>
	<path class="st27" d="M263.49,98.95c0.71,0.82,0.45,1.57,0.45,2.24c-0.02,10.69-0.04,21.38-0.14,32.08
		c-0.01,1.45,0.23,2.27,1.89,1.97c0.32-0.06,0.66-0.02,0.99,0.03c1.68,0.24,4.03-0.75,4.89,0.46c0.86,1.21,0.29,3.43,0.42,5.2
		c0.07,1.04-0.3,1.43-1.35,1.37c-2.7-0.14-5.4-0.28-8.1-0.31c-1.13-0.01-1.07-0.62-1.05-1.39c0.11-6.27-0.78-12.75,0.54-18.75
		c1.64-7.48,0.45-14.85,1.13-22.22C263.16,99.46,263.3,99.31,263.49,98.95z"/>
	<path class="st26" d="M315.06,139.24c-2.18,0-4.35-0.03-6.53,0.01c-1,0.02-1.59-0.13-1.48-1.39c0.09-0.97,0.09-1.74,1.36-1.48
		c1.43,0.29,1.41-0.58,1.41-1.6c0.01-3.05,0.04-3.18,3.01-3.08c3.15,0.11,6.3,0.52,9.45,0.77c0.79,0.06,1.01,0.45,0.97,1.15
		c-0.07,1.58-0.16,3.16-0.17,4.74c-0.01,0.99-0.62,0.99-1.31,0.98c-2.24-0.01-4.48,0-6.72,0
		C315.06,139.3,315.06,139.27,315.06,139.24z"/>
	<path class="st25" d="M268.58,172.03c-0.14,1.23,0.66,3.34-0.32,4.07c-0.87,0.64-2.85-0.21-4.34-0.4c-0.52-0.07-1.05-0.11-1.57-0.2
		c-3.07-0.56-4.36-2.14-4.31-5.29c0.02-1.51-0.44-3.48,0.32-4.41c0.69-0.84,2.69,0.19,4.12,0.29c0.33,0.02,0.66,0.04,0.99,0.07
		C268.58,166.61,268.58,166.61,268.58,172.03z"/>
	<path class="st27" d="M349.17,118.63c3.57,1.12,7.14,2.25,10.71,3.36c0.67,0.21,1.2,0.39,1.17,1.28c-0.06,1.58-0.05,3.16-0.01,4.74
		c0.02,0.87-0.42,0.97-1.11,0.85c-3.61-0.65-7.23-1.3-10.84-1.94C348.25,124.14,348.12,121.38,349.17,118.63z"/>
	<path class="st27" d="M288.6,148.73c-2.28,1.97-4.56,3.94-6.85,5.89c-0.24,0.2-0.58,0.43-0.86,0.41c-4.09-0.3-8.18-0.64-12.37-1.41
		c2.39-1.71,4.77-3.44,7.19-5.1c0.34-0.23,0.87-0.25,1.31-0.25c3.8-0.02,7.61-0.01,11.41-0.01
		C288.5,148.41,288.55,148.57,288.6,148.73z"/>
	<path class="st25" d="M349.5,153.09c3.31-0.58,6.42-1.88,9.62-2.85c1.33-0.4,1.46-0.19,1.65,1.2c0.57,4.1-1.1,6.25-5.02,7.22
		c-2.01,0.5-3.88,1.59-5.81,2.41c-1.27,0.28-1.25-0.63-1.2-1.4c0.12-1.99,0.29-3.99,0.14-5.99
		C348.95,153.35,349.2,153.2,349.5,153.09z"/>
	<path class="st23" d="M305.51,159.79c0,3.09-0.1,6.18,0.04,9.27c0.07,1.67-0.65,1.51-1.86,1.38c-2.58-0.29-4.77-1.85-7.34-2.12
		c-1.5-0.16-2.99-0.44-4.49-0.59c-2.33-0.22-1.11-1.97-1.29-3.04c-0.23-1.4,0.96-0.92,1.62-0.87c3.8,0.27,7.61,0.55,11.4,0.94
		c1.21,0.12,1.66-0.11,1.55-1.39c-0.1-1.17,0.01-2.36,0.02-3.55C305.27,159.62,305.38,159.61,305.51,159.79z"/>
	<path class="st28" d="M302.4,127.28c0-10.52,0-21.04,0-31.77c2.12,0.73,4.09,1.42,6.06,2.08c0.55,0.18,0.68,0.57,0.64,1.07
		c-0.04,0.58-0.5,0.49-0.87,0.55c-0.65,0.11-1.3,0.21-1.95,0.29c-3.02,0.38-3.03,0.38-3.1,3.49c-0.17,8.1-0.34,16.19-0.51,24.29
		C302.58,127.48,302.49,127.47,302.4,127.28z"/>
	<path class="st28" d="M279.97,158.61c-3.37-0.29-6.57-0.55-9.77-0.85c-0.51-0.05-1.04-0.23-1.47-0.49
		c-0.68-0.41-0.87-1.23-0.79-1.88c0.11-0.9,0.96-0.41,1.44-0.37c3.47,0.24,6.93,0.6,10.39,0.8c1.61,0.1,1.5,1.33,1.54,2.24
		C281.36,159.18,280.28,158.29,279.97,158.61z"/>
	<path class="st26" d="M348.76,161.43c-0.1,0.08-0.2,0.2-0.31,0.22c-3.23,0.58-3.31,0.51-3.32-2.68c0-1.84,0-3.68,0-5.52
		c1.23-0.28,2.45-0.34,3.67,0.04C349.37,156.14,348.94,158.78,348.76,161.43z"/>
	<path class="st27" d="M348.7,126.91c-3.48,0.41-2.8,0.29-2.8-2.59c0-1.05-0.03-2.11,0-3.16c0.09-2.85-0.63-2.69,2.77-2.57
		C349.04,121.36,349.01,124.13,348.7,126.91z"/>
	<path class="st29" d="M302.7,132.08c1.63-0.04,3.27-0.03,4.9-0.15c1.04-0.08,1.7,0.07,1.44,1.32c-0.2,0.98,0.58,2.62-1.56,2.29
		c-0.77-0.12-1.56-0.2-2.34-0.25c-2.97-0.18-2.97-0.17-2.68-3.19C302.54,132.09,302.62,132.09,302.7,132.08z"/>
	<path class="st30" d="M258.38,143.24c3.42-0.85,6.68-0.34,9.92-0.25c2.23,0.06,4.46,0.13,6.7,0.2c0.54,0.02,1.08,0.06,1.11,0.8
		c0.03,0.71-0.47,0.68-0.94,0.65c-5.37-0.35-10.73-0.71-16.1-1.07C258.9,143.57,258.74,143.42,258.38,143.24z"/>
	<path class="st31" d="M258.16,162.22c0.38-1.26,1-0.93,1.46-0.9c2.5,0.15,4.99,0.39,7.5,0.47c1.27,0.04,1.55,0.61,1.48,1.74
		c-0.09,1.53-1.06,0.75-1.71,0.69c-1.44-0.13-2.88-0.31-4.31-0.54c-0.86-0.14-1.8-0.09-2.22-1.25
		C260.04,161.54,259.13,161.75,258.16,162.22z"/>
	<path class="st32" d="M313.05,97.62c2.2-0.9,4.6-0.93,6.87-1.5c0.86-0.22,0.81,0.45,0.8,0.95c-0.02,1.18-0.09,2.36-0.15,3.66
		c-2.27-0.44-3.8-2.74-6.28-2.33C313.63,98.53,312.73,99.02,313.05,97.62z"/>
	<path class="st33" d="M344.7,94.71c-5.34,0-10.68,0-16.28,0c5.55-1.27,10.9-1.21,16.27-0.56C344.69,94.34,344.69,94.53,344.7,94.71
		z"/>
	<path class="st34" d="M322.92,102.37c-0.55-0.47-1.59-0.45-1.51-1.55c0.11-1.5,0.15-3.01,0.32-4.5c0.04-0.34,0.55-0.15,0.86-0.08
		c0.53,0.12,1.06,0.25,1.07,0.93c0.02,0.92,0.01,1.84,0.01,2.76C323.13,100.66,324.21,101.88,322.92,102.37z"/>
	<path class="st35" d="M278.71,145.46c-0.36,0-0.71,0-1.07,0c0.01-2.9,0.02-5.81,0.05-8.71c0.01-0.41-0.23-1.06,0.44-1.12
		c0.83-0.08,0.67,0.65,0.67,1.13C278.79,139.66,278.75,142.56,278.71,145.46z"/>
	<path class="st36" d="M305.51,159.79c-0.12,0-0.23,0-0.35,0.02c0.01-4.19,0.02-8.39,0.05-12.58c0-0.15,0.06-0.42,0.53-0.31
		c0.32,0.31,0.2,0.84,0.17,1.31C305.71,152.09,306.2,155.96,305.51,159.79z"/>
	<path class="st37" d="M348.71,153.45c-1.19-0.19-2.38-0.2-3.58,0c1.06-0.94,2.43-0.02,3.56-0.59c-3.58-0.5-3.65-0.5-3.56-4.27
		c0.06-2.47-0.37-4.97,0.32-7.41c-0.01,3.16,0.01,6.33-0.06,9.49c-0.03,1.29,0.17,1.82,1.63,1.31c0.89-0.31,1.85-0.75,2.88-0.47
		c0,0-0.02-0.05-0.02-0.05c0.14,0.66-0.18,0.64-0.64,0.44c0.05,0.39,0.6,0.05,0.65,0.44c-0.13,0.25-0.26,0.5-0.4,0.75
		c-0.13,0.13-0.25,0.25-0.38,0.38C348.97,153.65,348.84,153.65,348.71,153.45z"/>
	<path class="st38" d="M352.66,181.18c-2.57,1.98-5.13,3.96-7.89,6.09c0.27-1.59,2.6-3.55,7.41-6.52
		C352.6,180.6,352.71,180.81,352.66,181.18z"/>
	<path class="st39" d="M266.69,165.68c-2.36,0.08-4.63-0.58-6.96-0.79c-0.86-0.08-1.12-0.84-0.88-1.65
		c0.11-0.38,0.53-0.81,0.81-0.27c1.14,2.17,3.35,1.31,5.05,1.85c0.91,0.29,1.96,0.02,2.87,0.48
		C267.38,165.65,266.94,165.45,266.69,165.68z"/>
	<path class="st40" d="M303.41,171.74c-1.96-0.08-3.87-0.38-5.58-1.42c-0.81-0.49-1.71-0.55-2.61-0.66c0.01-0.77,0.5-0.49,0.9-0.4
		c2.86,0.17,5.31,1.96,8.18,2.11C304.27,172.11,303.8,171.82,303.41,171.74z"/>
	<path class="st41" d="M316.6,113.04c-0.82-0.6-0.08-1.69-0.73-2.35c-0.05-2.68-0.16-5.36,0.3-8.01c0.23,0.52-0.13,1.18,0.41,1.62
		C316.99,107.22,317.83,110.13,316.6,113.04z"/>
	<path class="st42" d="M348.71,153.45c0.14,0.01,0.27,0.02,0.41,0.02c0.53,2,0.14,4.03,0.15,6.04c0,0.63-0.32,1.36,0.67,1.56
		c-0.29,0.45-0.74,0.36-1.17,0.35C348.75,158.77,348.73,156.11,348.71,153.45z"/>
	<path class="st43" d="M352.66,181.18c-0.16-0.14-0.32-0.29-0.48-0.43c1.44-1.06,2.88-2.12,4.32-3.18c0.43-0.23,0.49,0.05,0.51,0.38
		C355.56,179.02,354.11,180.1,352.66,181.18z"/>
	<path class="st44" d="M296.12,169.25c-0.3,0.13-0.6,0.27-0.9,0.4c-1.55-0.22-3.15-0.14-4.6-0.92
		C292.51,168.48,294.33,168.75,296.12,169.25z"/>
	<path class="st45" d="M313.05,97.62c0.04,0.85,0.73,0.67,1.24,0.79c-1.09,0.59-2.33,0.27-3.48,0.56c-0.38,0.1-0.84,0.09-0.86-0.49
		c-0.01-0.55,0.48-0.51,0.84-0.63C311.53,97.61,312.35,98.28,313.05,97.62z"/>
	<path class="st46" d="M269.99,96.87c-1.64,0.22-3.27,0.45-4.91,0.67c-0.36-0.33-0.95,0.06-1.27-0.4c1.72-0.52,3.51-0.46,5.27-0.68
		C269.33,96.69,269.8,96.47,269.99,96.87z"/>
	<path class="st47" d="M323.38,112.21c0-2.77,0.01-5.54,0.01-8.31c0.1-0.16,0.19-0.15,0.29,0c0,2.77,0.01,5.54,0.01,8.31
		C323.59,112.41,323.49,112.43,323.38,112.21z"/>
	<path class="st48" d="M348.7,126.91c-0.01-2.77-0.01-5.54-0.02-8.31c0.16,0.01,0.32,0.02,0.48,0.03c-0.02,2.76-0.05,5.52-0.07,8.28
		l-0.2,0.01L348.7,126.91z"/>
	<path class="st49" d="M323.38,112.21c0.1,0.02,0.21,0.02,0.31,0c0,2.5,0,4.99,0,7.49c-0.1,0-0.21,0-0.31,0.01
		C323.38,117.2,323.38,114.7,323.38,112.21z"/>
	<path class="st50" d="M318.64,95.06c-0.52,0.14-0.83,0.04-0.84-0.5c-0.02-0.71,0.54-0.84,1.04-0.87c0.57-0.04,1.39,0.08,1.34,0.7
		C320.09,95.2,319.07,94.73,318.64,95.06z"/>
	<path class="st51" d="M317.82,92.52c-0.22-0.08-0.71-0.17-0.55-0.32c0.88-0.84,2.7-0.5,3.64,0.59
		C319.85,92.94,318.9,92.05,317.82,92.52z"/>
	<path class="st22" d="M264.77,114.61c0.33-0.17,0.66-0.33,0.99-0.5c0.36,0.72,0.4,1.45-0.01,2.18c-0.33-0.29-0.65-0.58-0.97-0.87
		C264.77,115.15,264.77,114.88,264.77,114.61z"/>
	<path class="st52" d="M269.99,96.87c-0.31-0.14-0.61-0.28-0.92-0.42c1.19-0.13,2.38-0.25,3.58-0.38c0.17,0.11,0.41,0.14,0.46,0.39
		C272.11,96.94,271.04,96.81,269.99,96.87z"/>
	<path class="st53" d="M302.7,132.08l-0.12,0.05l-0.12-0.02c-0.02-1.61-0.04-3.22-0.06-4.82c0.09,0.01,0.18,0.01,0.28,0
		C302.68,128.88,302.69,130.48,302.7,132.08z"/>
	<path class="st54" d="M354.21,150.23c0.82-0.23,1.64-0.46,2.46-0.69c0.25,1.46-1.1,0.83-1.64,1.26
		C354.61,150.81,354.32,150.65,354.21,150.23z"/>
	<path class="st55" d="M323.68,103.89l-0.14,0.01c0,0-0.14-0.01-0.14-0.01c-0.04-0.55-0.1-1.08-0.48-1.52
		c1-0.58,0.12-1.74,0.75-2.44C323.89,101.25,323.77,102.57,323.68,103.89z"/>
	<path class="st56" d="M276.64,96.07c-0.51,0.4-1.09,0.37-1.68,0.28c-0.21-0.25-0.66-0.04-0.81-0.4c0.64-0.42,1.35-0.38,2.07-0.3
		C276.36,95.78,276.62,95.81,276.64,96.07z"/>
	<path class="st57" d="M290.14,94.07c-0.76,0.91-1.52,0.71-2.58,0.76C288.45,94.02,289.16,94,290.14,94.07z"/>
	<path class="st58" d="M298.35,93.3c0.69-0.56,1.18-0.66,1.69-0.1C299.58,93.88,299.06,93.68,298.35,93.3z"/>
	<path class="st59" d="M263.8,97.13c0.43,0.11,0.95-0.05,1.27,0.4c-0.9,0.1-1.8,0.2-3.2,0.36C262.7,96.97,263.29,97.17,263.8,97.13z
		"/>
	<path class="st60" d="M294.62,93.66c0.65-0.14,1.29-0.27,2.31-0.49C296.1,94.12,295.38,93.98,294.62,93.66z"/>
	<path class="st61" d="M291.1,94.35c0.95-0.61,1.59-0.78,2.49-0.59C292.87,94.32,292.21,94.41,291.1,94.35z"/>
	<path class="st62" d="M279.82,95.65c-0.51,0.38-1.09,0.37-1.68,0.29c-0.13-0.13-0.39-0.12-0.41-0.37c0.51-0.34,1.08-0.35,1.66-0.3
		C279.54,95.39,279.78,95.41,279.82,95.65z"/>
	<path class="st63" d="M283.03,95.24c-0.39,0.39-0.86,0.38-1.35,0.29c-0.18-0.07-0.31-0.2-0.39-0.37c0.51-0.4,1.09-0.38,1.68-0.26
		c0.08,0.07,0.12,0.14,0.11,0.22C283.07,95.2,283.05,95.24,283.03,95.24z"/>
	<path class="st64" d="M284.9,94.77c0.36-0.38,0.75-0.47,1.16-0.1c0.08,0.07,0.12,0.32,0.09,0.34c-0.4,0.27-0.84,0.23-1.28,0.13
		c-0.11-0.09-0.15-0.18-0.1-0.26C284.82,94.81,284.86,94.77,284.9,94.77z"/>
	<path class="st3" d="M354.21,150.23c0.27,0.19,0.54,0.38,0.82,0.56c-0.71,0.69-1.32-0.16-1.99-0.13
		C353.28,150.15,353.8,150.33,354.21,150.23z"/>
	<path class="st65" d="M303.41,171.74c0.29-0.13,0.59-0.25,0.88-0.38c0.39,0,0.79-0.01,1.02,0.49
		C304.65,172.29,304.03,172.08,303.41,171.74z"/>
	<path class="st66" d="M349.9,152.34c-0.35-0.1-0.78,0.15-1.08-0.2c0.21-0.46,0.95-0.09,1.07-0.68c0.23,0.12,0.69-0.09,0.69,0.37
		C350.57,152.21,350.16,152.21,349.9,152.34z"/>
	<path class="st67" d="M303.28,93.09c-1.04,0.14-1.67,0.23-2.38-0.04C301.63,92.67,302.27,92.7,303.28,93.09z"/>
	<path class="st68" d="M274.15,95.94c0.27,0.13,0.54,0.27,0.81,0.4c-0.62,0.04-1.24,0.08-1.85,0.11c-0.15-0.13-0.31-0.26-0.46-0.39
		C273.15,96.03,273.65,95.98,274.15,95.94z"/>
	<path class="st22" d="M284.9,94.77c-0.02,0.12-0.03,0.25-0.03,0.37c-0.61,0.03-1.23,0.06-1.84,0.09c0-0.12-0.02-0.24-0.06-0.35
		C283.61,94.85,284.26,94.81,284.9,94.77z"/>
	<path class="st69" d="M281.29,95.15c0.13,0.12,0.26,0.25,0.39,0.37c-0.62,0.04-1.24,0.08-1.87,0.13c-0.14-0.13-0.28-0.26-0.43-0.38
		C280.02,95.23,280.66,95.19,281.29,95.15z"/>
	<path class="st70" d="M357.43,176.87c0.32-0.27,0.72-0.84,1.05-0.45c0.42,0.5-0.3,0.62-0.61,0.84
		C357.47,177.42,357.39,177.21,357.43,176.87z"/>
	<path class="st71" d="M357.43,176.87c0.15,0.13,0.3,0.26,0.44,0.39c-0.29,0.23-0.58,0.46-0.86,0.69c-0.17-0.13-0.34-0.25-0.51-0.38
		C356.81,177.33,357.12,177.1,357.43,176.87z"/>
	<path class="st72" d="M298.24,94.21c0.6-0.26,0.98-0.22,1.46-0.01C299.18,94.49,298.78,94.48,298.24,94.21z"/>
	<path class="st73" d="M277.73,95.57c0.14,0.12,0.27,0.25,0.41,0.37c-0.5,0.04-1,0.09-1.5,0.13c-0.14-0.14-0.28-0.28-0.42-0.42
		C276.72,95.62,277.23,95.59,277.73,95.57z"/>
	<path class="st74" d="M266.69,165.68c0.3-0.13,0.59-0.26,0.89-0.39c0.24,0.05,0.63,0.03,0.68,0.15c0.13,0.34-0.19,0.38-0.44,0.37
		C267.44,165.79,267.06,165.73,266.69,165.68z"/>
	<path class="st0" d="M388.26,159.45c-11.14,0.04-20.31,9.27-20.38,20.52c-0.07,11.3,9.31,20.62,20.7,20.59
		c11.31-0.04,20.47-9.29,20.42-20.62C408.94,168.46,399.78,159.41,388.26,159.45z M404.53,179.31c-4.16,1.29-8.39,2.16-13.06,2.61
		c1.77-4.2,3.47-8.15,5.07-12.14c0.21-0.52,1.15-1.19,0.1-1.85c-0.12,0.07-0.24,0.14-0.36,0.21c-1.72,2.61-3.56,5.12-5.59,7.5l0,0
		c-1.35,1.86-2.72,3.7-4.03,5.59c-0.48,0.7-1.06,0.83-1.85,0.78c-4.23-0.24-8.33-1.07-12.28-2.64c-0.93-0.37-1.32-0.78-1.15-1.88
		c1.59-10.24,11.65-16.77,21.69-14.03c7.02,2.18,11.14,6.91,12.43,14.15C405.69,178.57,405.54,178.99,404.53,179.31z"/>
	<path class="st0" d="M396.35,167.11c-0.07-0.04-0.26,0.02-0.31,0.1c-0.27,0.4-0.09,0.69,0.25,0.93c0-0.27,0.11-0.36,0.36-0.21
		C396.61,167.63,396.69,167.28,396.35,167.11z"/>
	<path class="st0" d="M453.85,135.69c-1.76-0.07-3.52,0.24-5.32,0.05c-0.52-0.05-1.05,0.25-1.73-0.06
		c-0.71-0.32-1.54-0.18-1.43,1.08c0.11,1.24,0.02,2.5,0.02,3.75c0,1.05-0.08,2.12,0.03,3.16c0.07,0.67-0.67,1.83,0.91,1.87
		c1.74,0.04,0.95-1.24,1.01-1.96c0.11-1.44,0.01-2.9,0.05-4.34c0.02-0.71-0.02-1.6,0.99-1.63c1.07-0.03,0.97,0.86,0.98,1.58
		c0.01,1.71,0.02,3.43,0,5.14c-0.01,0.72-0.01,1.24,1,1.24c1.01,0.01,1-0.53,1-1.24c-0.01-1.84-0.01-3.69,0.03-5.53
		c0.02-0.61,0.23-1.23,1.01-1.21c0.78,0.02,0.93,0.61,0.93,1.25c0,1.84,0.03,3.69-0.01,5.53c-0.02,0.78,0.1,1.21,1.05,1.19
		c0.85-0.02,0.95-0.41,0.95-1.1c-0.02-2.24-0.01-4.48-0.01-6.72C455.3,136.7,454.85,135.73,453.85,135.69z"/>
	<path class="st0" d="M442.23,135.67c-1.74,0.18-3.44,0.11-5.16,0.06c-0.57-0.02-1.05,0.3-1.76-0.04c-0.68-0.33-1.55-0.2-1.44,1.07
		c0.11,1.25,0.02,2.51,0.02,3.76c0,1.25,0.01,2.51,0,3.76c-0.01,0.68-0.09,1.27,0.96,1.28c0.97,0,1.05-0.45,1.04-1.21
		c-0.03-1.85-0.02-3.7,0.02-5.55c0.01-0.61,0.21-1.23,1-1.22c0.8,0.01,0.93,0.6,0.94,1.24c0.01,1.39-0.15,2.8,0.06,4.15
		c0.14,0.86-1.12,2.57,0.98,2.51c1.8-0.05,0.78-1.59,0.89-2.42c0.18-1.36,0.04-2.77,0.08-4.15c0.02-0.69,0.18-1.38,1.1-1.31
		c0.81,0.06,0.84,0.71,0.84,1.32c0.01,1.85,0.02,3.7,0,5.55c-0.01,0.7,0.12,1.1,0.96,1.08c0.75-0.01,1.06-0.2,1.04-1
		c-0.04-2.31,0-4.62-0.02-6.93C443.79,136.57,443.19,135.57,442.23,135.67z"/>
	<path class="st0" d="M421.44,133.62c0.89-0.14,1.36,0.36,1.41,1.24c0.06,1.12,0.91,0.75,1.47,0.72c0.84-0.05,0.53-0.78,0.51-1.23
		c-0.09-1.67-1.27-2.72-3-2.77c-1.83-0.05-3.16,0.93-3.32,2.67c-0.13,1.44-0.03,2.9-0.02,4.35c0,1.45-0.11,2.91,0.03,4.35
		c0.17,1.78,1.47,2.72,3.32,2.65c1.66-0.07,2.94-1.24,3.01-2.82c0.02-0.46,0.27-1.17-0.58-1.2c-0.59-0.02-1.41-0.32-1.42,0.79
		c-0.01,0.79-0.43,1.23-1.24,1.2c-0.98-0.04-1.14-0.79-1.15-1.54c-0.03-2.24-0.04-4.49,0-6.73
		C420.46,134.6,420.5,133.77,421.44,133.62z"/>
	<path class="st0" d="M432.09,140.74c0-0.92,0.09-1.85-0.02-2.76c-0.22-1.73-1.33-2.49-3.02-2.43c-1.62,0.06-2.56,0.88-2.75,2.51
		c-0.2,1.71-0.23,3.41,0,5.11c0.22,1.65,1.24,2.4,2.82,2.44c1.7,0.04,2.75-0.8,2.97-2.51c0.1-0.78,0.02-1.58,0.02-2.37
		C432.1,140.74,432.09,140.74,432.09,140.74z M430.08,140.46c0.12,0.7,0.01,1.44-0.02,2.16c-0.02,0.5-0.23,0.92-0.79,0.94
		c-0.65,0.03-0.94-0.38-0.95-0.99c-0.01-0.72,0-1.44,0-2.35c0.38-0.72-0.79-2.54,0.9-2.51
		C430.79,137.73,429.91,139.48,430.08,140.46z"/>
	<path class="st0" d="M488.78,138.32c-0.2-2.37-2.38-3.54-4.46-2.44c-0.94,0.5-1.8,1.42-1.33,2.33c0.35,0.67,1.5,0.41,2.17-0.39
		c0.31-0.36,0.85-0.38,1.25-0.03c0.38,0.34,0.37,0.82,0.32,1.29c-0.06,0.54-0.48,0.51-0.88,0.55c-0.52,0.06-1.07,0.07-1.54,0.25
		c-1.72,0.68-1.69,2.19-1.57,3.66c0.1,1.15,0.66,1.97,1.98,2.05c4.05,0.25,4.05,0.26,4.09-3.92c0-0.07,0-0.13,0-0.2
		c-0.01,0-0.01,0-0.02,0C488.8,140.43,488.87,139.37,488.78,138.32z M485.85,143.88c-0.82-0.01-1.1-0.52-1.15-1.14
		c-0.07-0.94,0.5-1.45,1.39-1.52c0.77-0.06,0.75,0.56,0.76,1.08C486.86,143.06,486.69,143.72,485.85,143.88z"/>
	<path class="st0" d="M497.74,143.15c-0.4,0.57-0.93,0.54-1.38,0.26c-0.42-0.26-0.34-0.84-0.29-1.29c0.14-1.21,1.14-0.74,1.7-0.68
		c1.74,0.19,2.5-0.4,2.13-1.96c0-0.42,0.01-0.61,0-0.81c-0.11-1.99-1.08-3.05-2.83-3.12c-1.84-0.07-2.76,0.81-3.04,2.85
		c-0.23,1.65-0.15,3.28,0.05,4.92c0.15,1.18,0.83,1.95,1.96,2.2c1.12,0.24,2.26,0.2,3.09-0.78c0.45-0.54,1.13-1.24,0.51-1.86
		C499.19,142.43,498.25,142.41,497.74,143.15z"/>
	<path class="st0" d="M468.69,135.6c-1.22-0.05-2.43,0.37-3.69,0.06c-0.71-0.17-0.58,0.53-0.58,0.96c-0.02,1.32-0.01,2.64-0.01,3.96
		c0,1.25,0.02,2.51-0.01,3.76c-0.02,0.73,0.03,1.23,1.02,1.23c1.03,0,0.98-0.57,0.98-1.26c-0.01-1.58-0.04-3.17,0.01-4.75
		c0.02-0.8-0.22-1.96,1.06-1.93c1.18,0.02,0.87,1.11,0.89,1.84c0.04,1.71,0.05,3.43,0,5.15c-0.03,0.87,0.43,0.92,1.1,0.93
		c0.7,0.01,0.91-0.26,0.9-0.93c-0.03-2.37,0.02-4.75-0.03-7.12C470.31,136.47,469.78,135.65,468.69,135.6z"/>
	<path class="st0" d="M462.83,136.83c0.01-0.72,0-1.24-1-1.24c-1,0-1,0.53-0.99,1.24c0.02,1.78,0.01,3.55,0,5.33
		c0,0.68-0.04,1.43-0.97,1.39c-0.86-0.03-1-0.72-1-1.43c0-1.78-0.02-3.55,0.01-5.33c0.01-0.75-0.06-1.24-1.03-1.21
		c-0.82,0.03-0.98,0.36-0.97,1.07c0.03,2.24-0.02,4.48,0.04,6.71c0.02,1.04,0.41,2.13,1.59,2.14c1.24,0.01,2.48-0.25,3.74-0.03
		c0.73,0.13,0.57-0.55,0.57-0.97c0.02-1.25,0.01-2.5,0.01-3.75C462.82,139.46,462.81,138.15,462.83,136.83z"/>
	<path class="st0" d="M478.68,137.67c0.6-0.23,0.96,0.06,1.25,0.61c0.41,0.77,1.22,0.62,1.7,0.3c0.56-0.37,0.24-1.06-0.04-1.59
		c-0.64-1.22-1.71-1.52-2.99-1.42c-1.27,0.1-2.12,0.78-2.4,1.98c-0.22,0.95-0.23,1.95-0.33,2.92c0.11,1.07,0.12,2.13,0.33,3.15
		c0.24,1.13,1.02,1.82,2.2,1.96c1.24,0.15,2.37-0.05,3.11-1.22c0.29-0.46,0.6-1,0.26-1.45c-0.34-0.45-1.01-0.32-1.48-0.16
		c-2.18,0.74-2.17,0.76-2.18-1.55c0-0.72-0.02-1.45,0.01-2.17C478.13,138.51,478.06,137.91,478.68,137.67z"/>
	<path class="st0" d="M493.21,135.83c-1.37-0.27-1.1-1.23-1.05-2.07c0.05-0.84-0.21-1.14-1.09-1.15c-0.89-0.01-0.88,0.45-0.93,1.1
		c-0.06,0.74,0.49,1.72-0.77,2.09c-0.4,0.12-0.33,0.93-0.13,1.04c1.7,0.9,0.59,2.45,0.93,3.51c0,1.06-0.04,1.98,0.01,2.9
		c0.06,1.08,0.56,1.92,1.65,2.2c0.5,0.13,1.27,0.45,1.52-0.31c0.16-0.48,0.19-1.04-0.41-1.56c-1.3-1.13-1.12-5.22,0.16-6.41
		C493.55,136.74,493.6,135.9,493.21,135.83z"/>
	<path class="st0" d="M473.02,135.6c-0.89-0.01-1.13,0.31-1.1,1.15c0.06,1.25,0.01,2.5,0.01,3.75c0,1.31,0.01,2.63-0.01,3.94
		c-0.01,0.65,0.01,1.11,0.91,1.12c0.89,0.01,1.11-0.31,1.1-1.14c-0.04-2.56-0.02-5.13-0.01-7.69
		C473.93,136.08,473.9,135.61,473.02,135.6z"/>
	<path class="st0" d="M472.88,131.64c-0.81-0.02-0.95,0.34-0.97,1.05c-0.02,0.81,0.32,1.05,1.05,0.94c0.82,0.13,0.96-0.31,0.98-1.02
		C473.96,131.79,473.59,131.66,472.88,131.64z"/>
	<path class="st75" d="M497.89,138.53c0.06,0.96-0.26,1.3-1.02,1.29c-0.72-0.01-0.86-0.42-0.84-1.02c0.01-0.64,0.11-1.21,0.9-1.24
		C497.74,137.54,497.83,138.16,497.89,138.53z"/>
	<path class="st0" d="M412.34,79.2c-10.55,4.44-19.06,11.45-25.72,20.7c-1.04,1.44-1.69,1.78-3.37,0.89
		c-3.72-1.96-7.68-3.28-12.46-2.71c6.73,3.71,12.26,8.13,16.06,14.99c1.7-8.04,5.67-14.26,10.67-19.92
		c5.01-5.67,10.98-10.19,17.43-14.37C413.79,78.28,413.07,78.89,412.34,79.2z"/>
	<path class="st0" d="M442.07,96.02c-0.7-0.08-1.41-0.19-1.58,0.91c-0.23,1.48-0.65,2.92-1,4.38c-0.11,0.02-0.21,0.03-0.31,0.05
		c-0.27-1.15-0.68-2.29-0.78-3.46c-0.14-1.6-0.85-2.16-2.4-1.94c-0.48,0.07-1.3,0.38-1.34-0.62c-0.03-0.62-0.23-1.32,0.83-1.41
		c0.86-0.08,0.63-0.88,0.56-1.42c-0.1-0.66-0.7-0.46-1.12-0.47c-0.78-0.02-1.38,0.32-1.86,0.94c-0.84,1.1,0.06,2.89-1.48,3.73
		c-0.06,0.03,0.05,0.65,0.17,0.68c1.35,0.38,0.81,1.47,0.84,2.28c0.07,1.65,0.02,3.3,0.02,4.94c0,0.65-0.14,1.3,0.93,1.31
		c1.12,0.01,1.09-0.61,1.08-1.39c-0.02-1.85-0.04-3.69,0.01-5.54c0.01-0.5-0.36-1.24,0.58-1.41c0.82-0.14,1.19,0.27,1.39,1.01
		c0.56,2.1,1.25,4.17,1.71,6.28c0.26,1.19,0.34,2.52-1.24,3.07c-0.82,0.28-0.53,1-0.44,1.51c0.12,0.64,0.75,0.43,1.15,0.36
		c1.26-0.22,1.85-1.1,2.13-2.29c0.82-3.39,1.7-6.77,2.5-10.16C442.54,96.95,443.18,96.15,442.07,96.02z"/>
	<path class="st0" d="M414.63,92.03c-0.95-0.13-1.4,0.19-1.52,1.21c-0.29,2.35-0.71,4.67-1.08,7.01c0.02,0.41,0.29,1.11-0.38,0.99
		c-0.56-0.09-0.35-0.84-0.29-1.34c-0.36-2.27-0.77-4.54-1.04-6.82c-0.14-1.17-0.84-1.17-1.65-1.05c-1.06,0.16-0.47,0.96-0.39,1.39
		c0.72,3.74,1.51,7.47,2.27,11.21c0.13,0.65,0.16,1.28,1.13,1.29c0.92,0.01,1.06-0.52,1.2-1.21c0.75-3.73,1.55-7.46,2.27-11.2
		C415.24,93.02,415.81,92.19,414.63,92.03z"/>
	<path class="st0" d="M419.93,101.79c1.58,0.16,2.18-0.43,1.92-1.98c-0.07-0.45,0-0.92-0.06-1.38c-0.25-1.72-1.31-2.52-2.99-2.5
		c-1.6,0.02-2.6,0.82-2.79,2.46c-0.1,0.85-0.15,1.7-0.22,2.56c0.07,0.85,0.14,1.7,0.2,2.56c0.09,1.18,0.69,2.03,1.8,2.34
		c1.1,0.31,2.23,0.29,3.14-0.6c0.53-0.52,1.17-1.27,0.73-1.86c-0.45-0.61-1.41-0.64-2.01,0.16c-0.4,0.54-0.92,0.55-1.37,0.22
		c-0.48-0.36-0.4-1.03-0.24-1.47C418.38,101.35,419.32,101.73,419.93,101.79z M418.9,97.94c0.81,0,0.86,0.65,0.93,1.02
		c0.09,1-0.32,1.25-1.05,1.25c-0.76,0-0.82-0.47-0.82-1.04C417.98,98.52,418.1,97.95,418.9,97.94z"/>
	<path class="st0" d="M427.88,96.68c0.04-0.46-0.22-0.9-0.66-0.68c-1.09,0.56-2.1,0.39-3.19,0.03c-0.69-0.23-0.86,0.29-0.85,0.91
		c0.03,1.31,0.01,2.63,0.01,3.94c0,1.31,0.02,2.63-0.01,3.94c-0.01,0.67,0.07,1.09,0.93,1.11c0.92,0.02,1.11-0.35,1.08-1.16
		c-0.05-1.25-0.01-2.5-0.02-3.75c-0.01-1.54,0.13-2.95,2.15-3.12C428.15,97.84,427.84,97.15,427.88,96.68z"/>
	<path class="st0" d="M430.33,100.81c0-1.05,0.05-2.11-0.02-3.15c-0.04-0.65,0.5-1.64-0.92-1.68c-1.38-0.04-1.03,0.87-1.04,1.58
		c-0.02,2.23-0.04,4.47,0.01,6.7c0.02,0.65-0.49,1.64,0.92,1.67c1.57,0.04,0.97-1.07,1.02-1.77
		C430.39,103.04,430.33,101.92,430.33,100.81z"/>
	<path class="st0" d="M429.34,94.04c0.77,0,1.02-0.25,1.01-1.02c0-0.76-0.23-1.11-1.01-0.98c-0.78-0.13-1.01,0.22-1.02,0.98
		C428.32,93.79,428.58,94.04,429.34,94.04z"/>
	<path class="st0" d="M412.02,100.25c-0.22-0.11-0.44-0.23-0.67-0.34C411.55,100.08,411.47,100.79,412.02,100.25z"/>
	<path class="st0" d="M423.74,173.66c-0.92-0.13-1.43,0.19-1.72,1.12c-0.6,1.93-1.31,3.83-2.12,6.18c-0.87-2.5-1.6-4.47-2.23-6.47
		c-0.27-0.86-0.86-0.83-1.54-0.84c-0.97-0.01-0.79,0.68-0.79,1.24c-0.01,3.76,0,7.51-0.01,11.27c0,0.75-0.08,1.4,1.06,1.41
		c1.11,0,1.11-0.59,1.1-1.38c-0.02-1.85-0.01-3.7-0.01-5.55c0.81,1.14,1.2,2.3,1.61,3.45c0.15,0.41,0.16,0.97,0.8,0.97
		c0.63,0,0.68-0.55,0.82-0.95c0.49-1.38,0.94-2.76,1.41-4.15c0.28,1.99,0.24,3.9,0.3,5.81c0.02,0.7-0.56,1.81,1.02,1.78
		c1.43-0.03,0.91-1.03,0.92-1.68c0.04-3.56,0.04-7.12,0-10.67C424.36,174.68,424.87,173.82,423.74,173.66z"/>
	<path class="st0" d="M438.88,183.79c0.01-0.06,0-0.13,0-0.2c0,0,0,0-0.01,0c0-1.05,0.06-2.11-0.01-3.16
		c-0.16-2.24-1.91-3.45-4.01-2.75c-1.16,0.38-2.23,1.35-1.81,2.42c0.38,0.94,1.54,0.39,2.26-0.32c0.31-0.3,0.75-0.29,1.1-0.05
		c0.43,0.29,0.43,0.78,0.41,1.25c-0.02,0.67-0.52,0.63-0.98,0.67c-0.46,0.03-0.94,0.04-1.36,0.19c-1.74,0.63-1.77,2.13-1.69,3.6
		c0.07,1.15,0.61,2.22,1.88,2.1c1.26-0.12,2.74,0.37,3.68-0.15C439.59,186.71,438.58,185.01,438.88,183.79z M435.84,185.86
		c-0.75,0.05-1.03-0.51-1.06-1.13c-0.06-0.95,0.5-1.45,1.4-1.51c0.78-0.05,0.7,0.58,0.76,1.1
		C436.91,185.06,436.79,185.79,435.84,185.86z"/>
	<path class="st0" d="M464.06,185.12c-0.47,0.61-1.03,0.68-1.47,0.14c-0.37-0.46-0.43-1.2-0.01-1.64c0.42-0.44,1.13-0.26,1.69-0.19
		c1.5,0.16,2.24-0.33,1.96-1.94c-0.09-0.51-0.01-1.06-0.1-1.57c-0.28-1.62-1.31-2.36-2.91-2.35c-1.61,0.01-2.61,0.79-2.84,2.41
		c-0.12,0.84-0.14,1.7-0.21,2.66c0.07,0.82,0.13,1.74,0.22,2.65c0.12,1.19,0.81,1.97,1.92,2.23c1.11,0.26,2.25,0.23,3.1-0.74
		c0.47-0.54,1.13-1.23,0.54-1.86C465.5,184.42,464.6,184.42,464.06,185.12z M463.39,179.58c0.81,0.08,0.77,0.76,0.84,1.11
		c0.04,0.9-0.32,1.12-0.96,1.14c-0.87,0.02-0.93-0.5-0.91-1.15C462.38,180,462.6,179.5,463.39,179.58z"/>
	<path class="st0" d="M429.7,183.42c1.69,0.27,2.26-0.47,2.05-2.06c-0.06-0.45,0.03-0.93-0.05-1.38c-0.3-1.69-1.37-2.49-3.06-2.43
		c-1.61,0.06-2.57,0.89-2.74,2.52c-0.08,0.78-0.12,1.57-0.19,2.53c0.06,0.75,0.13,1.67,0.19,2.58c0.08,1.11,0.67,1.89,1.68,2.22
		c1.09,0.36,2.22,0.37,3.17-0.46c0.61-0.53,1.29-1.35,0.81-2.02c-0.42-0.58-1.4-0.52-2.03,0.25c-0.45,0.55-1.09,0.6-1.46-0.01
		c-0.29-0.48-0.4-1.25,0.13-1.62C428.55,183.32,429.2,183.34,429.7,183.42z M427.88,180.8c0.02-0.63,0.09-1.23,0.91-1.23
		c0.79,0,0.93,0.58,0.97,1.21c0.08,0.77-0.3,1.05-1.04,1.05C427.98,181.82,427.86,181.4,427.88,180.8z"/>
	<path class="st0" d="M453.29,184.73c0.12-0.64,0.02-1.31,0.02-1.97c0-1.32-0.02-2.63,0.01-3.95c0.02-0.75-0.05-1.22-1.03-1.21
		c-1.03,0.01-0.98,0.58-0.97,1.27c0.01,1.71,0.02,3.42,0,5.13c-0.01,0.71,0.08,1.61-1,1.55c-0.99-0.05-0.97-0.9-0.97-1.64
		c-0.01-1.78-0.03-3.55,0.01-5.33c0.02-0.82-0.34-0.99-1.06-0.97c-0.65,0.01-0.95,0.19-0.94,0.89c0.04,2.37-0.07,4.74,0.07,7.1
		c0.1,1.68,1.33,2.36,2.96,1.85c0.24-0.08,0.54-0.45,0.66-0.38C454.38,188.78,453.06,185.95,453.29,184.73z"/>
	<path class="st0" d="M444.89,182.15c-0.56-0.33-1.2-0.53-1.79-0.81c-0.59-0.28-1.02-0.71-0.6-1.39c0.4-0.63,1.07-0.68,1.48-0.13
		c0.63,0.84,1.34,0.58,2.1,0.46c-0.47-2.26-1.82-3.2-3.7-2.62c-1.57,0.49-2.38,2.23-1.78,3.83c0.41,1.12,1.38,1.51,2.38,1.87
		c0.63,0.23,1.27,0.46,1.3,1.28c0.02,0.43-0.15,0.78-0.57,0.94c-0.66,0.25-1.07-0.04-1.49-0.57c-0.48-0.6-1.29-0.52-1.75-0.1
		c-0.42,0.39,0.05,0.99,0.31,1.42c0.7,1.17,1.83,1.43,3.08,1.23c1.32-0.21,2.09-1.06,2.31-2.36
		C446.39,183.94,446.06,182.83,444.89,182.15z"/>
	<path class="st0" d="M459.59,178.29c0.04-0.46-0.24-0.9-0.67-0.66c-1.1,0.59-2.1,0.38-3.19,0.03c-0.71-0.23-0.84,0.32-0.83,0.92
		c0.02,1.32,0.01,2.63,0.01,3.95c0,1.18-0.02,2.37,0.01,3.55c0.02,0.65-0.3,1.45,0.93,1.49c1.39,0.04,1.02-0.87,1.03-1.58
		c0.03-1.05,0.01-2.11,0.01-3.16c0-1.57,0-3.12,2.17-3.3C459.88,179.46,459.54,178.75,459.59,178.29z"/>
	<path class="st76" d="M334.45,86.1c1.22,0,2.44-0.58,3.67,0C336.9,86.39,335.67,86.96,334.45,86.1z"/>
	<path class="st77" d="M337.99,89.66c-1.15,0.41-2.32,0.59-3.5,0.11C335.64,89.23,336.81,89.33,337.99,89.66z"/>
	<path class="st78" d="M334.59,87.9c1.71-0.45,2.95-0.52,4.51,0.5C337.45,88.22,336.24,88.09,334.59,87.9z"/>
	<path class="st79" d="M317.41,90.45c0.88-0.6,1.76-0.61,2.65-0.04C319.18,90.42,318.3,90.43,317.41,90.45z"/>
	<path class="st80" d="M336.92,92.86c-0.68-0.04-1.38,0.16-1.35-0.77c0.02-0.68,0.52-0.84,1.07-0.8c0.65,0.04,1.37,0.13,1.34,1.01
		C337.96,93.16,337.2,92.67,336.92,92.86z"/>
	<path class="st81" d="M300.8,89.64c1.02-1.3,2.21-1.1,3.46-0.4C303.1,89.32,301.92,89.2,300.8,89.64z"/>
	<path class="st28" d="M301.15,87.79c0.38-1.47,1.5-0.75,2.36-0.79c0.02,0.35-0.08,0.52-0.45,0.32
		C302.42,87.47,301.79,87.63,301.15,87.79z"/>
	<path class="st82" d="M303.06,87.32c0.15-0.11,0.3-0.21,0.45-0.32c0.12-0.02,0.24-0.05,0.36-0.08c0.35,0.23,0.7,0.46,1.05,0.69
		C304.18,88.21,303.67,87.42,303.06,87.32z"/>
	<path class="st83" d="M317.49,88.35c1.72-0.42,1.8-0.4,2.23,0.49C318.97,88.71,318.14,88.96,317.49,88.35z"/>
	<path class="st84" d="M317.46,86.6c0.81-0.05,1.66-0.46,2.37,0.3c-0.53,0.01-1.05,0.02-1.58,0.03
		C317.9,87.04,317.49,87.29,317.46,86.6z"/>
	<path class="st85" d="M317.46,86.6c0.27,0.11,0.53,0.22,0.8,0.33c-0.42,0.14-0.84,0.27-1.26,0.41c-0.66-0.28,0.1-0.57-0.01-0.86
		C317.14,86.52,317.3,86.56,317.46,86.6z"/>
	<path class="st86" d="M334.93,84.82c-0.03-0.24-0.07-0.49-0.1-0.73c1.34,0.03,2.81-0.56,3.89,0.79
		C337.46,84.72,336.2,84.21,334.93,84.82z"/>
	<path class="st87" d="M334.6,126.71c0.07-1.11,0.68-1.99,2.01-2.01c1.29-0.02,2.07,0.74,2.13,2.06c0.06,1.42-0.74,2.3-2.1,2.3
		C335.37,129.06,334.66,128.19,334.6,126.71z"/>
	<path class="st20" d="M331.74,126.33c-0.07,1.31-0.63,2.19-2.01,2.21c-1.36,0.02-2.05-0.78-2.08-2.1c-0.02-1.32,0.69-2.2,1.98-2.22
		C330.93,124.19,331.65,125.04,331.74,126.33z"/>
	<path class="st88" d="M327.79,102.03c-1.18,0.04-1.93-0.56-1.98-1.68c-0.06-1.22,0.68-1.95,1.92-1.96c1.11-0.01,1.9,0.5,1.96,1.7
		C329.75,101.37,329.04,101.99,327.79,102.03z"/>
	<path class="st2" d="M318.43,143.7c2.18,0,4.35,0.03,6.53-0.01c0.93-0.02,1.28,0.29,1.26,1.25c-0.07,3.23-0.09,6.47-0.08,9.7
		c0,0.87-0.27,1.11-1.15,1.08c-4.35-0.13-8.7-0.21-13.05-0.26c-0.89-0.01-1.31-0.21-1.29-1.21c0.07-3.23,0.08-6.47,0.05-9.7
		c-0.01-0.92,0.42-1.1,1.2-1.09c2.18,0.03,4.35,0.01,6.53,0.01C318.43,143.54,318.43,143.62,318.43,143.7z"/>
	<path class="st89" d="M330.01,160.06c0-0.85-0.01-1.7,0.01-2.56c0.01-0.41,0.17-0.85,0.61-0.88c0.45-0.03,0.69,0.37,0.69,0.79
		c0.02,1.9,0.01,3.8,0.01,5.7c0,0.44-0.24,0.88-0.62,0.88c-0.52,0-0.7-0.49-0.7-0.99C330,162.03,330.01,161.04,330.01,160.06z"/>
	<path class="st22" d="M298.36,124.18c-0.7,1.72,0.69,3.63-0.66,5.16c0.56,0.44,0.96,0.19,1.33,0.25c0.9,0.13-0.08,0.47,0.04,0.7
		c0.16,0.31,0.18,0.81-0.24,0.48c-1.74-1.38-3.71-0.57-5.42-0.88c-1.8-0.34-3.57-0.13-5.33-0.37c-2.42-0.34-4.9,0.35-7.36-0.16
		c-0.49-0.1-0.22,0.44-0.17,0.72c-2.11-0.88-4.21-1.24-6.3,0.09c-0.26,0.17-0.55,0.07-0.69-0.16c-0.88-1.46-2.11-0.09-3.15-0.37
		c-0.35-0.09-0.7,1.26-1.29,0.5c-0.24-0.31-0.25-1.28-0.15-1.82c0.21-1.1-0.69-2.32,0.4-3.32c0.11-0.11-0.12-0.87-0.53-0.83
		c-0.33,0.03-0.51,1.24-0.97,0.29c-0.1-0.22-0.26-1.73,0.91-2.02c0.38-0.09,0.71-0.21,0.68-0.76c-0.08-1.36,0.02-2.88-0.29-4.05
		c-0.48-1.82-0.15-3.38-0.05-5.11c0.14-2.45,0.73-5-0.25-7.44c-0.09-0.23-0.15-0.7-0.1-0.72c1.48-0.56,1.05-2.61,2.53-3.27
		c-0.55,2.06,0,2.95,1.95,2.79c1.25-0.11,2.46,0,3.68,0.03c0.29,0.01,1.71,0.64,0.89-0.85c-0.14-0.26,0.5-0.39,0.96-0.01
		c1.23,1.01,1.94,0.81,2.3-0.62c0.07-0.26,0.18-0.53-0.08-0.71c-0.23-0.15-0.54-0.13-0.7,0.11c-0.23,0.34-0.25,1.02-0.9,0.38
		c-0.57-0.56,0.32-0.73,0.3-1.14c0.04-0.19,0.15-0.3,0.35-0.32c2.46,0.41,4.86-0.17,7.28-0.4c0.16-0.34,0.33-0.64,0.78-0.36
		c1.52,0.96,3.7,0.72,5.19-0.32c0.41-0.29,1.41-0.17,1.86,0.15c0.71,0.5,1.06,1.35,1.99,0.19c0.32-0.4,0.98,0.39,0.91,0.8
		c-0.49,2.72,0.63,5.44-0.06,8.17c-0.33,1.3,0.41,2.54,0.31,3.93c-0.13,1.74-0.5,3.56-0.24,5.25c0.26,1.73,0.48,3.47,0.69,5.21
		C298.99,123.8,298.64,123.97,298.36,124.18z"/>
	<path class="st22" d="M275.32,101.13c0.71,0.29,0.97,0.82,0.79,1.55c-0.07,0.28-0.34,0.39-0.61,0.25
		c-0.58-0.31-0.87-0.75-0.51-1.41C274.89,101.21,275.03,101.1,275.32,101.13z"/>
	<path class="st22" d="M280.54,130.13c0.72,0.22,1.26,0.38,1.8,0.55C281.54,131.03,280.55,131.87,280.54,130.13z"/>
	<path class="st90" d="M276.53,131.39c0.12,0.13,0.36,0.27,0.41,0.47c0.07,0.25-0.1,0.49-0.39,0.53c-0.3,0.04-0.47-0.17-0.51-0.42
		C276,131.7,276.14,131.5,276.53,131.39z"/>
	<path class="st91" d="M283.64,131.36c0.29,0.06,0.5,0.23,0.45,0.52c-0.02,0.15-0.22,0.34-0.38,0.39c-0.3,0.1-0.52-0.1-0.54-0.38
		C283.15,131.61,283.35,131.42,283.64,131.36z"/>
	<path class="st92" d="M275.32,101.13c-0.11,0.13-0.22,0.26-0.33,0.39c-0.34-0.02-0.69-0.05-0.76-0.45
		c-0.06-0.3,0.18-0.52,0.44-0.54C275.04,100.5,275.22,100.8,275.32,101.13z"/>
	<path class="st93" d="M290.62,99.34c-0.01,0.28-0.1,0.54-0.41,0.56c-0.29,0.02-0.51-0.18-0.5-0.46c0-0.15,0.19-0.34,0.35-0.42
		C290.37,98.85,290.51,99.08,290.62,99.34z"/>
	<path class="st94" d="M298.54,98.93c-0.29-0.12-0.52-0.28-0.36-0.59c0.08-0.15,0.28-0.33,0.43-0.34c0.28-0.01,0.49,0.2,0.45,0.5
		C299.03,98.81,298.78,98.9,298.54,98.93z"/>
	<path class="st95" d="M295.09,131.11c0.26,0.11,0.47,0.27,0.4,0.58c-0.06,0.3-0.29,0.45-0.58,0.31c-0.15-0.07-0.33-0.28-0.34-0.43
		C294.57,131.28,294.8,131.13,295.09,131.11z"/>
	<path class="st90" d="M288.12,99.97c-0.26,0.12-0.52,0.24-0.78,0.36c-0.13-0.33-0.46-0.74,0.05-0.96
		C287.85,99.17,288.04,99.56,288.12,99.97z"/>
	<path class="st96" d="M267.56,101.76c0.19-0.29,0.32-0.57,0.62-0.48c0.23,0.07,0.5,0.25,0.33,0.56c-0.08,0.16-0.33,0.38-0.42,0.34
		C267.89,102.12,267.73,101.91,267.56,101.76z"/>
	<path class="st97" d="M267.41,132.65c-0.11-0.07-0.28-0.14-0.35-0.26c-0.17-0.29,0.05-0.48,0.27-0.55c0.12-0.04,0.36,0.1,0.44,0.22
		C267.95,132.36,267.68,132.48,267.41,132.65z"/>
	<path class="st98" d="M288.61,131.26c0.37,0.12,0.53,0.33,0.48,0.59c-0.05,0.25-0.25,0.46-0.54,0.32c-0.15-0.07-0.35-0.3-0.32-0.4
		C288.29,131.57,288.49,131.41,288.61,131.26z"/>
	<path class="st99" d="M286.45,132.27c-0.3,0.03-0.54-0.16-0.53-0.39c0.01-0.18,0.26-0.38,0.45-0.5c0.06-0.03,0.33,0.18,0.41,0.34
		C286.94,132.03,286.67,132.15,286.45,132.27z"/>
	<path class="st100" d="M278.85,132.37c-0.2-0.18-0.38-0.28-0.44-0.42c-0.12-0.29,0.16-0.44,0.35-0.51c0.09-0.03,0.38,0.2,0.38,0.3
		C279.13,131.93,278.97,132.12,278.85,132.37z"/>
	<path class="st101" d="M266.16,104.95c-0.31,0.01-0.55-0.19-0.53-0.43c0.02-0.2,0.29-0.38,0.45-0.57c0.14,0.13,0.33,0.23,0.41,0.39
		C266.66,104.66,266.37,104.79,266.16,104.95z"/>
	<path class="st102" d="M266.68,107.27c-0.08,0.31-0.22,0.53-0.5,0.49c-0.13-0.02-0.31-0.23-0.31-0.36
		c-0.01-0.24,0.07-0.52,0.42-0.41C266.43,107.03,266.56,107.18,266.68,107.27z"/>
	<path class="st103" d="M280.07,100.72c-0.12,0.11-0.23,0.21-0.35,0.32c-0.3-0.08-0.65-0.19-0.66-0.53
		c-0.01-0.15,0.32-0.45,0.48-0.45C279.86,100.09,280.01,100.4,280.07,100.72z"/>
	<path class="st104" d="M266.57,127.63c-0.16,0.14-0.33,0.29-0.51,0.45c-0.15-0.18-0.35-0.35-0.44-0.56
		c-0.03-0.06,0.21-0.33,0.35-0.36C266.26,127.08,266.42,127.3,266.57,127.63z"/>
	<path class="st105" d="M266.68,125.17c-0.17,0.14-0.34,0.35-0.55,0.42c-0.1,0.03-0.35-0.18-0.42-0.34
		c-0.16-0.32,0.12-0.49,0.35-0.56C266.33,124.62,266.53,124.82,266.68,125.17z"/>
	<path class="st106" d="M298.36,124.18c0.14-0.28,0.28-0.56,0.41-0.84c0.38,0.17,0.75,0.36,0.44,0.85
		C298.96,124.61,298.65,124.26,298.36,124.18z"/>
	<path class="st107" d="M316.6,113.04c0.13-2.91-0.6-5.82-0.02-8.74c0.54-0.97,1.19-1.89,2.45-1.48c1.16,0.37,1.47,1.44,1.48,2.55
		c0.03,2.11,0.1,4.22,0,6.32c-0.05,1.05-0.44,2.12-1.64,2.47C317.81,114.48,317.11,113.9,316.6,113.04z"/>
	<path class="st20" d="M323.39,145.52c0.24,0.26,0.49,0.52,0.73,0.78c0.43,1.9,0.08,3.82,0.2,5.73c0.05,0.62-0.07,1.17-0.61,1.56
		c-2.47,0.49-4.96,0.24-7.44,0.22c-0.65-0.22-1.33-0.15-2-0.16c-0.81,0.02-1.62,0.04-1.81-1.03c-0.02-1,0-2.01-0.01-3.01
		c0.02-1.22-0.13-2.45,0.42-3.61c0.31-0.34,0.62-0.69,1.16-0.52C317.15,145.53,320.27,145.59,323.39,145.52z"/>
	<path class="st108" d="M323.39,145.52c-0.83,0.81-1.87,0.42-2.78,0.37c-2.28-0.12-4.58,0.25-6.83-0.33
		c0.46-0.46,1.13-0.02,1.62-0.36C318.07,145.22,320.74,145.12,323.39,145.52z"/>
	<path class="st109" d="M316.2,153.52c2.51-0.02,5.03-0.04,7.54-0.06c0.12,0.09,0.16,0.18,0.12,0.27c-0.04,0.09-0.08,0.14-0.12,0.14
		c-2.66,0.73-5.32,0.32-7.98,0.01C315.82,153.65,316.04,153.63,316.2,153.52z"/>
	<path class="st110" d="M324.16,152.27c-0.01-1.99-0.02-3.98-0.03-5.97c0.83,1.95,0.26,3.97,0.33,5.96
		C324.37,152.44,324.27,152.45,324.16,152.27z"/>
	<path class="st111" d="M313.04,145.91c-0.14,1.2-0.27,2.39-0.41,3.59c-0.1,0.17-0.2,0.16-0.32,0.02c0.13-1.36-0.76-2.91,0.72-4.03
		c0.13,0.09,0.17,0.18,0.13,0.28C313.12,145.86,313.08,145.91,313.04,145.91z"/>
	<path class="st112" d="M312.31,149.52c0.11-0.01,0.21-0.01,0.32-0.02c-0.01,1.05-0.02,2.11-0.02,3.16c-0.09,0-0.18,0-0.27,0
		C312.32,151.61,312.31,150.57,312.31,149.52z"/>
	<path class="st113" d="M312.33,152.66c0.09,0,0.18,0,0.27,0c0.22,0.87,0.97,0.76,1.6,0.87c0.14,0.06,0.19,0.12,0.15,0.19
		c-0.05,0.07-0.09,0.1-0.14,0.1C313.22,154.03,312.47,153.84,312.33,152.66z"/>
	<path class="st114" d="M313.04,145.91c0-0.14-0.01-0.28-0.01-0.43c0.73-0.64,1.57-0.28,2.38-0.29c-0.45,0.51-1.08,0.26-1.62,0.36
		C313.53,145.67,313.28,145.79,313.04,145.91z"/>
	<path class="st115" d="M324.16,152.27c0.1-0.01,0.2-0.01,0.3-0.01c0.09,0.68,0,1.28-0.72,1.6c0-0.13,0-0.27,0-0.4
		C323.88,153.06,324.02,152.66,324.16,152.27z"/>
	<path class="st116" d="M314.22,153.82c-0.01-0.1-0.02-0.19-0.01-0.29c0.66,0,1.33-0.01,1.99-0.01c-0.14,0.12-0.29,0.24-0.43,0.36
		C315.25,153.86,314.73,153.84,314.22,153.82z"/>
	<path class="st32" d="M316.23,150.67c1.11-1.32,0.75-3.48,2.39-3.87c1.31-0.31,2.91-0.41,4.96,0.57c-4.89,0.01-1.72,3.81-3.49,5.35
		c-0.7-1.33-0.24-2.68-0.33-3.98c-0.03-0.41,0.25-1.01-0.43-1.13c-0.6-0.1-0.74,0.44-0.92,0.85c-0.47,1.09-0.92,2.18-1.36,3.28
		c-0.15,0.37-0.25,0.81-0.7,0.87c-0.52,0.08-0.62-0.43-0.76-0.76c-0.55-1.41-1.07-2.83-1.6-4.24c-0.12-0.31-0.26-0.69,0.13-0.85
		c0.44-0.18,0.73,0.11,0.88,0.54C315.37,148.34,315.76,149.38,316.23,150.67z"/>
</g>
</svg>
